<?xml version="1.0" standalone="no"?>
<!DOCTYPE svg PUBLIC "-//W3C//DTD SVG 20010904//EN"
 "http://www.w3.org/TR/2001/REC-SVG-20010904/DTD/svg10.dtd">
<svg version="1.0" xmlns="http://www.w3.org/2000/svg"
     width="512.000000pt" height="512.000000pt" viewBox="0 0 512.000000 512.000000"
     preserveAspectRatio="xMidYMid meet">

  <g transform="translate(0.000000,512.000000) scale(0.100000,-0.100000)"
     fill="#000000" stroke="none">
    <path d="M81 5102 c-19 -9 -44 -30 -55 -45 -21 -28 -21 -39 -24 -640 -2 -597
-2 -613 18 -645 55 -90 188 -96 240 -10 19 32 20 49 20 453 l0 420 593 -591
c325 -325 603 -599 617 -608 57 -38 162 -9 195 53 20 39 19 110 -1 141 -9 14
-283 292 -608 618 l-591 592 420 0 c404 0 421 1 453 20 86 52 80 185 -10 240
-32 19 -52 20 -633 20 -552 0 -603 -1 -634 -18z"/>
    <path d="M3772 5100 c-90 -55 -96 -188 -10 -240 32 -19 49 -20 453 -20 l420 0
-602 -602 c-638 -641 -633 -635 -619 -714 9 -45 65 -101 110 -110 79 -14 74
-19 714 619 l602 602 0 -420 c0 -404 1 -421 20 -453 52 -86 185 -80 240 10 20
32 20 48 18 645 -3 601 -3 612 -24 640 -47 65 -27 63 -689 63 -581 0 -601 -1
-633 -20z"/>
    <path d="M1490 1684 c-14 -9 -292 -283 -617 -608 l-593 -591 0 420 c0 404 -1
421 -20 453 -52 86 -185 80 -240 -10 -19 -32 -20 -52 -20 -633 0 -662 -2 -642
63 -689 28 -21 39 -21 640 -24 597 -2 613 -2 645 18 90 55 96 188 10 240 -32
19 -49 20 -453 20 l-420 0 591 593 c325 325 599 603 608 617 20 31 21 102 1
141 -33 62 -138 91 -195 53z"/>
    <path d="M3483 1680 c-18 -10 -39 -33 -48 -49 -20 -39 -19 -110 1 -141 9 -14
283 -292 608 -617 l591 -593 -418 0 c-461 0 -459 0 -497 -63 -40 -65 -16 -155
52 -197 32 -19 52 -20 633 -20 662 0 642 -2 689 63 21 28 21 39 24 635 2 423
-1 615 -8 633 -44 105 -193 120 -250 26 -19 -30 -20 -53 -20 -452 l0 -420
-592 591 c-326 325 -604 599 -618 608 -34 22 -107 21 -147 -4z"/>
  </g>
</svg>
