<?xml version="1.0" standalone="no"?>
<!DOCTYPE svg PUBLIC "-//W3C//DTD SVG 20010904//EN"
  "http://www.w3.org/TR/2001/REC-SVG-20010904/DTD/svg10.dtd">
<svg version="1.0" xmlns="http://www.w3.org/2000/svg"
     width="512.000000pt" height="512.000000pt" viewBox="0 0 512.000000 512.000000"
     preserveAspectRatio="xMidYMid meet">

  <g transform="translate(0.000000,512.000000) scale(0.100000,-0.100000)"
     fill="#000000" stroke="none">
    <path d="M2498 4789 c-23 -12 -46 -35 -58 -59 -19 -37 -20 -58 -20 -370 0
-312 1 -333 20 -370 23 -45 80 -80 130 -80 50 0 107 35 130 80 19 37 20 58 20
370 0 312 -1 333 -20 370 -37 73 -127 99 -202 59z"/>
    <path d="M84 4491 c-31 -14 -47 -30 -63 -63 l-21 -44 0 -1824 0 -1824 21 -43
c35 -73 121 -103 192 -67 41 21 1820 1795 1858 1853 38 59 38 103 0 162 -47
72 -1819 1835 -1863 1854 -48 20 -74 19 -124 -4z m933 -2648 l-717 -718 0
1435 0 1435 717 -718 718 -717 -718 -717z"/>
    <path d="M4889 4481 c-58 -38 -1832 -1817 -1853 -1858 -24 -48 -20 -93 13
-144 38 -58 1817 -1832 1858 -1853 71 -36 157 -6 192 67 l21 43 0 1824 0 1824
-21 44 c-16 33 -32 49 -63 63 -58 26 -95 24 -147 -10z"/>
    <path d="M2498 3589 c-23 -12 -46 -35 -58 -59 -19 -37 -20 -58 -20 -370 0
-312 1 -333 20 -370 23 -45 80 -80 130 -80 50 0 107 35 130 80 19 37 20 58 20
370 0 312 -1 333 -20 370 -37 73 -127 99 -202 59z"/>
    <path d="M2498 2389 c-23 -12 -46 -35 -58 -59 -19 -37 -20 -58 -20 -370 0
-312 1 -333 20 -370 23 -45 80 -80 130 -80 50 0 107 35 130 80 19 37 20 58 20
370 0 312 -1 333 -20 370 -37 73 -127 99 -202 59z"/>
    <path d="M2498 1189 c-23 -12 -46 -35 -58 -59 -19 -37 -20 -58 -20 -370 0
-312 1 -333 20 -370 23 -45 80 -80 130 -80 50 0 107 35 130 80 19 37 20 58 20
370 0 312 -1 333 -20 370 -37 73 -127 99 -202 59z"/>
  </g>
</svg>
