<?xml version="1.0" standalone="no"?>
<!DOCTYPE svg PUBLIC "-//W3C//DTD SVG 20010904//EN"
  "http://www.w3.org/TR/2001/REC-SVG-20010904/DTD/svg10.dtd">
<svg version="1.0" xmlns="http://www.w3.org/2000/svg"
     width="512.000000pt" height="512.000000pt" viewBox="0 0 512.000000 512.000000"
     preserveAspectRatio="xMidYMid meet">

  <g transform="translate(0.000000,512.000000) scale(0.100000,-0.100000)"
     fill="#000000" stroke="none">
    <path d="M2400 5113 c-249 -24 -412 -55 -598 -115 -401 -128 -740 -337 -1039
-639 -398 -403 -630 -870 -720 -1449 -25 -161 -25 -539 0 -700 90 -579 322
-1046 720 -1449 410 -415 915 -664 1507 -743 133 -18 506 -15 645 5 280 39
534 117 780 237 285 140 467 270 695 499 159 160 254 277 362 449 67 106 196
364 200 401 3 21 -17 31 -262 127 -146 58 -275 107 -287 110 -19 5 -25 -2 -44
-48 -183 -428 -531 -790 -949 -986 -137 -64 -290 -116 -443 -148 -169 -35
-480 -45 -649 -20 -578 88 -1061 399 -1371 883 -281 439 -369 991 -241 1505
169 677 713 1225 1386 1399 230 59 542 77 763 44 346 -52 667 -191 938 -409
94 -75 184 -162 176 -170 -2 -2 -150 -86 -329 -186 -179 -100 -328 -184 -331
-188 -5 -6 1717 -1039 1750 -1050 5 -2 11 97 15 220 10 361 27 1820 22 1825
-3 3 -130 -65 -282 -150 l-278 -156 -57 62 c-387 423 -870 694 -1424 802 -180
35 -499 54 -655 38z"/>
  </g>
</svg>
