<?xml version="1.0" standalone="no"?>
<!DOCTYPE svg PUBLIC "-//W3C//DTD SVG 20010904//EN"
  "http://www.w3.org/TR/2001/REC-SVG-20010904/DTD/svg10.dtd">
<svg version="1.0" xmlns="http://www.w3.org/2000/svg"
     width="512.000000pt" height="512.000000pt" viewBox="0 0 512.000000 512.000000"
     preserveAspectRatio="xMidYMid meet">
  <metadata>
    Created by potrace 1.16, written by Peter Selinger 2001-2019
  </metadata>
  <g transform="translate(0.000000,512.000000) scale(0.100000,-0.100000)"
     fill="#000000" stroke="none">
    <path d="M2405 4800 c-692 -43 -1332 -416 -1723 -1005 -136 -204 -255 -483
-311 -725 -94 -413 -67 -874 75 -1267 198 -551 602 -1001 1129 -1258 326 -159
625 -227 995 -227 519 1 987 165 1397 489 94 74 272 252 348 348 157 197 293
446 369 674 72 218 101 366 116 589 73 1146 -731 2161 -1867 2357 -78 13 -366
37 -398 33 -5 0 -64 -4 -130 -8z m419 -346 c213 -30 457 -109 636 -206 75 -41
250 -157 302 -201 l28 -22 -1348 -1348 -1348 -1348 -51 68 c-573 756 -518
1801 131 2480 338 354 785 564 1261 592 142 8 254 4 389 -15z m1326 -837 c138
-206 234 -435 286 -682 32 -150 44 -438 24 -604 -78 -675 -527 -1268 -1160
-1535 -196 -83 -405 -132 -610 -144 -474 -27 -903 101 -1279 381 l-82 61 1348
1348 1348 1348 23 -28 c12 -15 58 -80 102 -145z"/>
    <path d="M1832 3980 c-66 -40 -72 -63 -72 -272 l0 -188 -187 0 c-210 0 -233
-6 -273 -72 -27 -45 -27 -131 0 -176 40 -66 63 -72 273 -72 l187 0 0 -187 c0
-210 6 -233 72 -273 45 -27 131 -27 176 0 66 40 72 63 72 273 l0 187 188 0
c209 0 232 6 272 72 27 45 27 131 0 176 -40 66 -63 72 -272 72 l-188 0 0 188
c0 169 -2 190 -20 220 -30 48 -75 72 -140 72 -37 0 -66 -6 -88 -20z"/>
    <path d="M2632 1900 c-48 -30 -72 -75 -72 -140 0 -65 24 -110 72 -140 32 -19
52 -20 568 -20 516 0 536 1 568 20 48 30 72 75 72 140 0 65 -24 110 -72 140
-32 19 -52 20 -568 20 -516 0 -536 -1 -568 -20z"/>
  </g>
</svg>
