<?xml version="1.0" ?><svg height="32" id="icon" viewBox="0 0 32 32" width="32" xmlns="http://www.w3.org/2000/svg"><defs><style>
      .cls-1 {
        fill: #272425;
      }

      .cls-2 {
        fill: none;
      }
    </style></defs><path class="cls-1" d="M19.386,15.2105l9-7A1,1,0,0,1,30,9V23a1,1,0,0,1-1.614.79l-9-7a1,1,0,0,1,0-1.5791Z"/><rect class="cls-1" height="28" transform="translate(32 32) rotate(-180)" width="2" x="15" y="2"/><path class="cls-1" d="M13,16a1.001,1.001,0,0,1-.386.79l-9,7A1,1,0,0,1,2,23V9a1,1,0,0,1,1.614-.79l9,7A1.001,1.001,0,0,1,13,16ZM4,20.9556,10.3711,16,4,11.0444Z"/><rect class="cls-2" data-name="&lt;Transparent Rectangle&gt;" height="32" id="_Transparent_Rectangle_" width="32"/></svg>