<svg>
	<symbol viewBox="0 0 24 24" fill="none" id="crop-icon" xmlns="http://www.w3.org/2000/svg">
		<path d="M2 6H14.8C15.9201 6 16.4802 6 16.908 6.21799C17.2843 6.40973 17.5903 6.71569 17.782 7.09202C18 7.51984 18 8.07989 18 9.2V22M22 18L9.2 18C8.07989 18 7.51984 18 7.09202 17.782C6.71569 17.5903 6.40973 17.2843 6.21799 16.908C6 16.4802 6 15.9201 6 14.8V2" stroke="#000000" stroke-width="2" stroke-linecap="round" stroke-linejoin="round"/>
	</symbol>
			
	<symbol viewBox="0 0 24 24" id="scale-icon" xmlns="http://www.w3.org/2000/svg">
		<path d="M6 6.75C6 6.33579 6.33579 6 6.75 6H9.25C9.66421 6 10 6.33579 10 6.75C10 7.16421 9.66421 7.5 9.25 7.5H8.56066L10.2803 9.21967C10.5732 9.51256 10.5732 9.98744 10.2803 10.2803C9.98744 10.5732 9.51256 10.5732 9.21967 10.2803L7.5 8.56066V9.25115C7.5 9.66536 7.16421 10.0012 6.75 10.0012C6.33579 10.0012 6 9.66536 6 9.25115V6.75Z" fill="#212121"/>
        <path d="M17.2505 18.0011C17.4494 18.0011 17.6402 17.9221 17.7808 17.7814C17.9215 17.6408 18.0005 17.45 18.0005 17.2511V14.7499C18.0005 14.3357 17.6647 13.9999 17.2505 13.9999C16.8363 13.9999 16.5005 14.3357 16.5005 14.7499V15.4402L14.7803 13.7197C14.4874 13.4268 14.0125 13.4268 13.7196 13.7196C13.4267 14.0125 13.4266 14.4874 13.7195 14.7803L15.44 16.5011H14.7505C14.3363 16.5011 14.0005 16.8369 14.0005 17.2511C14.0005 17.6653 14.3363 18.0011 14.7505 18.0011H17.2505Z" fill="#212121"/>
        <path d="M17.7808 6.22028C17.9215 6.36093 18.0005 6.5517 18.0005 6.75061V9.25061C18.0005 9.66482 17.6647 10.0006 17.2505 10.0006C16.8363 10.0006 16.5005 9.66482 16.5005 9.25061V8.56075L14.7801 10.2804C14.4871 10.5733 14.0123 10.5732 13.7194 10.2802C13.4266 9.98727 13.4267 9.5124 13.7197 9.21956L15.4393 7.50061H14.7493C14.3351 7.50061 13.9993 7.16482 13.9993 6.75061C13.9993 6.3364 14.3351 6.00061 14.7493 6.00061L17.2505 6.00061C17.4494 6.00061 17.6402 6.07963 17.7808 6.22028Z" fill="#212121"/>
        <path d="M6 17.2505C6 17.4494 6.07902 17.6402 6.21967 17.7808C6.36032 17.9215 6.55109 18.0005 6.75 18.0005H9.25115C9.66536 18.0005 10.0012 17.6647 10.0012 17.2505C10.0012 16.8363 9.66536 16.5005 9.25115 16.5005H8.56045L10.2804 14.7803C10.5732 14.4874 10.5732 14.0125 10.2803 13.7196C9.98737 13.4268 9.5125 13.4268 9.21963 13.7197L7.5 15.4396V14.7505C7.5 14.3363 7.16421 14.0005 6.75 14.0005C6.33579 14.0005 6 14.3363 6 14.7505L6 17.2505Z" fill="#212121"/>
        <path d="M3 5.25C3 4.00736 4.00736 3 5.25 3H18.75C19.9926 3 21 4.00736 21 5.25V18.75C21 19.9926 19.9926 21 18.75 21H5.25C4.00736 21 3 19.9926 3 18.75V5.25ZM5.25 4.5C4.83579 4.5 4.5 4.83579 4.5 5.25V18.75C4.5 19.1642 4.83579 19.5 5.25 19.5H18.75C19.1642 19.5 19.5 19.1642 19.5 18.75V5.25C19.5 4.83579 19.1642 4.5 18.75 4.5H5.25Z" fill="#212121"/>
	</symbol>
			
	<symbol viewBox="0 0 24 24" id="logo-icon" xmlns="http://www.w3.org/2000/svg">
		<path d="M12,9.52A2.48,2.48,0,1,0,14.48,12,2.48,2.48,0,0,0,12,9.52Zm9.93-2.45a6.53,6.53,0,0,0-.42-2.26,4,4,0,0,0-2.32-2.32,6.53,6.53,0,0,0-2.26-.42C15.64,2,15.26,2,12,2s-3.64,0-4.93.07a6.53,6.53,0,0,0-2.26.42A4,4,0,0,0,2.49,4.81a6.53,6.53,0,0,0-.42,2.26C2,8.36,2,8.74,2,12s0,3.64.07,4.93a6.86,6.86,0,0,0,.42,2.27,3.94,3.94,0,0,0,.91,1.4,3.89,3.89,0,0,0,1.41.91,6.53,6.53,0,0,0,2.26.42C8.36,22,8.74,22,12,22s3.64,0,4.93-.07a6.53,6.53,0,0,0,2.26-.42,3.89,3.89,0,0,0,1.41-.91,3.94,3.94,0,0,0,.91-1.4,6.6,6.6,0,0,0,.42-2.27C22,15.64,22,15.26,22,12S22,8.36,21.93,7.07Zm-2.54,8A5.73,5.73,0,0,1,19,16.87,3.86,3.86,0,0,1,16.87,19a5.73,5.73,0,0,1-1.81.35c-.79,0-1,0-3.06,0s-2.27,0-3.06,0A5.73,5.73,0,0,1,7.13,19a3.51,3.51,0,0,1-1.31-.86A3.51,3.51,0,0,1,5,16.87a5.49,5.49,0,0,1-.34-1.81c0-.79,0-1,0-3.06s0-2.27,0-3.06A5.49,5.49,0,0,1,5,7.13a3.51,3.51,0,0,1,.86-1.31A3.59,3.59,0,0,1,7.13,5a5.73,5.73,0,0,1,1.81-.35h0c.79,0,1,0,3.06,0s2.27,0,3.06,0A5.73,5.73,0,0,1,16.87,5a3.51,3.51,0,0,1,1.31.86A3.51,3.51,0,0,1,19,7.13a5.73,5.73,0,0,1,.35,1.81c0,.79,0,1,0,3.06S19.42,14.27,19.39,15.06Zm-1.6-7.44a2.38,2.38,0,0,0-1.41-1.41A4,4,0,0,0,15,6c-.78,0-1,0-3,0s-2.22,0-3,0a4,4,0,0,0-1.38.26A2.38,2.38,0,0,0,6.21,7.62,4.27,4.27,0,0,0,6,9c0,.78,0,1,0,3s0,2.22,0,3a4.27,4.27,0,0,0,.26,1.38,2.38,2.38,0,0,0,1.41,1.41A4.27,4.27,0,0,0,9,18.05H9c.78,0,1,0,3,0s2.22,0,3,0a4,4,0,0,0,1.38-.26,2.38,2.38,0,0,0,1.41-1.41A4,4,0,0,0,18.05,15c0-.78,0-1,0-3s0-2.22,0-3A3.78,3.78,0,0,0,17.79,7.62ZM12,15.82A3.81,3.81,0,0,1,8.19,12h0A3.82,3.82,0,1,1,12,15.82Zm4-6.89a.9.9,0,0,1,0-1.79h0a.9.9,0,0,1,0,1.79Z"/>
	</symbol>
			
	<symbol viewBox="0 0 24 24" id="rotate-icon" xmlns="http://www.w3.org/2000/svg">
        <path id="primary" d="M7,17.29A8,8,0,1,0,5.06,11" style="fill: none; stroke: rgb(0, 0, 0); stroke-linecap: round; stroke-linejoin: round; stroke-width: 2;"></path><polyline id="primary-2" data-name="primary" points="3 6 5 11 10 9" style="fill: none; stroke: rgb(0, 0, 0); stroke-linecap: round; stroke-linejoin: round; stroke-width: 2;"></polyline>
	</symbol>
			
	<symbol viewBox="0 0 24 24" id="mirror-icon" xmlns="http://www.w3.org/2000/svg">
		<path fill-rule="evenodd" d="M12 10.75a.75.75 0 01.75.75v1a.75.75 0 01-1.5 0v-1a.75.75 0 01.75-.75zm0 4a.75.75 0 01.75.75v1a.75.75 0 01-1.5 0v-1a.75.75 0 01.75-.75zm0 4a.75.75 0 01.75.75v1a.75.75 0 01-1.5 0v-1a.75.75 0 01.75-.75zm0-12a.75.75 0 01.75.75v1a.75.75 0 01-1.5 0v-1a.75.75 0 01.75-.75zm0-4a.75.75 0 01.75.75v1a.75.75 0 01-1.5 0v-1a.75.75 0 01.75-.75zm9.553 3.314A.75.75 0 0122 6.75v10.5a.75.75 0 01-1.256.554l-5.75-5.25a.75.75 0 010-1.108l5.75-5.25a.75.75 0 01.809-.132zM16.613 12l3.887 3.55v-7.1L16.612 12zM2.447 17.936A.75.75 0 012 17.25V6.75a.75.75 0 011.256-.554l5.75 5.25a.75.75 0 010 1.108l-5.75 5.25a.75.75 0 01-.809.132zM7.387 12L3.5 8.45v7.1L7.388 12z"/>
	</symbol>
			
	<symbol viewBox="0 0 20 20" id="arrow-icon" xmlns="http://www.w3.org/2000/svg">
        <path d="M11.7318 9.35984C12.0854 8.93556 12.7159 8.87824 13.1402 9.2318C13.5645 9.58537 13.6218 10.2159 13.2682 10.6402L8.26825 16.6402C7.91468 17.0645 7.28412 17.1218 6.85984 16.7682C6.43556 16.4147 6.37824 15.7841 6.7318 15.3598L11.7318 9.35984Z" fill="#000000"/>
        <path d="M6.7318 4.64021C6.37824 4.21593 6.43556 3.58537 6.85984 3.2318C7.28412 2.87824 7.91468 2.93556 8.26825 3.35984L13.2682 9.35984C13.6218 9.78412 13.5645 10.4147 13.1402 10.7682C12.7159 11.1218 12.0854 11.0645 11.7318 10.6402L6.7318 4.64021Z" fill="#000000"/>
    </symbol>

		<defs>
			<linearGradient id="gradient">
				<stop offset="0%" stop-color="#f8ed34"/>
				<stop offset="50%" stop-color="#EA118D"/>
				<stop offset="100%" stop-color="#2e368f"/>
			</linearGradient>
		</defs>
</svg>

