
<svg id="svg" version="1.1" xmlns="http://www.w3.org/2000/svg" xmlns:xlink="http://www.w3.org/1999/xlink" width="400" height="400" viewBox="0, 0, 400,400">

  <path id="path0" d="M76.800 42.278 C 61.011 44.025,47.301 56.212,43.137 72.200 L 42.200 75.800 42.200 199.800 C 42.200 319.050,42.228 323.923,42.940 327.000 C 46.382 341.876,57.408 353.111,72.290 356.905 L 75.800 357.800 200.000 357.800 L 324.200 357.800 327.710 356.905 C 342.364 353.169,353.169 342.364,356.905 327.710 L 357.800 324.200 357.800 200.200 C 357.800 80.893,357.772 76.079,357.059 73.000 C 353.679 58.410,342.627 47.052,327.983 43.119 L 324.600 42.211 201.400 42.167 C 133.640 42.143,77.570 42.193,76.800 42.278 M323.383 62.212 C 330.354 64.028,335.972 69.646,337.788 76.617 C 338.720 80.195,338.720 319.805,337.788 323.383 C 335.946 330.455,330.455 335.946,323.383 337.788 C 319.858 338.706,80.201 338.721,76.677 337.803 C 69.692 335.984,64.022 330.332,62.212 323.383 C 61.280 319.805,61.280 80.195,62.212 76.617 C 63.999 69.758,69.652 64.062,76.506 62.217 C 79.808 61.327,319.969 61.323,323.383 62.212 M109.000 101.567 C 106.140 102.280,103.758 104.198,102.260 106.995 C 100.907 109.520,100.907 162.081,102.259 164.600 C 106.270 172.072,116.377 172.081,119.853 164.616 C 120.781 162.625,120.792 162.432,120.796 148.900 C 120.798 141.365,120.931 135.200,121.092 135.200 C 121.252 135.200,131.287 145.079,143.392 157.153 C 167.594 181.295,166.269 180.211,171.219 179.931 C 176.181 179.651,179.651 176.181,179.931 171.219 C 180.211 166.269,181.295 167.594,157.153 143.392 C 145.079 131.287,135.200 121.252,135.200 121.092 C 135.200 120.931,141.365 120.798,148.900 120.796 C 162.432 120.792,162.625 120.781,164.616 119.853 C 172.056 116.389,172.050 106.247,164.605 102.260 C 162.940 101.368,112.331 100.737,109.000 101.567 M237.400 101.567 C 228.470 103.792,227.123 116.007,235.384 119.853 C 237.378 120.782,237.553 120.792,251.399 120.796 L 265.397 120.800 243.515 142.700 C 219.882 166.352,220.018 166.192,220.018 170.400 C 220.018 175.931,224.115 179.987,229.713 179.996 C 233.807 180.003,233.510 180.255,256.805 156.983 C 268.798 145.003,278.734 135.200,278.886 135.200 C 279.038 135.200,279.215 141.545,279.281 149.300 L 279.400 163.400 280.400 165.181 C 284.131 171.827,293.630 171.838,297.363 165.200 L 298.600 163.000 298.717 136.800 C 298.857 105.370,298.883 105.545,293.539 102.585 L 291.400 101.400 265.000 101.334 C 250.480 101.298,238.060 101.403,237.400 101.567 M166.800 220.502 C 165.730 220.824,160.217 226.090,143.392 242.862 C 131.287 254.928,121.252 264.800,121.092 264.800 C 120.931 264.800,120.798 258.635,120.796 251.100 C 120.792 237.568,120.781 237.375,119.853 235.384 C 116.414 227.997,106.262 228.007,102.265 235.400 C 101.403 236.995,101.400 237.079,101.400 264.200 L 101.400 291.400 102.600 293.571 C 103.892 295.909,106.216 297.704,108.878 298.421 C 109.823 298.676,119.981 298.782,136.684 298.711 L 163.000 298.600 165.200 297.363 C 171.838 293.630,171.827 284.131,165.181 280.400 L 163.400 279.400 149.300 279.281 C 141.545 279.215,135.200 279.038,135.200 278.886 C 135.200 278.734,145.003 268.798,156.983 256.805 C 180.255 233.510,180.003 233.807,179.996 229.713 C 179.984 222.803,173.712 218.425,166.800 220.502 M225.267 221.041 C 220.934 223.201,219.038 227.906,220.466 232.954 C 220.866 234.367,224.068 237.747,243.138 256.881 L 265.345 279.162 250.973 279.281 L 236.600 279.400 234.683 280.527 C 227.356 284.834,228.543 295.320,236.687 298.225 C 237.895 298.656,243.400 298.768,264.027 298.782 C 292.981 298.802,292.634 298.832,295.469 296.081 C 298.797 292.851,298.600 294.854,298.600 264.200 L 298.600 237.000 297.363 234.800 C 293.660 228.215,284.367 228.151,280.527 234.683 L 279.400 236.600 279.281 250.973 L 279.162 265.345 256.881 243.138 C 232.704 219.042,233.845 220.000,229.332 220.000 C 228.006 220.000,226.670 220.342,225.267 221.041 " stroke="none" fill="#040404" fill-rule="evenodd" /><path id="path1" d="M0.000 200.000 L 0.000 400.000 200.000 400.000 L 400.000 400.000 400.000 200.000 L 400.000 0.000 200.000 0.000 L 0.000 0.000 0.000 200.000 M326.065 42.566 C 340.817 45.412,353.226 57.078,356.950 71.600 C 358.396 77.242,358.428 80.411,358.300 203.000 L 358.173 323.800 357.310 327.270 C 353.548 342.407,342.526 353.403,327.200 357.307 L 323.800 358.173 203.000 358.300 C 80.411 358.428,77.242 358.396,71.600 356.950 C 57.078 353.226,45.412 340.817,42.566 326.065 C 41.717 321.663,41.717 78.337,42.566 73.935 C 45.549 58.473,57.874 45.997,73.471 42.651 C 77.516 41.783,321.581 41.701,326.065 42.566 M75.519 62.771 C 69.390 64.734,64.616 69.541,62.778 75.600 C 61.999 78.167,61.990 79.769,62.095 200.800 L 62.200 323.400 63.140 325.730 C 65.260 330.986,70.003 335.418,75.504 337.285 L 78.200 338.200 197.800 338.315 C 280.489 338.394,318.449 338.298,320.800 338.004 C 330.030 336.850,336.791 330.084,337.990 320.800 C 338.303 318.380,338.396 282.943,338.315 197.800 L 338.200 78.200 337.285 75.504 C 335.418 70.003,330.986 65.260,325.730 63.140 L 323.400 62.200 200.600 62.120 C 82.664 62.044,77.710 62.069,75.519 62.771 M163.754 101.686 C 170.812 103.772,172.635 114.178,166.757 118.834 C 163.958 121.051,162.803 121.200,148.441 121.200 L 135.410 121.200 157.064 142.900 C 180.641 166.527,180.180 165.980,180.192 170.400 C 180.212 177.859,172.540 182.701,165.945 179.392 C 165.205 179.021,154.835 168.973,142.900 157.064 L 121.200 135.410 121.200 148.432 C 121.200 165.081,120.744 166.762,115.522 169.364 C 110.326 171.953,103.263 169.089,101.686 163.754 C 100.990 161.397,100.990 110.203,101.686 107.846 C 102.288 105.809,105.637 102.342,107.600 101.723 C 109.689 101.065,161.535 101.031,163.754 101.686 M292.077 101.670 C 294.131 102.286,297.124 104.949,298.049 106.985 C 299.265 109.662,299.190 162.142,297.966 164.669 C 294.531 171.765,284.547 172.352,280.554 165.693 C 278.859 162.868,278.809 162.365,278.804 148.005 L 278.800 135.410 257.100 157.064 C 245.165 168.973,234.795 179.021,234.055 179.392 C 226.341 183.263,217.759 175.816,220.186 167.359 C 220.859 165.015,221.003 164.860,242.723 143.100 L 264.583 121.200 251.592 121.198 C 237.578 121.195,236.721 121.094,233.744 119.089 C 227.366 114.794,228.753 104.390,236.055 101.748 C 237.953 101.061,289.804 100.989,292.077 101.670 M174.583 220.610 C 179.529 222.984,181.784 229.288,179.392 234.055 C 179.021 234.795,168.973 245.165,157.064 257.100 L 135.410 278.800 148.005 278.804 C 162.365 278.809,162.868 278.859,165.693 280.554 C 172.352 284.547,171.765 294.531,164.669 297.966 C 161.947 299.284,109.794 299.271,106.987 297.952 C 104.772 296.911,102.300 294.180,101.670 292.077 C 101.002 289.847,101.002 238.553,101.670 236.323 C 103.836 229.095,114.346 227.334,118.989 233.421 C 121.046 236.118,121.200 237.381,121.200 251.552 L 121.200 264.577 143.100 242.739 C 167.074 218.833,166.273 219.499,170.800 219.735 C 172.010 219.799,173.712 220.192,174.583 220.610 M233.029 220.252 C 234.810 220.840,237.105 223.002,256.876 242.719 L 278.751 264.535 278.876 250.767 L 279.000 237.000 280.165 234.898 C 284.156 227.694,294.685 227.980,298.049 235.385 C 299.190 237.898,299.181 290.541,298.039 293.000 C 297.114 294.991,294.675 297.363,292.713 298.180 C 290.021 299.302,237.817 299.094,235.387 297.952 C 227.928 294.446,227.645 284.183,234.898 280.165 L 237.000 279.000 250.767 278.876 L 264.535 278.751 242.719 256.876 C 223.002 237.105,220.840 234.810,220.252 233.029 C 217.572 224.923,224.923 217.572,233.029 220.252 " stroke="none" fill="#fbfbfb" fill-rule="evenodd" /><path id="path2" d="M139.700 61.900 C 172.865 61.956,227.135 61.956,260.300 61.900 C 293.465 61.844,266.330 61.797,200.000 61.797 C 133.670 61.797,106.535 61.844,139.700 61.900 M61.797 200.000 C 61.797 266.330,61.844 293.465,61.900 260.300 C 61.956 227.135,61.956 172.865,61.900 139.700 C 61.844 106.535,61.797 133.670,61.797 200.000 M358.197 200.000 C 358.197 266.110,358.244 293.155,358.300 260.100 C 358.356 227.045,358.356 172.955,358.300 139.900 C 358.244 106.845,358.197 133.890,358.197 200.000 M135.200 121.145 C 135.200 121.334,135.650 121.403,136.200 121.298 C 136.750 121.193,137.200 121.038,137.200 120.953 C 137.200 120.869,136.750 120.800,136.200 120.800 C 135.650 120.800,135.200 120.955,135.200 121.145 M143.725 121.099 C 147.204 121.166,152.784 121.166,156.125 121.099 C 159.466 121.032,156.620 120.978,149.800 120.978 C 142.980 120.978,140.246 121.033,143.725 121.099 M244.125 121.099 C 247.604 121.166,253.184 121.166,256.525 121.099 C 259.866 121.032,257.020 120.978,250.200 120.978 C 243.380 120.978,240.646 121.033,244.125 121.099 M264.149 121.083 C 264.305 121.238,254.750 131.093,242.916 142.983 L 221.400 164.600 243.100 143.001 C 264.098 122.102,265.343 120.800,264.333 120.800 C 264.077 120.800,263.994 120.927,264.149 121.083 M136.000 122.125 C 136.000 122.194,136.585 122.779,137.300 123.425 L 138.600 124.600 137.425 123.300 C 136.330 122.088,136.000 121.816,136.000 122.125 M120.849 135.300 C 120.950 135.355,130.835 145.120,142.816 157.000 L 164.600 178.600 143.001 156.900 C 131.122 144.965,121.237 135.200,121.035 135.200 C 120.832 135.200,120.749 135.245,120.849 135.300 M278.702 143.900 C 278.894 160.295,279.028 161.791,279.114 148.500 C 279.161 141.185,279.065 135.200,278.900 135.200 C 278.735 135.199,278.646 139.114,278.702 143.900 M120.976 148.800 C 120.976 155.070,121.032 157.635,121.099 154.500 C 121.167 151.365,121.167 146.235,121.099 143.100 C 121.032 139.965,120.976 142.530,120.976 148.800 M142.599 243.202 L 121.400 264.404 121.191 252.102 L 120.983 239.800 120.891 252.300 C 120.841 259.175,120.936 264.800,121.101 264.800 C 121.267 264.800,131.032 255.170,142.800 243.400 C 154.568 231.630,164.107 222.000,163.997 222.000 C 163.887 222.000,154.258 231.541,142.599 243.202 M239.200 225.400 C 239.946 226.170,240.647 226.800,240.757 226.800 C 240.867 226.800,240.346 226.170,239.600 225.400 C 238.854 224.630,238.153 224.000,238.043 224.000 C 237.933 224.000,238.454 224.630,239.200 225.400 M242.400 228.600 C 243.146 229.370,243.847 230.000,243.957 230.000 C 244.067 230.000,243.546 229.370,242.800 228.600 C 242.054 227.830,241.353 227.200,241.243 227.200 C 241.133 227.200,241.654 227.830,242.400 228.600 M245.600 231.800 C 246.346 232.570,247.047 233.200,247.157 233.200 C 247.267 233.200,246.746 232.570,246.000 231.800 C 245.254 231.030,244.553 230.400,244.443 230.400 C 244.333 230.400,244.854 231.030,245.600 231.800 M248.800 235.000 C 249.546 235.770,250.247 236.400,250.357 236.400 C 250.467 236.400,249.946 235.770,249.200 235.000 C 248.454 234.230,247.753 233.600,247.643 233.600 C 247.533 233.600,248.054 234.230,248.800 235.000 M242.993 257.094 L 264.586 278.789 251.393 278.900 L 238.200 279.011 251.500 279.106 C 258.815 279.158,264.800 279.064,264.800 278.899 C 264.800 278.733,255.035 268.878,243.100 256.999 L 221.400 235.400 242.993 257.094 M252.000 238.200 C 252.746 238.970,253.447 239.600,253.557 239.600 C 253.667 239.600,253.146 238.970,252.400 238.200 C 251.654 237.430,250.953 236.800,250.843 236.800 C 250.733 236.800,251.254 237.430,252.000 238.200 M278.894 251.375 L 278.800 264.550 277.500 263.384 L 276.200 262.218 277.487 263.589 C 279.282 265.499,279.223 265.942,279.100 251.361 L 278.989 238.200 278.894 251.375 M255.200 241.400 C 255.946 242.170,256.647 242.800,256.757 242.800 C 256.867 242.800,256.346 242.170,255.600 241.400 C 254.854 240.630,254.153 240.000,254.043 240.000 C 253.933 240.000,254.454 240.630,255.200 241.400 M258.400 244.600 C 259.146 245.370,259.847 246.000,259.957 246.000 C 260.067 246.000,259.546 245.370,258.800 244.600 C 258.054 243.830,257.353 243.200,257.243 243.200 C 257.133 243.200,257.654 243.830,258.400 244.600 M261.600 247.800 C 262.346 248.570,263.047 249.200,263.157 249.200 C 263.267 249.200,262.746 248.570,262.000 247.800 C 261.254 247.030,260.553 246.400,260.443 246.400 C 260.333 246.400,260.854 247.030,261.600 247.800 M264.800 251.000 C 265.546 251.770,266.247 252.400,266.357 252.400 C 266.467 252.400,265.946 251.770,265.200 251.000 C 264.454 250.230,263.753 249.600,263.643 249.600 C 263.533 249.600,264.054 250.230,264.800 251.000 M268.000 254.200 C 268.746 254.970,269.447 255.600,269.557 255.600 C 269.667 255.600,269.146 254.970,268.400 254.200 C 267.654 253.430,266.953 252.800,266.843 252.800 C 266.733 252.800,267.254 253.430,268.000 254.200 M271.200 257.400 C 271.946 258.170,272.647 258.800,272.757 258.800 C 272.867 258.800,272.346 258.170,271.600 257.400 C 270.854 256.630,270.153 256.000,270.043 256.000 C 269.933 256.000,270.454 256.630,271.200 257.400 M274.400 260.600 C 275.146 261.370,275.847 262.000,275.957 262.000 C 276.067 262.000,275.546 261.370,274.800 260.600 C 274.054 259.830,273.353 259.200,273.243 259.200 C 273.133 259.200,273.654 259.830,274.400 260.600 M135.200 278.900 C 135.200 279.065,141.185 279.161,148.500 279.114 C 161.791 279.028,160.295 278.894,143.900 278.702 C 139.114 278.646,135.199 278.735,135.200 278.900 M139.900 358.300 C 172.955 358.356,227.045 358.356,260.100 358.300 C 293.155 358.244,266.110 358.197,200.000 358.197 C 133.890 358.197,106.845 358.244,139.900 358.300 " stroke="none" fill="#969696" fill-rule="evenodd" /><path id="path3" d="M273.793 140.100 L 269.400 144.600 273.900 140.207 C 278.080 136.126,278.582 135.600,278.293 135.600 C 278.234 135.600,276.209 137.625,273.793 140.100 M163.800 150.000 C 171.278 157.480,177.486 163.600,177.596 163.600 C 177.706 163.600,171.678 157.480,164.200 150.000 C 156.722 142.520,150.514 136.400,150.404 136.400 C 150.294 136.400,156.322 142.520,163.800 150.000 M156.599 257.300 L 135.800 278.200 156.700 257.401 C 176.127 238.069,177.780 236.400,177.499 236.400 C 177.443 236.400,168.038 245.805,156.599 257.300 " stroke="none" fill="#7c7c7c" fill-rule="evenodd" /><path id="path4" d="M265.381 148.500 L 263.800 150.200 265.500 148.619 C 267.081 147.148,267.384 146.800,267.081 146.800 C 267.016 146.800,266.251 147.565,265.381 148.500 M249.798 164.100 L 236.200 177.800 249.900 164.202 C 257.435 156.723,263.600 150.558,263.600 150.502 C 263.600 150.220,262.435 151.367,249.798 164.100 M180.101 170.200 C 180.105 171.080,180.187 171.393,180.283 170.895 C 180.379 170.398,180.375 169.678,180.275 169.295 C 180.175 168.913,180.096 169.320,180.101 170.200 M169.700 180.276 C 170.085 180.376,170.715 180.376,171.100 180.276 C 171.485 180.175,171.170 180.093,170.400 180.093 C 169.630 180.093,169.315 180.175,169.700 180.276 M228.900 180.276 C 229.285 180.376,229.915 180.376,230.300 180.276 C 230.685 180.175,230.370 180.093,229.600 180.093 C 228.830 180.093,228.515 180.175,228.900 180.276 M180.093 229.600 C 180.093 230.370,180.175 230.685,180.276 230.300 C 180.376 229.915,180.376 229.285,180.276 228.900 C 180.175 228.515,180.093 228.830,180.093 229.600 " stroke="none" fill="#747474" fill-rule="evenodd" />

  <path id="path0" d="M103.200 0.293 C 101.990 0.377,100.829 0.616,100.620 0.823 C 100.411 1.030,99.207 1.200,97.944 1.200 C 96.681 1.200,95.536 1.380,95.400 1.600 C 95.264 1.820,94.443 2.000,93.576 2.000 C 92.709 2.000,92.000 2.180,92.000 2.400 C 92.000 2.620,91.381 2.800,90.624 2.800 C 89.867 2.800,89.136 2.980,89.000 3.200 C 88.864 3.420,88.234 3.600,87.600 3.600 C 86.966 3.600,86.336 3.780,86.200 4.000 C 86.064 4.220,85.333 4.400,84.576 4.400 C 83.819 4.400,83.200 4.580,83.200 4.800 C 83.200 5.020,82.660 5.200,82.000 5.200 C 81.340 5.200,80.800 5.380,80.800 5.600 C 80.800 5.820,80.249 6.000,79.576 6.000 C 78.863 6.000,78.456 6.167,78.600 6.400 C 78.740 6.626,78.412 6.800,77.847 6.800 C 77.297 6.800,76.736 6.980,76.600 7.200 C 76.464 7.420,76.003 7.600,75.576 7.600 C 75.149 7.600,74.800 7.780,74.800 8.000 C 74.800 8.220,74.290 8.400,73.667 8.400 C 73.043 8.400,72.398 8.535,72.233 8.700 C 72.068 8.865,71.813 9.006,71.667 9.014 C 71.520 9.022,70.995 9.253,70.500 9.528 C 70.005 9.803,69.597 9.887,69.594 9.714 C 69.591 9.541,69.456 9.584,69.294 9.808 C 69.132 10.033,67.740 10.817,66.200 11.550 C 64.660 12.284,62.950 13.147,62.400 13.467 C 61.850 13.787,61.085 14.149,60.700 14.271 C 60.315 14.393,60.000 14.652,60.000 14.847 C 60.000 15.041,59.680 15.200,59.288 15.200 C 58.897 15.200,58.317 15.560,58.000 16.000 C 57.683 16.440,57.186 16.800,56.895 16.800 C 56.604 16.800,55.980 17.160,55.508 17.600 C 55.036 18.040,54.413 18.400,54.125 18.400 C 53.836 18.400,53.600 18.580,53.600 18.800 C 53.600 19.020,53.328 19.200,52.996 19.200 C 52.664 19.200,51.828 19.740,51.137 20.400 C 50.446 21.060,49.720 21.600,49.522 21.600 C 49.325 21.600,48.714 22.050,48.164 22.600 C 47.614 23.150,47.035 23.600,46.878 23.600 C 46.720 23.600,46.144 24.005,45.596 24.500 C 45.048 24.995,43.880 25.937,43.000 26.593 C 42.120 27.250,40.671 28.510,39.781 29.393 C 38.890 30.277,37.572 31.450,36.852 32.000 C 35.209 33.256,33.289 35.169,32.026 36.808 C 31.490 37.504,30.255 38.911,29.280 39.936 C 28.305 40.961,27.034 42.430,26.454 43.200 C 25.874 43.969,25.085 44.948,24.700 45.375 C 24.315 45.802,24.000 46.315,24.000 46.515 C 24.000 46.715,23.460 47.383,22.800 48.000 C 22.140 48.617,21.600 49.292,21.600 49.501 C 21.600 49.710,21.060 50.446,20.400 51.137 C 19.740 51.828,19.200 52.664,19.200 52.996 C 19.200 53.328,19.020 53.600,18.800 53.600 C 18.580 53.600,18.400 53.878,18.400 54.217 C 18.400 54.556,18.040 55.220,17.600 55.692 C 17.160 56.164,16.800 56.787,16.800 57.075 C 16.800 57.364,16.620 57.600,16.400 57.600 C 16.180 57.600,16.000 57.971,16.000 58.424 C 16.000 58.877,15.820 59.136,15.600 59.000 C 15.380 58.864,15.200 59.033,15.200 59.376 C 15.200 59.719,15.064 60.000,14.898 60.000 C 14.731 60.000,14.346 60.585,14.041 61.300 C 13.736 62.015,12.802 64.028,11.965 65.773 C 11.128 67.518,10.535 69.095,10.647 69.276 C 10.759 69.457,10.581 69.709,10.251 69.836 C 9.921 69.963,9.751 70.329,9.874 70.649 C 10.012 71.008,9.887 71.188,9.549 71.116 C 9.247 71.052,9.051 71.244,9.114 71.542 C 9.177 71.840,9.021 72.333,8.769 72.637 C 8.414 73.065,8.455 73.246,8.953 73.437 C 9.306 73.573,9.524 73.800,9.436 73.942 C 9.348 74.084,19.239 74.158,31.416 74.107 C 50.992 74.024,53.628 74.085,54.178 74.635 C 54.741 75.198,54.800 75.178,54.800 74.429 C 54.800 73.934,55.059 73.600,55.443 73.600 C 55.866 73.600,56.002 73.383,55.841 72.963 C 55.678 72.538,55.864 72.256,56.398 72.116 C 56.839 72.001,57.200 71.647,57.200 71.330 C 57.200 71.012,57.342 70.840,57.515 70.948 C 57.688 71.055,58.046 70.660,58.309 70.071 C 58.572 69.482,59.329 68.640,59.992 68.200 C 60.655 67.760,61.198 67.175,61.199 66.900 C 61.199 66.625,61.380 66.400,61.600 66.400 C 61.820 66.400,62.000 66.119,62.000 65.776 C 62.000 65.433,62.153 65.247,62.340 65.363 C 62.527 65.478,62.906 65.149,63.184 64.630 C 63.461 64.112,64.112 63.461,64.630 63.184 C 65.149 62.906,65.478 62.527,65.363 62.340 C 65.247 62.153,65.433 62.000,65.776 62.000 C 66.119 62.000,66.400 61.820,66.400 61.600 C 66.400 61.380,66.573 61.200,66.785 61.200 C 66.996 61.200,67.882 60.480,68.753 59.600 C 69.624 58.720,70.531 58.000,70.769 58.000 C 71.006 58.000,71.200 57.790,71.200 57.533 C 71.200 57.277,71.295 57.162,71.411 57.277 C 71.527 57.393,72.275 56.890,73.073 56.159 C 73.871 55.428,74.643 54.903,74.789 54.993 C 74.935 55.083,75.307 54.807,75.615 54.379 C 75.924 53.950,76.497 53.600,76.888 53.600 C 77.280 53.600,77.603 53.465,77.606 53.300 C 77.610 53.135,78.510 52.560,79.606 52.021 C 80.703 51.483,81.600 50.898,81.600 50.721 C 81.600 50.545,81.960 50.400,82.400 50.400 C 82.840 50.400,83.200 50.220,83.200 50.000 C 83.200 49.780,83.560 49.600,84.000 49.600 C 84.440 49.600,84.800 49.420,84.800 49.200 C 84.800 48.980,85.160 48.800,85.600 48.800 C 86.040 48.800,86.400 48.620,86.400 48.400 C 86.400 48.180,86.760 48.000,87.200 48.000 C 87.640 48.000,88.000 47.840,88.000 47.644 C 88.000 47.448,88.810 47.049,89.800 46.757 C 90.790 46.465,91.600 46.085,91.600 45.913 C 91.600 45.741,92.140 45.600,92.800 45.600 C 93.460 45.600,94.000 45.420,94.000 45.200 C 94.000 44.980,94.439 44.800,94.976 44.800 C 95.513 44.800,96.064 44.620,96.200 44.400 C 96.336 44.180,97.067 44.000,97.824 44.000 C 98.581 44.000,99.200 43.820,99.200 43.600 C 99.200 43.380,99.931 43.200,100.824 43.200 C 101.804 43.200,102.349 43.042,102.200 42.800 C 102.047 42.552,102.788 42.400,104.153 42.400 C 105.363 42.400,106.448 42.246,106.564 42.058 C 107.384 40.732,292.616 40.732,293.436 42.058 C 293.552 42.246,294.637 42.400,295.847 42.400 C 297.212 42.400,297.953 42.552,297.800 42.800 C 297.651 43.042,298.196 43.200,299.176 43.200 C 300.069 43.200,300.800 43.380,300.800 43.600 C 300.800 43.820,301.419 44.000,302.176 44.000 C 302.933 44.000,303.664 44.180,303.800 44.400 C 303.936 44.620,304.487 44.800,305.024 44.800 C 305.561 44.800,306.000 44.980,306.000 45.200 C 306.000 45.420,306.540 45.600,307.200 45.600 C 307.860 45.600,308.400 45.741,308.400 45.913 C 308.400 46.085,309.210 46.465,310.200 46.757 C 311.190 47.049,312.000 47.448,312.000 47.644 C 312.000 47.840,312.360 48.000,312.800 48.000 C 313.240 48.000,313.600 48.180,313.600 48.400 C 313.600 48.620,313.960 48.800,314.400 48.800 C 314.840 48.800,315.200 48.980,315.200 49.200 C 315.200 49.420,315.560 49.600,316.000 49.600 C 316.440 49.600,316.800 49.780,316.800 50.000 C 316.800 50.220,317.160 50.400,317.600 50.400 C 318.040 50.400,318.400 50.545,318.400 50.721 C 318.400 50.898,319.297 51.483,320.394 52.021 C 321.490 52.560,322.390 53.135,322.394 53.300 C 322.397 53.465,322.720 53.600,323.112 53.600 C 323.503 53.600,324.076 53.950,324.385 54.379 C 324.693 54.807,325.065 55.083,325.211 54.993 C 325.357 54.903,326.129 55.428,326.927 56.159 C 327.725 56.890,328.473 57.393,328.589 57.277 C 328.705 57.162,328.800 57.277,328.800 57.533 C 328.800 57.790,328.994 58.000,329.231 58.000 C 329.469 58.000,330.376 58.720,331.247 59.600 C 332.118 60.480,333.004 61.200,333.215 61.200 C 333.427 61.200,333.600 61.380,333.600 61.600 C 333.600 61.820,333.881 62.000,334.224 62.000 C 334.567 62.000,334.753 62.153,334.637 62.340 C 334.522 62.527,334.851 62.906,335.370 63.184 C 335.888 63.461,336.539 64.112,336.816 64.630 C 337.094 65.149,337.473 65.478,337.660 65.363 C 337.847 65.247,338.000 65.433,338.000 65.776 C 338.000 66.119,338.180 66.400,338.400 66.400 C 338.620 66.400,338.801 66.625,338.801 66.900 C 338.802 67.175,339.341 67.760,339.999 68.200 C 340.657 68.640,341.462 69.540,341.788 70.200 C 342.115 70.860,342.399 71.220,342.419 71.000 C 342.439 70.780,342.597 70.960,342.768 71.400 C 342.940 71.840,343.332 72.204,343.640 72.209 C 343.948 72.214,344.147 72.529,344.082 72.909 C 344.013 73.316,344.219 73.600,344.582 73.600 C 344.940 73.600,345.200 73.948,345.200 74.429 C 345.200 75.178,345.259 75.198,345.822 74.635 C 346.372 74.085,349.008 74.024,368.584 74.107 C 380.761 74.158,390.652 74.084,390.564 73.942 C 390.476 73.800,390.694 73.573,391.047 73.437 C 391.545 73.246,391.586 73.065,391.231 72.637 C 390.979 72.333,390.823 71.840,390.886 71.542 C 390.949 71.244,390.753 71.052,390.451 71.116 C 390.113 71.188,389.988 71.008,390.126 70.649 C 390.249 70.329,390.079 69.963,389.749 69.836 C 389.419 69.709,389.241 69.457,389.353 69.276 C 389.465 69.095,388.872 67.518,388.035 65.773 C 387.198 64.028,386.264 62.015,385.959 61.300 C 385.654 60.585,385.269 60.000,385.102 60.000 C 384.936 60.000,384.800 59.719,384.800 59.376 C 384.800 59.033,384.620 58.864,384.400 59.000 C 384.180 59.136,384.000 58.877,384.000 58.424 C 384.000 57.971,383.820 57.600,383.600 57.600 C 383.380 57.600,383.200 57.364,383.200 57.075 C 383.200 56.787,382.840 56.164,382.400 55.692 C 381.960 55.220,381.600 54.556,381.600 54.217 C 381.600 53.878,381.420 53.600,381.200 53.600 C 380.980 53.600,380.800 53.328,380.800 52.996 C 380.800 52.664,380.260 51.828,379.600 51.137 C 378.940 50.446,378.400 49.710,378.400 49.501 C 378.400 49.292,377.860 48.617,377.200 48.000 C 376.540 47.383,376.000 46.715,376.000 46.515 C 376.000 46.315,375.685 45.802,375.300 45.375 C 374.915 44.948,374.126 43.969,373.546 43.200 C 372.966 42.430,371.695 40.961,370.720 39.936 C 369.745 38.911,368.510 37.504,367.974 36.808 C 366.711 35.169,364.791 33.256,363.148 32.000 C 362.428 31.450,361.110 30.277,360.219 29.393 C 359.329 28.510,357.880 27.250,357.000 26.593 C 356.120 25.937,354.952 24.995,354.404 24.500 C 353.856 24.005,353.280 23.600,353.122 23.600 C 352.965 23.600,352.386 23.150,351.836 22.600 C 351.286 22.050,350.675 21.600,350.478 21.600 C 350.280 21.600,349.554 21.060,348.863 20.400 C 348.172 19.740,347.336 19.200,347.004 19.200 C 346.672 19.200,346.400 19.020,346.400 18.800 C 346.400 18.580,346.164 18.400,345.875 18.400 C 345.587 18.400,344.964 18.040,344.492 17.600 C 344.020 17.160,343.396 16.800,343.105 16.800 C 342.814 16.800,342.317 16.440,342.000 16.000 C 341.683 15.560,341.103 15.200,340.712 15.200 C 340.320 15.200,340.000 15.041,340.000 14.847 C 340.000 14.652,339.685 14.393,339.300 14.271 C 338.915 14.149,338.150 13.787,337.600 13.467 C 337.050 13.147,335.340 12.284,333.800 11.550 C 332.260 10.817,330.868 10.033,330.706 9.808 C 330.544 9.584,330.409 9.541,330.406 9.714 C 330.403 9.887,329.995 9.803,329.500 9.528 C 329.005 9.253,328.480 9.022,328.333 9.014 C 328.187 9.006,327.932 8.865,327.767 8.700 C 327.602 8.535,326.957 8.400,326.333 8.400 C 325.710 8.400,325.200 8.220,325.200 8.000 C 325.200 7.780,324.851 7.600,324.424 7.600 C 323.997 7.600,323.536 7.420,323.400 7.200 C 323.264 6.980,322.703 6.800,322.153 6.800 C 321.588 6.800,321.260 6.626,321.400 6.400 C 321.544 6.167,321.137 6.000,320.424 6.000 C 319.751 6.000,319.200 5.820,319.200 5.600 C 319.200 5.380,318.660 5.200,318.000 5.200 C 317.340 5.200,316.800 5.020,316.800 4.800 C 316.800 4.580,316.181 4.400,315.424 4.400 C 314.667 4.400,313.936 4.220,313.800 4.000 C 313.664 3.780,313.034 3.600,312.400 3.600 C 311.766 3.600,311.136 3.420,311.000 3.200 C 310.864 2.980,310.133 2.800,309.376 2.800 C 308.619 2.800,308.000 2.620,308.000 2.400 C 308.000 2.180,307.291 2.000,306.424 2.000 C 305.557 2.000,304.736 1.820,304.600 1.600 C 304.464 1.380,303.319 1.200,302.056 1.200 C 300.753 1.200,299.544 0.984,299.260 0.700 C 298.788 0.228,109.763 -0.165,103.200 0.293 M303.600 71.956 C 304.257 72.429,303.885 72.514,301.400 72.461 C 299.162 72.413,298.287 72.744,298.937 73.394 C 299.379 73.836,300.629 73.946,304.516 73.882 C 307.271 73.837,309.441 73.936,309.338 74.101 C 309.130 74.437,310.652 74.282,311.002 73.931 C 311.394 73.540,309.147 72.321,308.396 72.517 C 307.665 72.708,305.268 72.341,303.800 71.812 C 303.158 71.581,303.119 71.610,303.600 71.956 M296.257 73.400 C 295.529 74.128,295.039 74.189,295.453 73.500 C 295.641 73.187,295.463 73.220,294.977 73.587 C 294.550 73.910,294.110 74.240,294.000 74.322 C 293.890 74.403,294.841 74.388,296.113 74.288 C 297.386 74.188,298.541 73.992,298.680 73.853 C 298.942 73.591,298.206 73.450,297.260 73.579 C 296.963 73.620,296.838 73.461,296.983 73.227 C 297.367 72.606,296.953 72.705,296.257 73.400 M53.160 75.300 C 52.927 75.889,53.002 77.600,53.262 77.600 C 53.448 77.600,53.600 77.060,53.600 76.400 C 53.600 75.430,53.353 74.813,53.160 75.300 M346.400 76.333 C 346.400 77.030,346.552 77.600,346.738 77.600 C 347.140 77.600,347.097 75.764,346.686 75.353 C 346.529 75.195,346.400 75.637,346.400 76.333 M317.067 75.891 C 316.906 76.151,317.129 76.451,317.594 76.598 C 318.037 76.739,318.400 77.022,318.400 77.227 C 318.400 77.432,318.574 77.600,318.787 77.600 C 319.001 77.600,319.071 77.330,318.945 77.000 C 318.818 76.670,318.479 76.400,318.191 76.400 C 317.902 76.400,317.595 76.184,317.507 75.920 C 317.390 75.570,317.271 75.562,317.067 75.891 " stroke="none" fill="#7e24b7" fill-rule="evenodd" /><path id="path1" d="M40.990 249.400 C 40.990 266.340,41.040 273.212,41.100 264.670 C 41.160 256.129,41.160 242.269,41.100 233.870 C 41.040 225.472,40.990 232.460,40.990 249.400 M358.990 249.400 C 358.990 266.340,359.040 273.212,359.100 264.670 C 359.160 256.129,359.160 242.269,359.100 233.870 C 359.040 225.472,358.990 232.460,358.990 249.400 M60.812 332.671 C 60.796 333.281,61.919 334.404,62.529 334.388 C 62.788 334.381,62.691 334.195,62.313 333.975 C 61.935 333.755,61.445 333.265,61.225 332.887 C 61.005 332.509,60.819 332.412,60.812 332.671 M338.114 333.442 C 337.627 333.969,337.389 334.400,337.586 334.400 C 338.056 334.400,339.200 333.245,339.200 332.771 C 339.200 332.288,339.158 332.313,338.114 333.442 M65.699 338.100 C 66.027 338.595,66.595 339.059,66.962 339.132 C 67.442 339.227,67.339 338.976,66.596 338.232 C 65.324 336.960,64.902 336.898,65.699 338.100 M333.281 338.275 C 332.554 339.058,332.502 339.238,333.033 339.133 C 333.402 339.060,333.973 338.595,334.301 338.100 C 335.089 336.912,334.443 337.023,333.281 338.275 M14.893 340.400 C 15.398 341.208,16.000 341.469,16.000 340.880 C 16.000 340.464,15.133 339.600,14.717 339.600 C 14.539 339.600,14.618 339.960,14.893 340.400 M384.480 340.080 C 384.216 340.344,384.000 340.704,384.000 340.880 C 384.000 341.469,384.602 341.208,385.107 340.400 C 385.654 339.524,385.245 339.315,384.480 340.080 M68.572 341.352 L 68.200 342.200 42.918 342.291 C 27.566 342.347,17.546 342.236,17.405 342.009 C 17.278 341.803,16.915 341.735,16.597 341.856 C 16.098 342.048,16.100 342.158,16.614 342.671 C 16.940 342.997,17.105 343.430,16.980 343.632 C 16.855 343.835,16.943 344.000,17.176 344.000 C 17.409 344.000,17.600 344.230,17.600 344.511 C 17.600 344.792,17.960 345.330,18.400 345.707 C 18.840 346.084,19.200 346.677,19.200 347.025 C 19.200 347.773,20.196 348.870,20.552 348.514 C 20.689 348.378,20.805 348.612,20.811 349.033 C 20.817 349.455,21.357 350.325,22.011 350.967 C 22.665 351.608,23.200 352.373,23.200 352.667 C 23.200 352.960,23.380 353.200,23.600 353.200 C 23.820 353.200,24.000 353.470,24.000 353.800 C 24.000 354.130,24.141 354.400,24.314 354.400 C 24.486 354.400,24.928 354.895,25.294 355.500 C 25.661 356.105,27.095 357.784,28.481 359.232 C 29.866 360.680,31.270 362.282,31.600 362.793 C 32.362 363.972,35.990 367.610,37.191 368.400 C 37.693 368.730,39.116 369.963,40.352 371.139 C 41.588 372.315,43.230 373.755,44.000 374.339 C 44.769 374.923,45.748 375.715,46.175 376.100 C 46.602 376.485,47.099 376.800,47.279 376.800 C 47.460 376.800,48.172 377.340,48.863 378.000 C 49.554 378.660,50.322 379.200,50.571 379.200 C 50.820 379.200,51.283 379.560,51.600 380.000 C 51.917 380.440,52.414 380.800,52.705 380.800 C 52.996 380.800,53.620 381.160,54.092 381.600 C 54.564 382.040,55.187 382.400,55.475 382.400 C 55.764 382.400,56.000 382.580,56.000 382.800 C 56.000 383.020,56.294 383.200,56.653 383.200 C 57.012 383.200,57.597 383.516,57.953 383.903 C 58.309 384.289,59.140 384.874,59.800 385.202 C 60.460 385.530,61.090 385.889,61.200 385.999 C 61.676 386.477,63.239 387.200,63.795 387.200 C 64.128 387.200,64.400 387.380,64.400 387.600 C 64.400 387.820,64.634 388.000,64.920 388.000 C 65.656 388.000,67.593 388.941,67.597 389.300 C 67.599 389.465,67.836 389.600,68.125 389.600 C 68.414 389.600,69.583 390.050,70.723 390.600 C 71.863 391.150,73.247 391.600,73.798 391.600 C 74.349 391.600,74.800 391.780,74.800 392.000 C 74.800 392.220,75.160 392.400,75.600 392.400 C 76.040 392.400,76.400 392.580,76.400 392.800 C 76.400 393.020,76.940 393.200,77.600 393.200 C 78.260 393.200,78.800 393.380,78.800 393.600 C 78.800 393.820,79.250 394.000,79.800 394.000 C 80.350 394.000,80.800 394.180,80.800 394.400 C 80.800 394.620,81.340 394.800,82.000 394.800 C 82.660 394.800,83.200 394.980,83.200 395.200 C 83.200 395.420,83.729 395.600,84.376 395.600 C 85.023 395.600,85.664 395.780,85.800 396.000 C 85.936 396.220,86.667 396.400,87.424 396.400 C 88.181 396.400,88.800 396.580,88.800 396.800 C 88.800 397.020,89.520 397.200,90.400 397.200 C 91.280 397.200,92.000 397.380,92.000 397.600 C 92.000 397.820,92.720 398.000,93.600 398.000 C 94.480 398.000,95.200 398.180,95.200 398.400 C 95.200 398.625,96.322 398.800,97.767 398.800 C 99.464 398.800,100.390 398.969,100.500 399.300 C 100.745 400.036,299.255 400.036,299.500 399.300 C 299.610 398.969,300.536 398.800,302.233 398.800 C 303.678 398.800,304.800 398.625,304.800 398.400 C 304.800 398.180,305.520 398.000,306.400 398.000 C 307.280 398.000,308.000 397.820,308.000 397.600 C 308.000 397.380,308.720 397.200,309.600 397.200 C 310.480 397.200,311.200 397.020,311.200 396.800 C 311.200 396.580,311.819 396.400,312.576 396.400 C 313.333 396.400,314.064 396.220,314.200 396.000 C 314.336 395.780,314.977 395.600,315.624 395.600 C 316.271 395.600,316.800 395.420,316.800 395.200 C 316.800 394.980,317.340 394.800,318.000 394.800 C 318.660 394.800,319.200 394.620,319.200 394.400 C 319.200 394.180,319.650 394.000,320.200 394.000 C 320.750 394.000,321.200 393.820,321.200 393.600 C 321.200 393.380,321.740 393.200,322.400 393.200 C 323.060 393.200,323.600 393.020,323.600 392.800 C 323.600 392.580,323.960 392.400,324.400 392.400 C 324.840 392.400,325.200 392.220,325.200 392.000 C 325.200 391.780,325.651 391.600,326.202 391.600 C 326.753 391.600,328.137 391.150,329.277 390.600 C 330.417 390.050,331.586 389.600,331.875 389.600 C 332.164 389.600,332.401 389.465,332.403 389.300 C 332.407 388.941,334.344 388.000,335.080 388.000 C 335.366 388.000,335.600 387.820,335.600 387.600 C 335.600 387.380,335.872 387.200,336.205 387.200 C 336.761 387.200,338.324 386.477,338.800 385.999 C 338.910 385.889,339.540 385.530,340.200 385.202 C 340.860 384.874,341.691 384.289,342.047 383.903 C 342.403 383.516,342.988 383.200,343.347 383.200 C 343.706 383.200,344.000 383.020,344.000 382.800 C 344.000 382.580,344.236 382.400,344.525 382.400 C 344.813 382.400,345.436 382.040,345.908 381.600 C 346.380 381.160,347.004 380.800,347.295 380.800 C 347.586 380.800,348.083 380.440,348.400 380.000 C 348.717 379.560,349.180 379.200,349.429 379.200 C 349.678 379.200,350.446 378.660,351.137 378.000 C 351.828 377.340,352.540 376.800,352.721 376.800 C 352.901 376.800,353.398 376.485,353.825 376.100 C 354.252 375.715,355.231 374.923,356.000 374.339 C 356.770 373.755,358.412 372.315,359.648 371.139 C 360.884 369.963,362.307 368.730,362.809 368.400 C 364.010 367.610,367.638 363.972,368.400 362.793 C 368.730 362.282,370.134 360.680,371.519 359.232 C 372.905 357.784,374.339 356.105,374.706 355.500 C 375.072 354.895,375.514 354.400,375.686 354.400 C 375.859 354.400,376.000 354.130,376.000 353.800 C 376.000 353.470,376.180 353.200,376.400 353.200 C 376.620 353.200,376.800 352.960,376.800 352.667 C 376.800 352.373,377.335 351.608,377.989 350.967 C 378.643 350.325,379.183 349.455,379.189 349.033 C 379.195 348.612,379.311 348.378,379.448 348.514 C 379.804 348.870,380.800 347.773,380.800 347.025 C 380.800 346.677,381.160 346.084,381.600 345.707 C 382.040 345.330,382.400 344.792,382.400 344.511 C 382.400 344.230,382.591 344.000,382.824 344.000 C 383.057 344.000,383.145 343.835,383.020 343.632 C 382.895 343.430,383.060 342.997,383.386 342.671 C 383.900 342.158,383.902 342.048,383.403 341.856 C 383.085 341.735,382.722 341.803,382.595 342.009 C 382.032 342.919,331.864 342.280,331.403 341.357 C 331.053 340.654,330.899 340.604,330.476 341.057 C 330.064 341.498,330.079 341.600,330.561 341.600 C 331.413 341.600,331.707 342.273,330.977 342.554 C 330.623 342.689,330.463 342.622,330.603 342.395 C 330.737 342.178,330.556 342.000,330.200 342.000 C 329.789 342.000,329.662 342.182,329.853 342.500 C 330.057 342.840,329.937 342.824,329.477 342.451 C 329.036 342.093,328.800 342.058,328.800 342.351 C 328.800 342.598,328.530 342.800,328.200 342.800 C 327.870 342.800,327.600 343.048,327.600 343.351 C 327.600 344.124,326.405 345.108,326.387 344.349 C 326.379 343.982,326.180 344.057,325.787 344.576 C 325.464 345.004,325.200 345.216,325.200 345.048 C 325.200 344.880,324.936 344.981,324.614 345.271 C 323.249 346.502,322.872 346.739,322.643 346.509 C 322.509 346.376,322.400 346.477,322.400 346.733 C 322.400 346.990,322.139 347.200,321.820 347.200 C 321.501 347.200,321.080 347.486,320.884 347.836 C 320.688 348.186,320.364 348.484,320.164 348.499 C 319.239 348.570,318.400 348.925,318.400 349.247 C 318.400 349.441,318.055 349.600,317.633 349.600 C 317.212 349.600,316.807 349.735,316.733 349.900 C 316.538 350.340,313.222 352.000,312.539 352.000 C 312.216 352.000,312.064 352.180,312.200 352.400 C 312.336 352.620,312.074 352.800,311.618 352.800 C 311.162 352.800,310.477 352.959,310.095 353.153 C 309.713 353.348,308.860 353.729,308.200 354.000 C 307.540 354.271,306.687 354.652,306.305 354.847 C 305.923 355.041,305.158 355.200,304.605 355.200 C 304.052 355.200,303.600 355.380,303.600 355.600 C 303.600 355.820,302.880 356.000,302.000 356.000 C 301.120 356.000,300.400 356.180,300.400 356.400 C 300.400 356.620,299.781 356.800,299.024 356.800 C 298.267 356.800,297.536 356.980,297.400 357.200 C 297.264 357.420,296.353 357.600,295.376 357.600 C 294.399 357.600,293.600 357.780,293.600 358.000 C 293.600 358.229,292.400 358.400,290.800 358.400 C 289.260 358.400,288.000 358.535,288.000 358.700 C 288.000 358.865,248.400 359.000,200.000 359.000 C 151.600 359.000,112.000 358.865,112.000 358.700 C 112.000 358.535,110.740 358.400,109.200 358.400 C 107.600 358.400,106.400 358.229,106.400 358.000 C 106.400 357.780,105.601 357.600,104.624 357.600 C 103.647 357.600,102.736 357.420,102.600 357.200 C 102.464 356.980,101.733 356.800,100.976 356.800 C 100.219 356.800,99.600 356.620,99.600 356.400 C 99.600 356.180,98.880 356.000,98.000 356.000 C 97.120 356.000,96.400 355.820,96.400 355.600 C 96.400 355.380,95.948 355.200,95.395 355.200 C 94.842 355.200,94.077 355.041,93.695 354.847 C 93.313 354.652,92.460 354.271,91.800 354.000 C 91.140 353.729,90.287 353.348,89.905 353.153 C 89.523 352.959,88.838 352.800,88.382 352.800 C 87.926 352.800,87.664 352.620,87.800 352.400 C 87.936 352.180,87.784 352.000,87.461 352.000 C 86.778 352.000,83.462 350.340,83.267 349.900 C 83.193 349.735,82.788 349.600,82.367 349.600 C 81.945 349.600,81.600 349.441,81.600 349.247 C 81.600 348.939,80.465 348.469,79.727 348.471 C 79.587 348.471,79.312 348.186,79.116 347.836 C 78.920 347.486,78.499 347.200,78.180 347.200 C 77.861 347.200,77.600 346.990,77.600 346.733 C 77.600 346.477,77.489 346.378,77.352 346.514 C 77.216 346.650,76.862 346.545,76.566 346.281 C 75.223 345.081,74.800 344.789,74.800 345.061 C 74.800 345.221,74.536 345.004,74.213 344.576 C 73.851 344.098,73.621 344.001,73.613 344.324 C 73.606 344.612,73.417 344.734,73.193 344.596 C 72.970 344.458,72.891 344.177,73.017 343.972 C 73.144 343.768,72.956 343.600,72.600 343.600 C 72.244 343.600,72.064 343.420,72.200 343.200 C 72.336 342.980,72.167 342.800,71.824 342.800 C 71.481 342.800,71.200 342.598,71.200 342.351 C 71.200 342.058,70.964 342.093,70.523 342.451 C 70.063 342.824,69.943 342.840,70.147 342.500 C 70.338 342.182,70.211 342.000,69.800 342.000 C 69.444 342.000,69.263 342.178,69.397 342.395 C 69.537 342.622,69.377 342.689,69.021 342.553 C 68.205 342.240,68.238 342.036,69.157 341.687 C 69.741 341.466,69.803 341.298,69.430 340.952 C 69.065 340.614,68.853 340.713,68.572 341.352 M18.834 342.979 C 19.035 342.855,19.200 342.943,19.200 343.176 C 19.200 343.409,18.930 343.600,18.600 343.600 C 18.270 343.600,18.014 343.285,18.032 342.900 C 18.051 342.478,18.144 342.399,18.266 342.702 C 18.377 342.979,18.633 343.103,18.834 342.979 M382.000 343.000 C 382.000 343.330,381.730 343.600,381.400 343.600 C 381.070 343.600,380.800 343.409,380.800 343.176 C 380.800 342.943,380.980 342.864,381.200 343.000 C 381.420 343.136,381.600 343.057,381.600 342.824 C 381.600 342.591,381.690 342.400,381.800 342.400 C 381.910 342.400,382.000 342.670,382.000 343.000 " stroke="none" fill="#da8941" fill-rule="evenodd" /><path id="path2" d="M40.894 137.000 C 40.837 147.340,40.680 156.471,40.545 157.292 C 40.278 158.907,39.600 158.967,39.600 157.376 L 39.600 156.400 19.800 156.400 L 0.000 156.400 0.000 211.400 L 0.000 266.400 19.976 266.400 C 35.461 266.400,40.022 266.288,40.260 265.903 C 40.739 265.127,41.215 204.845,41.100 159.371 C 41.043 136.727,40.950 126.660,40.894 137.000 M359.097 189.600 C 359.199 228.650,359.399 261.860,359.541 263.400 L 359.800 266.200 379.900 266.304 L 400.000 266.407 400.000 211.404 L 400.000 156.400 380.200 156.400 L 360.400 156.400 360.400 157.376 C 360.400 158.195,359.786 159.135,359.520 158.724 C 359.476 158.656,359.321 149.600,359.176 138.600 C 359.030 127.600,358.995 150.550,359.097 189.600 M109.056 148.812 C 108.670 149.466,108.516 150.000,108.713 150.000 C 109.083 150.000,110.136 148.003,109.894 147.761 C 109.819 147.686,109.442 148.159,109.056 148.812 M290.006 147.681 C 289.993 148.268,290.944 150.000,291.278 150.000 C 291.610 150.000,291.323 149.332,290.420 148.000 C 290.196 147.670,290.009 147.527,290.006 147.681 M105.469 156.636 C 105.561 156.876,105.356 157.305,105.013 157.589 C 104.504 158.011,104.483 158.221,104.895 158.730 C 105.292 159.221,105.293 159.290,104.900 159.053 C 104.585 158.864,104.400 158.984,104.400 159.376 C 104.400 159.719,104.220 160.000,104.000 160.000 C 103.780 160.000,103.600 160.270,103.600 160.600 C 103.600 160.930,103.420 161.200,103.200 161.200 C 102.980 161.200,102.800 161.391,102.800 161.624 C 102.800 161.857,102.981 161.935,103.203 161.798 C 103.436 161.654,103.409 161.981,103.139 162.575 C 102.882 163.139,102.520 163.600,102.336 163.600 C 102.151 163.600,102.000 164.140,102.000 164.800 C 102.000 165.460,101.820 166.000,101.600 166.000 C 101.380 166.000,101.200 166.429,101.200 166.954 C 101.200 167.479,100.939 168.411,100.620 169.026 C 100.302 169.640,100.132 170.291,100.244 170.471 C 100.356 170.652,100.257 170.800,100.024 170.800 C 99.791 170.800,99.621 170.935,99.647 171.100 C 99.828 172.242,99.535 174.007,99.200 173.800 C 98.955 173.648,98.798 174.297,98.794 175.476 C 98.789 176.866,98.680 177.233,98.400 176.800 C 98.122 176.370,98.011 176.788,98.006 178.276 C 98.003 179.418,97.820 180.464,97.600 180.600 C 97.380 180.736,97.200 181.906,97.200 183.200 C 97.200 184.494,97.020 185.664,96.800 185.800 C 96.579 185.937,96.400 187.737,96.400 189.824 C 96.400 191.901,96.238 193.600,96.039 193.600 C 95.839 193.600,95.678 196.461,95.678 199.999 C 95.678 203.703,95.830 206.305,96.039 206.176 C 96.244 206.049,96.400 207.676,96.400 209.953 C 96.400 212.188,96.576 214.062,96.800 214.200 C 97.020 214.336,97.200 215.348,97.200 216.450 C 97.200 217.551,97.370 218.771,97.578 219.159 C 97.786 219.548,97.999 220.696,98.052 221.711 C 98.104 222.726,98.294 223.465,98.474 223.355 C 98.653 223.244,98.800 223.894,98.800 224.800 C 98.800 225.796,98.958 226.350,99.200 226.200 C 99.442 226.051,99.600 226.596,99.600 227.576 C 99.600 228.469,99.742 229.200,99.915 229.200 C 100.088 229.200,100.271 229.740,100.321 230.399 C 100.371 231.058,100.774 232.242,101.216 233.029 C 101.658 233.816,101.831 234.343,101.600 234.200 C 101.369 234.057,101.545 234.589,101.990 235.382 C 102.436 236.175,102.800 237.279,102.800 237.836 C 102.800 238.408,102.974 238.740,103.200 238.600 C 103.420 238.464,103.600 238.718,103.600 239.164 C 103.600 239.611,103.960 240.617,104.400 241.400 C 104.840 242.183,105.200 243.089,105.200 243.412 C 105.200 243.735,105.380 244.000,105.600 244.000 C 105.820 244.000,106.000 244.360,106.000 244.800 C 106.000 245.240,106.180 245.600,106.400 245.600 C 106.620 245.600,106.800 245.960,106.800 246.400 C 106.800 246.840,106.936 247.200,107.102 247.200 C 107.392 247.200,107.692 247.819,108.796 250.695 C 109.069 251.407,109.409 251.918,109.550 251.831 C 109.691 251.743,110.150 252.376,110.568 253.236 C 110.986 254.096,111.480 254.800,111.664 254.800 C 111.849 254.800,112.000 255.160,112.000 255.600 C 112.000 256.040,112.180 256.400,112.400 256.400 C 112.620 256.400,112.800 256.659,112.800 256.976 C 112.800 257.293,113.008 257.681,113.262 257.838 C 113.567 258.027,113.614 257.946,113.400 257.600 C 113.179 257.243,113.232 257.173,113.565 257.379 C 113.834 257.545,113.969 257.905,113.864 258.178 C 113.759 258.452,114.012 258.921,114.427 259.220 C 114.985 259.622,115.054 259.845,114.691 260.076 C 114.357 260.288,114.446 260.390,114.967 260.394 C 115.388 260.397,115.629 260.504,115.503 260.631 C 115.376 260.758,115.841 261.407,116.536 262.074 C 117.231 262.741,117.739 263.572,117.664 263.922 C 117.549 264.462,117.625 264.477,118.174 264.022 C 118.726 263.563,118.783 263.580,118.568 264.140 C 118.413 264.543,118.562 264.887,118.956 265.039 C 119.308 265.173,119.507 265.426,119.400 265.600 C 119.293 265.774,119.474 266.019,119.802 266.146 C 120.131 266.272,120.400 266.666,120.400 267.021 C 120.400 267.376,120.625 267.584,120.900 267.483 C 121.175 267.382,121.342 267.052,121.271 266.750 C 121.168 266.309,121.244 266.299,121.651 266.700 C 122.258 267.296,122.952 267.369,122.600 266.800 C 122.436 266.534,148.337 266.400,200.000 266.400 C 251.663 266.400,277.564 266.534,277.400 266.800 C 277.048 267.369,277.742 267.296,278.349 266.700 C 278.756 266.299,278.832 266.309,278.729 266.750 C 278.658 267.053,278.825 267.383,279.100 267.483 C 279.375 267.584,279.600 267.376,279.600 267.021 C 279.600 266.666,279.869 266.272,280.198 266.146 C 280.526 266.019,280.707 265.774,280.600 265.600 C 280.493 265.426,280.692 265.173,281.044 265.039 C 281.438 264.887,281.587 264.543,281.432 264.140 C 281.217 263.580,281.274 263.563,281.826 264.022 C 282.375 264.477,282.451 264.462,282.336 263.922 C 282.261 263.572,282.769 262.741,283.464 262.074 C 284.159 261.407,284.624 260.758,284.497 260.631 C 284.371 260.504,284.612 260.397,285.033 260.394 C 285.554 260.390,285.643 260.288,285.309 260.076 C 284.946 259.845,285.015 259.622,285.573 259.220 C 285.988 258.921,286.241 258.452,286.136 258.178 C 286.031 257.905,286.166 257.545,286.435 257.379 C 286.768 257.173,286.821 257.243,286.600 257.600 C 286.386 257.946,286.433 258.027,286.738 257.838 C 286.992 257.681,287.200 257.293,287.200 256.976 C 287.200 256.659,287.380 256.400,287.600 256.400 C 287.820 256.400,288.000 256.040,288.000 255.600 C 288.000 255.160,288.151 254.800,288.336 254.800 C 288.520 254.800,289.014 254.096,289.432 253.236 C 289.850 252.376,290.309 251.743,290.450 251.831 C 290.591 251.918,290.931 251.407,291.204 250.695 C 292.308 247.819,292.608 247.200,292.898 247.200 C 293.064 247.200,293.200 246.840,293.200 246.400 C 293.200 245.960,293.380 245.600,293.600 245.600 C 293.820 245.600,294.000 245.240,294.000 244.800 C 294.000 244.360,294.180 244.000,294.400 244.000 C 294.620 244.000,294.800 243.735,294.800 243.412 C 294.800 243.089,295.160 242.183,295.600 241.400 C 296.040 240.617,296.400 239.611,296.400 239.164 C 296.400 238.718,296.580 238.464,296.800 238.600 C 297.026 238.740,297.200 238.408,297.200 237.836 C 297.200 237.279,297.564 236.175,298.010 235.382 C 298.455 234.589,298.631 234.057,298.400 234.200 C 298.169 234.343,298.342 233.816,298.784 233.029 C 299.226 232.242,299.629 231.058,299.679 230.399 C 299.729 229.740,299.912 229.200,300.085 229.200 C 300.258 229.200,300.400 228.469,300.400 227.576 C 300.400 226.596,300.558 226.051,300.800 226.200 C 301.042 226.350,301.200 225.796,301.200 224.800 C 301.200 223.894,301.347 223.244,301.526 223.355 C 301.706 223.465,301.896 222.726,301.948 221.711 C 302.001 220.696,302.214 219.548,302.422 219.159 C 302.630 218.771,302.800 217.551,302.800 216.450 C 302.800 215.348,302.980 214.336,303.200 214.200 C 303.424 214.062,303.600 212.188,303.600 209.953 C 303.600 207.676,303.756 206.049,303.961 206.176 C 304.170 206.305,304.322 203.703,304.322 199.999 C 304.322 196.461,304.161 193.600,303.961 193.600 C 303.762 193.600,303.600 191.901,303.600 189.824 C 303.600 187.737,303.421 185.937,303.200 185.800 C 302.980 185.664,302.800 184.494,302.800 183.200 C 302.800 181.906,302.620 180.736,302.400 180.600 C 302.180 180.464,301.997 179.418,301.994 178.276 C 301.989 176.788,301.878 176.370,301.600 176.800 C 301.320 177.233,301.211 176.866,301.206 175.476 C 301.202 174.297,301.045 173.648,300.800 173.800 C 300.465 174.007,300.172 172.242,300.353 171.100 C 300.379 170.935,300.209 170.800,299.976 170.800 C 299.743 170.800,299.644 170.652,299.756 170.471 C 299.868 170.291,299.698 169.640,299.380 169.026 C 299.061 168.411,298.800 167.479,298.800 166.954 C 298.800 166.429,298.620 166.000,298.400 166.000 C 298.180 166.000,298.000 165.460,298.000 164.800 C 298.000 164.140,297.849 163.600,297.664 163.600 C 297.480 163.600,297.118 163.139,296.861 162.575 C 296.591 161.981,296.564 161.654,296.797 161.798 C 297.019 161.935,297.200 161.857,297.200 161.624 C 297.200 161.391,297.020 161.200,296.800 161.200 C 296.580 161.200,296.400 160.930,296.400 160.600 C 296.400 160.270,296.220 160.000,296.000 160.000 C 295.780 160.000,295.600 159.719,295.600 159.376 C 295.600 158.984,295.415 158.864,295.100 159.053 C 294.707 159.290,294.708 159.221,295.105 158.730 C 295.517 158.221,295.496 158.011,294.987 157.589 C 294.644 157.305,294.439 156.876,294.531 156.636 C 294.650 156.324,287.588 156.200,269.749 156.200 C 256.027 156.200,244.800 156.253,244.800 156.317 C 244.800 156.382,245.774 157.417,246.965 158.617 C 248.156 159.818,248.972 160.800,248.778 160.800 C 248.584 160.800,248.527 161.064,248.650 161.387 C 248.774 161.710,249.071 161.935,249.309 161.887 C 249.547 161.839,249.932 162.340,250.165 163.000 C 250.397 163.660,250.905 164.491,251.293 164.847 C 251.682 165.203,252.000 165.653,252.001 165.847 C 252.001 166.041,252.541 166.830,253.200 167.600 C 253.859 168.370,254.399 169.225,254.399 169.500 C 254.400 169.775,254.580 170.000,254.800 170.000 C 255.020 170.000,255.200 170.360,255.200 170.800 C 255.200 171.240,255.380 171.600,255.600 171.600 C 255.820 171.600,256.000 172.061,256.000 172.624 C 256.000 173.204,256.173 173.540,256.400 173.400 C 256.620 173.264,256.800 173.451,256.800 173.815 C 256.800 174.179,257.136 174.954,257.546 175.538 C 257.957 176.122,258.393 177.140,258.515 177.800 C 258.762 179.139,258.967 179.911,259.311 180.800 C 259.439 181.130,259.933 183.110,260.409 185.200 C 260.885 187.290,261.448 189.630,261.660 190.400 C 262.154 192.194,261.869 208.731,261.297 211.441 C 260.446 215.477,259.504 219.006,259.186 219.349 C 259.008 219.541,258.951 219.927,259.059 220.208 C 259.166 220.489,259.062 220.838,258.827 220.983 C 258.592 221.128,258.400 221.687,258.400 222.224 C 258.400 222.761,258.220 223.200,258.000 223.200 C 257.780 223.200,257.600 223.650,257.600 224.200 C 257.600 224.750,257.420 225.200,257.200 225.200 C 256.980 225.200,256.800 225.571,256.800 226.024 C 256.800 226.477,256.620 226.736,256.400 226.600 C 256.173 226.460,256.000 226.796,256.000 227.376 C 256.000 227.939,255.820 228.400,255.600 228.400 C 255.380 228.400,255.200 228.760,255.200 229.200 C 255.200 229.640,255.020 230.000,254.800 230.000 C 254.580 230.000,254.400 230.270,254.400 230.600 C 254.400 230.930,254.220 231.200,254.000 231.200 C 253.780 231.200,253.600 231.470,253.600 231.800 C 253.600 232.130,253.448 232.400,253.263 232.400 C 253.077 232.400,252.512 233.205,252.006 234.188 C 251.500 235.172,250.932 235.881,250.743 235.765 C 250.554 235.648,250.400 235.923,250.400 236.376 C 250.400 236.829,250.259 237.200,250.086 237.200 C 249.914 237.200,249.450 237.746,249.056 238.413 C 248.174 239.906,240.718 247.447,238.800 248.785 C 238.030 249.322,237.109 250.086,236.753 250.481 C 236.397 250.876,235.892 251.200,235.629 251.200 C 235.367 251.200,235.267 251.384,235.406 251.610 C 235.545 251.835,235.511 251.994,235.330 251.963 C 234.351 251.793,233.593 252.120,232.463 253.200 C 231.772 253.860,231.026 254.400,230.804 254.400 C 230.582 254.400,230.400 254.580,230.400 254.800 C 230.400 255.020,230.032 255.200,229.583 255.200 C 229.134 255.200,228.380 255.560,227.908 256.000 C 227.436 256.440,226.723 256.800,226.325 256.800 C 225.926 256.800,225.600 256.980,225.600 257.200 C 225.600 257.420,225.060 257.600,224.400 257.600 C 223.740 257.600,223.200 257.736,223.200 257.902 C 223.200 258.387,220.833 259.298,220.202 259.056 C 219.885 258.934,219.502 259.035,219.351 259.279 C 219.173 259.567,219.261 259.610,219.600 259.400 C 219.949 259.184,220.027 259.233,219.834 259.545 C 219.675 259.802,219.381 259.912,219.181 259.788 C 218.980 259.664,218.467 259.750,218.041 259.978 C 217.473 260.282,217.211 260.260,217.064 259.897 C 216.929 259.564,216.853 259.600,216.832 260.006 C 216.809 260.438,216.370 260.605,215.300 260.588 C 213.305 260.557,212.547 260.796,213.255 261.234 C 213.548 261.415,212.949 261.489,211.893 261.403 C 210.680 261.305,209.819 261.438,209.479 261.778 C 209.118 262.139,208.168 262.258,206.475 262.155 C 204.910 262.059,204.000 262.158,204.000 262.425 C 204.000 262.657,204.208 262.719,204.462 262.562 C 204.757 262.380,204.815 262.453,204.622 262.764 C 204.397 263.129,204.111 263.069,203.492 262.526 C 203.036 262.127,202.794 262.025,202.955 262.300 C 203.316 262.918,202.623 262.947,201.525 262.360 C 200.928 262.040,200.778 262.040,200.975 262.360 C 201.151 262.644,200.805 262.800,200.000 262.800 C 199.195 262.800,198.849 262.644,199.025 262.360 C 199.222 262.040,199.072 262.040,198.475 262.360 C 197.377 262.947,196.684 262.918,197.045 262.300 C 197.206 262.025,196.964 262.127,196.508 262.526 C 195.889 263.069,195.603 263.129,195.378 262.764 C 195.185 262.453,195.243 262.380,195.538 262.562 C 195.792 262.719,196.000 262.657,196.000 262.425 C 196.000 262.158,195.090 262.059,193.525 262.155 C 191.832 262.258,190.882 262.139,190.521 261.778 C 190.181 261.438,189.320 261.305,188.107 261.403 C 187.051 261.489,186.452 261.415,186.745 261.234 C 187.453 260.796,186.695 260.557,184.700 260.588 C 183.630 260.605,183.191 260.438,183.168 260.006 C 183.147 259.600,183.071 259.564,182.936 259.897 C 182.789 260.260,182.527 260.282,181.959 259.978 C 181.533 259.750,181.020 259.664,180.819 259.788 C 180.619 259.912,180.325 259.802,180.166 259.545 C 179.973 259.233,180.051 259.184,180.400 259.400 C 180.739 259.610,180.827 259.567,180.649 259.279 C 180.498 259.035,180.115 258.934,179.798 259.056 C 179.167 259.298,176.800 258.387,176.800 257.902 C 176.800 257.736,176.260 257.600,175.600 257.600 C 174.940 257.600,174.400 257.420,174.400 257.200 C 174.400 256.980,174.074 256.800,173.675 256.800 C 173.277 256.800,172.564 256.440,172.092 256.000 C 171.620 255.560,170.866 255.200,170.417 255.200 C 169.968 255.200,169.600 255.020,169.600 254.800 C 169.600 254.580,169.418 254.400,169.196 254.400 C 168.974 254.400,168.228 253.860,167.537 253.200 C 166.407 252.120,165.649 251.793,164.670 251.963 C 164.489 251.994,164.455 251.835,164.594 251.610 C 164.733 251.384,164.633 251.200,164.371 251.200 C 164.108 251.200,163.603 250.876,163.247 250.481 C 162.891 250.086,161.970 249.322,161.200 248.785 C 159.282 247.447,151.826 239.906,150.944 238.413 C 150.550 237.746,150.086 237.200,149.914 237.200 C 149.741 237.200,149.600 236.829,149.600 236.376 C 149.600 235.923,149.446 235.648,149.257 235.765 C 149.068 235.881,148.500 235.172,147.994 234.188 C 147.488 233.205,146.923 232.400,146.737 232.400 C 146.552 232.400,146.400 232.130,146.400 231.800 C 146.400 231.470,146.220 231.200,146.000 231.200 C 145.780 231.200,145.600 230.930,145.600 230.600 C 145.600 230.270,145.420 230.000,145.200 230.000 C 144.980 230.000,144.800 229.640,144.800 229.200 C 144.800 228.760,144.620 228.400,144.400 228.400 C 144.180 228.400,144.000 227.939,144.000 227.376 C 144.000 226.796,143.827 226.460,143.600 226.600 C 143.380 226.736,143.200 226.477,143.200 226.024 C 143.200 225.571,143.020 225.200,142.800 225.200 C 142.580 225.200,142.400 224.750,142.400 224.200 C 142.400 223.650,142.220 223.200,142.000 223.200 C 141.780 223.200,141.600 222.761,141.600 222.224 C 141.600 221.687,141.408 221.128,141.173 220.983 C 140.938 220.838,140.834 220.489,140.941 220.208 C 141.049 219.927,140.992 219.541,140.814 219.349 C 140.496 219.006,139.554 215.477,138.703 211.441 C 138.131 208.731,137.846 192.194,138.340 190.400 C 138.552 189.630,139.115 187.290,139.591 185.200 C 140.067 183.110,140.561 181.130,140.689 180.800 C 141.138 179.638,141.207 179.387,141.456 178.000 C 141.594 177.230,142.043 176.122,142.454 175.538 C 142.864 174.954,143.200 174.179,143.200 173.815 C 143.200 173.451,143.380 173.264,143.600 173.400 C 143.827 173.540,144.000 173.204,144.000 172.624 C 144.000 172.061,144.180 171.600,144.400 171.600 C 144.620 171.600,144.800 171.240,144.800 170.800 C 144.800 170.360,144.980 170.000,145.200 170.000 C 145.420 170.000,145.600 169.775,145.601 169.500 C 145.601 169.225,146.141 168.370,146.800 167.600 C 147.459 166.830,147.999 166.041,147.999 165.847 C 148.000 165.653,148.318 165.203,148.707 164.847 C 149.095 164.491,149.603 163.660,149.835 163.000 C 150.068 162.340,150.453 161.839,150.691 161.887 C 150.929 161.935,151.226 161.710,151.350 161.387 C 151.473 161.064,151.416 160.800,151.222 160.800 C 151.028 160.800,151.844 159.818,153.035 158.617 C 154.226 157.417,155.200 156.382,155.200 156.317 C 155.200 156.253,143.973 156.200,130.251 156.200 C 112.412 156.200,105.350 156.324,105.469 156.636 M106.984 157.149 C 106.846 157.287,106.568 157.423,106.367 157.450 C 105.475 157.572,105.434 157.634,106.000 158.000 C 106.513 158.331,106.498 158.389,105.900 158.394 C 105.074 158.401,105.043 158.241,105.671 157.234 C 105.931 156.819,106.388 156.574,106.689 156.689 C 106.989 156.805,107.122 157.012,106.984 157.149 M153.402 157.266 C 153.367 157.743,153.049 158.175,152.696 158.227 C 152.157 158.306,152.124 158.165,152.491 157.361 C 153.035 156.165,153.487 156.119,153.402 157.266 M247.509 157.361 C 247.876 158.165,247.843 158.306,247.304 158.227 C 246.951 158.175,246.633 157.743,246.598 157.266 C 246.513 156.119,246.965 156.165,247.509 157.361 M294.787 158.100 C 294.794 158.265,294.485 158.397,294.100 158.394 C 293.502 158.389,293.487 158.331,294.000 158.000 C 294.330 157.787,294.465 157.587,294.300 157.556 C 294.135 157.525,293.820 157.455,293.600 157.400 C 293.380 157.345,293.065 157.275,292.900 157.244 C 292.735 157.213,292.860 157.023,293.177 156.823 C 293.723 156.477,294.753 157.294,294.787 158.100 " stroke="none" fill="#c22e65" fill-rule="evenodd" /><path id="path3" d="M63.855 63.855 C 63.268 64.441,62.862 64.995,62.952 65.085 C 63.042 65.175,63.595 64.768,64.182 64.182 C 64.768 63.595,65.175 63.042,65.085 62.952 C 64.995 62.862,64.441 63.268,63.855 63.855 M334.800 62.933 C 334.800 63.246,336.853 65.281,337.010 65.124 C 337.078 65.055,336.924 64.729,336.667 64.399 C 336.065 63.627,334.800 62.633,334.800 62.933 M57.200 71.376 C 57.200 71.719,56.941 72.000,56.624 72.000 C 55.925 72.000,55.451 72.661,55.935 72.960 C 56.127 73.078,56.683 72.750,57.172 72.230 C 57.741 71.624,57.906 71.189,57.630 71.019 C 57.394 70.872,57.200 71.033,57.200 71.376 M342.281 71.068 C 342.140 71.297,342.450 71.883,342.970 72.372 C 343.576 72.941,344.011 73.106,344.181 72.830 C 344.449 72.398,344.387 72.342,343.540 72.250 C 343.287 72.223,342.959 71.852,342.809 71.427 C 342.654 70.983,342.429 70.830,342.281 71.068 M302.135 72.155 C 302.226 72.400,302.548 72.536,302.850 72.459 C 303.153 72.381,303.805 72.291,304.300 72.259 C 305.858 72.157,305.275 71.709,303.585 71.709 C 302.566 71.709,302.031 71.874,302.135 72.155 M296.562 72.861 C 296.447 73.048,296.498 73.227,296.676 73.261 C 296.854 73.294,297.180 73.364,297.400 73.415 C 297.620 73.466,298.055 73.528,298.367 73.554 C 299.690 73.662,298.246 74.119,296.113 74.268 C 294.579 74.375,293.990 74.302,294.364 74.052 C 294.674 73.844,295.169 73.767,295.464 73.880 C 295.759 73.993,296.000 73.925,296.000 73.728 C 296.000 73.122,294.483 73.218,293.952 73.857 C 293.547 74.345,293.561 74.531,294.026 74.824 C 294.342 75.024,294.434 75.191,294.231 75.194 C 294.029 75.197,293.503 74.885,293.064 74.500 C 292.301 73.832,292.276 73.833,292.528 74.521 C 292.697 74.986,292.637 75.147,292.359 74.974 C 291.878 74.677,288.812 76.014,288.805 76.524 C 288.802 76.702,289.008 76.719,289.262 76.562 C 289.541 76.389,289.615 76.452,289.449 76.721 C 289.298 76.965,288.910 77.064,288.587 76.940 C 288.264 76.816,288.000 76.914,288.000 77.157 C 288.000 77.401,287.865 77.556,287.700 77.503 C 287.106 77.311,285.513 78.702,286.072 78.926 C 286.410 79.061,286.338 79.148,285.871 79.168 C 285.471 79.186,284.873 79.470,284.543 79.800 C 283.932 80.411,284.317 80.647,285.033 80.100 C 285.249 79.935,284.565 80.637,283.513 81.661 C 282.461 82.684,281.600 83.809,281.600 84.161 C 281.600 84.512,281.420 84.800,281.200 84.800 C 280.980 84.800,280.800 85.160,280.800 85.600 C 280.800 86.040,280.620 86.400,280.400 86.400 C 280.180 86.400,280.000 86.749,280.000 87.176 C 280.000 87.603,279.820 88.064,279.600 88.200 C 279.380 88.336,279.200 89.067,279.200 89.824 C 279.200 90.581,279.020 91.200,278.800 91.200 C 278.577 91.200,278.400 92.275,278.400 93.626 C 278.400 94.961,278.220 96.390,277.999 96.802 C 277.731 97.303,277.731 97.634,277.999 97.799 C 278.220 97.936,278.400 99.286,278.400 100.800 C 278.400 102.314,278.580 103.664,278.800 103.800 C 279.020 103.936,279.200 104.487,279.200 105.024 C 279.200 105.561,279.380 106.000,279.600 106.000 C 279.820 106.000,280.000 106.450,280.000 107.000 C 280.000 107.550,280.180 108.000,280.400 108.000 C 280.620 108.000,280.800 108.360,280.800 108.800 C 280.800 109.240,280.980 109.600,281.200 109.600 C 281.420 109.600,281.600 109.836,281.600 110.125 C 281.600 110.413,281.960 111.036,282.400 111.508 C 282.840 111.980,283.200 112.462,283.200 112.579 C 283.200 113.180,287.260 117.345,288.021 117.525 C 288.312 117.594,288.852 117.999,289.222 118.425 C 289.591 118.851,290.105 119.200,290.364 119.200 C 290.622 119.200,291.220 119.560,291.692 120.000 C 292.164 120.440,292.866 120.800,293.252 120.800 C 293.637 120.800,294.064 120.980,294.200 121.200 C 294.336 121.420,294.977 121.600,295.624 121.600 C 296.271 121.600,296.800 121.780,296.800 122.000 C 296.800 122.222,297.867 122.400,299.200 122.400 C 300.520 122.400,301.600 122.551,301.600 122.737 C 301.600 123.224,305.498 123.289,305.796 122.806 C 305.934 122.583,307.027 122.400,308.224 122.400 C 309.421 122.400,310.400 122.220,310.400 122.000 C 310.400 121.780,310.909 121.600,311.532 121.600 C 313.753 121.600,318.631 118.593,321.900 115.209 C 324.959 112.044,325.200 111.738,325.200 111.017 C 325.200 110.678,325.380 110.400,325.600 110.400 C 325.820 110.400,326.000 110.040,326.000 109.600 C 326.000 109.160,326.180 108.800,326.400 108.800 C 326.620 108.800,326.800 108.440,326.800 108.000 C 326.800 107.560,326.980 107.200,327.200 107.200 C 327.420 107.200,327.600 106.761,327.600 106.224 C 327.600 105.687,327.780 105.136,328.000 105.000 C 328.220 104.864,328.400 103.964,328.400 103.000 C 328.400 102.036,328.580 101.136,328.800 101.000 C 329.020 100.864,329.200 99.223,329.200 97.353 C 329.200 95.188,329.055 94.043,328.800 94.200 C 328.552 94.353,328.400 93.612,328.400 92.247 C 328.400 91.037,328.220 89.936,328.000 89.800 C 327.780 89.664,327.600 89.023,327.600 88.376 C 327.600 87.729,327.420 87.200,327.200 87.200 C 326.980 87.200,326.800 86.840,326.800 86.400 C 326.800 85.960,326.620 85.600,326.400 85.600 C 326.180 85.600,326.000 85.306,326.000 84.947 C 326.000 84.588,325.612 83.958,325.139 83.547 C 324.665 83.136,324.401 82.800,324.553 82.800 C 324.704 82.800,324.633 82.435,324.394 81.989 C 324.155 81.543,323.761 81.300,323.518 81.451 C 323.267 81.606,323.189 81.542,323.337 81.302 C 323.664 80.772,321.358 78.255,320.839 78.576 C 320.628 78.706,320.325 78.602,320.166 78.345 C 319.985 78.052,320.050 77.984,320.338 78.162 C 321.269 78.737,320.743 77.776,319.717 77.028 C 318.803 76.361,318.694 76.348,318.917 76.928 C 319.059 77.298,319.001 77.600,318.787 77.600 C 318.574 77.600,318.400 77.432,318.400 77.227 C 318.400 77.022,318.049 76.743,317.620 76.606 C 317.149 76.457,316.929 76.130,317.063 75.780 C 317.270 75.240,316.784 75.046,315.332 75.087 C 315.074 75.095,314.959 74.852,315.076 74.547 C 315.240 74.120,314.959 74.036,313.844 74.179 C 312.763 74.317,312.400 74.217,312.400 73.782 C 312.400 73.462,312.040 73.200,311.600 73.200 C 311.160 73.200,310.845 73.400,310.900 73.645 C 310.955 73.890,310.584 74.161,310.076 74.246 C 309.567 74.332,309.235 74.267,309.338 74.101 C 309.441 73.936,307.271 73.837,304.516 73.882 C 299.780 73.959,297.059 73.375,298.904 72.676 C 299.177 72.573,298.809 72.496,298.086 72.505 C 297.363 72.515,296.677 72.675,296.562 72.861 M8.586 73.955 C 8.736 74.427,8.597 74.792,8.212 74.940 C 7.875 75.069,7.600 75.551,7.600 76.011 C 7.600 76.471,7.420 76.736,7.200 76.600 C 6.973 76.460,6.800 76.796,6.800 77.376 C 6.800 77.939,6.620 78.400,6.400 78.400 C 6.180 78.400,6.000 78.940,6.000 79.600 C 6.000 80.260,5.820 80.800,5.600 80.800 C 5.380 80.800,5.200 81.340,5.200 82.000 C 5.200 82.660,5.020 83.200,4.800 83.200 C 4.580 83.200,4.400 83.740,4.400 84.400 C 4.400 85.060,4.220 85.600,4.000 85.600 C 3.780 85.600,3.600 86.320,3.600 87.200 C 3.600 88.080,3.420 88.800,3.200 88.800 C 2.980 88.800,2.800 89.509,2.800 90.376 C 2.800 91.243,2.620 92.064,2.400 92.200 C 2.180 92.336,2.000 93.067,2.000 93.824 C 2.000 94.581,1.820 95.200,1.600 95.200 C 1.375 95.200,1.200 96.322,1.200 97.767 C 1.200 99.465,1.031 100.390,0.700 100.500 C 0.308 100.630,0.172 106.688,0.071 128.533 L -0.058 156.400 19.771 156.400 L 39.600 156.400 39.600 157.376 C 39.600 157.913,39.767 158.456,39.971 158.582 C 40.623 158.985,40.786 155.040,41.001 133.600 C 41.217 111.991,41.397 107.276,42.032 106.620 C 42.235 106.411,42.400 105.466,42.400 104.520 C 42.400 103.574,42.580 102.800,42.800 102.800 C 43.020 102.800,43.200 102.080,43.200 101.200 C 43.200 100.320,43.343 99.600,43.518 99.600 C 43.693 99.600,43.881 98.925,43.936 98.100 C 43.990 97.275,44.207 96.540,44.418 96.467 C 44.628 96.393,44.800 95.808,44.800 95.167 C 44.800 94.525,44.980 94.000,45.200 94.000 C 45.420 94.000,45.600 93.460,45.600 92.800 C 45.600 92.140,45.780 91.600,46.000 91.600 C 46.220 91.600,46.400 91.240,46.400 90.800 C 46.400 90.360,46.580 90.000,46.800 90.000 C 47.020 90.000,47.200 89.550,47.200 89.000 C 47.200 88.450,47.380 88.000,47.600 88.000 C 47.820 88.000,48.000 87.640,48.000 87.200 C 48.000 86.760,48.180 86.400,48.400 86.400 C 48.620 86.400,48.800 86.040,48.800 85.600 C 48.800 85.160,48.999 84.800,49.243 84.800 C 49.486 84.800,49.579 84.523,49.450 84.185 C 49.315 83.835,49.469 83.472,49.807 83.342 C 50.133 83.217,50.400 82.851,50.400 82.529 C 50.400 82.206,50.672 81.671,51.004 81.339 C 51.336 81.007,51.505 80.570,51.380 80.368 C 51.255 80.165,51.354 80.000,51.600 80.000 C 51.846 80.000,51.936 79.820,51.800 79.600 C 51.664 79.380,51.822 79.200,52.152 79.200 C 52.481 79.200,52.757 78.885,52.765 78.500 C 52.812 76.187,53.600 73.830,53.600 76.000 C 53.600 77.148,54.117 76.721,54.289 75.431 C 54.481 73.997,54.663 74.007,31.223 74.107 C 19.153 74.158,9.348 74.084,9.436 73.942 C 9.524 73.800,9.315 73.576,8.972 73.444 C 8.503 73.264,8.407 73.391,8.586 73.955 M390.898 73.466 C 390.621 73.577,390.469 73.788,390.559 73.934 C 390.650 74.080,380.847 74.158,368.777 74.107 C 345.337 74.007,345.519 73.997,345.711 75.431 C 345.883 76.721,346.400 77.148,346.400 76.000 C 346.400 73.830,347.188 76.187,347.235 78.500 C 347.243 78.885,347.519 79.200,347.848 79.200 C 348.178 79.200,348.336 79.380,348.200 79.600 C 348.064 79.820,348.154 80.000,348.400 80.000 C 348.646 80.000,348.745 80.165,348.620 80.368 C 348.495 80.570,348.664 81.007,348.996 81.339 C 349.328 81.671,349.600 82.206,349.600 82.529 C 349.600 82.851,349.867 83.217,350.193 83.342 C 350.531 83.472,350.685 83.835,350.550 84.185 C 350.421 84.523,350.514 84.800,350.757 84.800 C 351.001 84.800,351.200 85.160,351.200 85.600 C 351.200 86.040,351.380 86.400,351.600 86.400 C 351.820 86.400,352.000 86.760,352.000 87.200 C 352.000 87.640,352.180 88.000,352.400 88.000 C 352.620 88.000,352.800 88.450,352.800 89.000 C 352.800 89.550,352.980 90.000,353.200 90.000 C 353.420 90.000,353.600 90.360,353.600 90.800 C 353.600 91.240,353.780 91.600,354.000 91.600 C 354.220 91.600,354.400 92.140,354.400 92.800 C 354.400 93.460,354.580 94.000,354.800 94.000 C 355.020 94.000,355.200 94.525,355.200 95.167 C 355.200 95.808,355.372 96.393,355.582 96.467 C 355.793 96.540,356.010 97.275,356.064 98.100 C 356.119 98.925,356.307 99.600,356.482 99.600 C 356.657 99.600,356.800 100.320,356.800 101.200 C 356.800 102.080,356.980 102.800,357.200 102.800 C 357.420 102.800,357.600 103.574,357.600 104.520 C 357.600 105.466,357.765 106.411,357.968 106.620 C 358.603 107.276,358.783 111.991,358.999 133.600 C 359.214 155.040,359.377 158.985,360.029 158.582 C 360.233 158.456,360.400 157.913,360.400 157.376 L 360.400 156.400 380.229 156.400 L 400.058 156.400 399.929 128.533 C 399.828 106.688,399.692 100.630,399.300 100.500 C 398.969 100.390,398.800 99.465,398.800 97.767 C 398.800 96.322,398.625 95.200,398.400 95.200 C 398.180 95.200,398.000 94.581,398.000 93.824 C 398.000 93.067,397.820 92.336,397.600 92.200 C 397.380 92.064,397.200 91.243,397.200 90.376 C 397.200 89.509,397.020 88.800,396.800 88.800 C 396.580 88.800,396.400 88.080,396.400 87.200 C 396.400 86.320,396.220 85.600,396.000 85.600 C 395.780 85.600,395.600 85.060,395.600 84.400 C 395.600 83.740,395.420 83.200,395.200 83.200 C 394.980 83.200,394.800 82.660,394.800 82.000 C 394.800 81.340,394.620 80.800,394.400 80.800 C 394.180 80.800,394.000 80.260,394.000 79.600 C 394.000 78.940,393.820 78.400,393.600 78.400 C 393.380 78.400,393.200 77.939,393.200 77.376 C 393.200 76.796,393.027 76.460,392.800 76.600 C 392.580 76.736,392.400 76.471,392.400 76.011 C 392.400 75.551,392.125 75.069,391.788 74.940 C 391.402 74.792,391.264 74.428,391.415 73.953 C 391.546 73.539,391.597 73.214,391.527 73.232 C 391.457 73.249,391.174 73.354,390.898 73.466 M54.800 74.467 C 54.800 74.943,54.851 75.258,54.913 75.167 C 54.975 75.075,55.267 74.685,55.562 74.300 C 56.021 73.701,56.004 73.600,55.449 73.600 C 55.050 73.600,54.800 73.934,54.800 74.467 M344.438 74.300 C 344.733 74.685,345.025 75.075,345.087 75.167 C 345.149 75.258,345.200 74.943,345.200 74.467 C 345.200 73.934,344.950 73.600,344.551 73.600 C 343.996 73.600,343.979 73.701,344.438 74.300 M193.800 96.000 C 193.959 96.257,192.537 96.400,189.824 96.400 C 187.275 96.400,185.600 96.559,185.600 96.800 C 185.600 97.025,184.475 97.200,183.024 97.200 C 181.607 97.200,180.336 97.380,180.200 97.600 C 180.064 97.820,179.153 98.000,178.176 98.000 C 177.199 98.000,176.400 98.180,176.400 98.400 C 176.400 98.620,175.781 98.800,175.024 98.800 C 174.267 98.800,173.536 98.980,173.400 99.200 C 173.264 99.420,172.623 99.600,171.976 99.600 C 171.329 99.600,170.800 99.741,170.800 99.913 C 170.800 100.184,169.868 100.388,168.118 100.502 C 167.852 100.519,167.728 100.683,167.841 100.867 C 167.955 101.050,167.507 101.200,166.847 101.200 C 166.187 101.200,165.536 101.380,165.400 101.600 C 165.264 101.820,164.803 102.000,164.376 102.000 C 163.949 102.000,163.600 102.180,163.600 102.400 C 163.600 102.620,163.049 102.800,162.376 102.800 C 161.663 102.800,161.256 102.967,161.400 103.200 C 161.540 103.426,161.212 103.600,160.647 103.600 C 160.097 103.600,159.536 103.780,159.400 104.000 C 159.264 104.220,158.803 104.400,158.376 104.400 C 157.949 104.400,157.600 104.580,157.600 104.800 C 157.600 105.020,157.240 105.200,156.800 105.200 C 156.360 105.200,156.000 105.380,156.000 105.600 C 156.000 105.820,155.640 106.000,155.200 106.000 C 154.760 106.000,154.400 106.180,154.400 106.400 C 154.400 106.620,154.040 106.800,153.600 106.800 C 153.160 106.800,152.800 106.980,152.800 107.200 C 152.800 107.420,152.440 107.600,152.000 107.600 C 151.560 107.600,151.200 107.780,151.200 108.000 C 151.200 108.220,150.966 108.400,150.680 108.400 C 149.920 108.400,148.007 109.346,148.003 109.724 C 148.001 109.902,147.820 109.936,147.600 109.800 C 147.380 109.664,147.200 109.699,147.200 109.879 C 147.200 110.058,146.694 110.429,146.075 110.703 C 145.456 110.976,144.564 111.560,144.092 112.000 C 143.620 112.440,143.091 112.800,142.917 112.800 C 142.743 112.801,142.082 113.247,141.448 113.792 C 140.814 114.337,140.111 114.669,139.886 114.530 C 139.661 114.390,139.588 114.457,139.725 114.678 C 139.861 114.899,139.529 115.317,138.986 115.607 C 138.444 115.898,138.000 116.285,138.000 116.468 C 138.000 116.650,137.629 116.800,137.176 116.800 C 136.723 116.800,136.464 116.980,136.600 117.200 C 136.736 117.420,136.633 117.600,136.371 117.600 C 136.108 117.600,135.591 117.949,135.222 118.375 C 134.852 118.801,134.306 119.206,134.010 119.275 C 133.713 119.344,132.170 120.660,130.581 122.200 C 128.992 123.740,127.177 125.483,126.546 126.073 C 124.386 128.096,121.600 131.212,121.600 131.606 C 121.600 131.823,121.448 132.000,121.261 132.000 C 120.763 132.000,119.417 133.316,119.291 133.926 C 119.232 134.215,118.827 134.834,118.391 135.301 C 117.956 135.769,117.600 136.308,117.600 136.499 C 117.600 136.691,117.420 136.736,117.200 136.600 C 116.980 136.464,116.800 136.723,116.800 137.176 C 116.800 137.629,116.650 138.000,116.468 138.000 C 116.285 138.000,115.898 138.444,115.607 138.986 C 115.317 139.529,114.899 139.861,114.678 139.725 C 114.457 139.588,114.390 139.661,114.530 139.886 C 114.669 140.111,114.337 140.814,113.792 141.448 C 113.247 142.082,112.801 142.825,112.800 143.100 C 112.800 143.375,112.620 143.600,112.400 143.600 C 112.180 143.600,112.000 143.870,112.000 144.200 C 112.000 144.530,111.820 144.800,111.600 144.800 C 111.380 144.800,111.200 145.070,111.200 145.400 C 111.200 145.730,111.001 146.000,110.757 146.000 C 110.514 146.000,110.418 146.270,110.545 146.600 C 110.683 146.962,110.547 147.200,110.200 147.200 C 109.828 147.200,109.715 147.435,109.881 147.866 C 110.051 148.310,109.982 148.436,109.673 148.245 C 109.379 148.063,109.289 148.167,109.428 148.528 C 109.548 148.841,109.400 149.345,109.098 149.648 C 108.797 149.952,108.293 150.785,107.978 151.500 C 107.663 152.215,107.248 152.800,107.056 152.800 C 106.864 152.800,106.801 153.160,106.916 153.600 C 107.057 154.140,106.928 154.400,106.520 154.400 C 106.160 154.400,106.003 154.631,106.133 154.971 C 106.254 155.285,106.116 155.738,105.826 155.978 C 105.058 156.616,105.149 158.401,105.950 158.394 C 106.516 158.389,106.522 158.338,106.000 158.000 C 105.670 157.787,105.535 157.587,105.700 157.556 C 105.865 157.525,106.180 157.455,106.400 157.400 C 106.620 157.345,106.935 157.275,107.100 157.244 C 107.265 157.213,107.135 157.020,106.811 156.815 C 106.423 156.570,106.105 156.606,105.880 156.921 C 105.620 157.286,105.570 157.281,105.670 156.901 C 105.772 156.510,111.157 156.380,130.449 156.301 C 150.037 156.221,155.059 156.303,154.906 156.700 C 154.801 156.975,154.554 157.200,154.357 157.200 C 154.161 157.200,154.001 157.425,154.002 157.700 C 154.003 157.975,154.673 157.480,155.491 156.600 C 156.309 155.720,156.934 154.852,156.879 154.670 C 156.825 154.489,156.933 154.435,157.119 154.550 C 157.502 154.786,158.800 153.413,158.800 152.772 C 158.800 152.541,158.980 152.464,159.200 152.600 C 159.420 152.736,159.600 152.657,159.600 152.424 C 159.600 152.191,159.971 152.000,160.424 152.000 C 160.877 152.000,161.136 151.820,161.000 151.600 C 160.864 151.380,160.994 151.200,161.288 151.200 C 161.583 151.200,162.083 150.840,162.400 150.400 C 162.717 149.960,163.164 149.600,163.392 149.600 C 163.621 149.600,164.032 149.240,164.307 148.800 C 164.582 148.360,165.075 148.000,165.403 148.000 C 165.732 148.000,166.000 147.820,166.000 147.600 C 166.000 147.380,166.248 147.200,166.551 147.200 C 166.854 147.200,167.324 146.932,167.596 146.604 C 167.868 146.277,168.265 146.116,168.477 146.248 C 168.690 146.379,169.130 146.107,169.455 145.643 C 169.780 145.180,170.305 144.800,170.623 144.800 C 170.940 144.800,171.200 144.620,171.200 144.400 C 171.200 144.180,171.434 144.000,171.720 144.000 C 172.456 144.000,174.393 143.059,174.397 142.700 C 174.399 142.535,174.839 142.400,175.376 142.400 C 175.913 142.400,176.464 142.220,176.600 142.000 C 176.736 141.780,177.387 141.600,178.047 141.600 C 178.862 141.600,179.154 141.450,178.958 141.132 C 178.759 140.811,178.893 140.750,179.385 140.939 C 179.779 141.090,180.336 141.019,180.623 140.781 C 180.910 140.543,181.697 140.332,182.372 140.313 C 183.048 140.294,183.600 140.126,183.600 139.939 C 183.600 139.753,184.230 139.600,185.000 139.600 C 185.770 139.600,186.400 139.420,186.400 139.200 C 186.400 138.980,187.390 138.800,188.600 138.800 C 189.810 138.800,190.800 138.650,190.800 138.467 C 190.800 138.039,190.593 138.049,200.000 138.049 C 209.407 138.049,209.200 138.039,209.200 138.467 C 209.200 138.650,210.190 138.800,211.400 138.800 C 212.610 138.800,213.600 138.980,213.600 139.200 C 213.600 139.420,214.230 139.600,215.000 139.600 C 215.770 139.600,216.400 139.753,216.400 139.939 C 216.400 140.126,216.952 140.294,217.628 140.313 C 218.303 140.332,219.090 140.543,219.377 140.781 C 219.664 141.019,220.221 141.090,220.615 140.939 C 221.107 140.750,221.241 140.811,221.042 141.132 C 220.846 141.450,221.138 141.600,221.953 141.600 C 222.613 141.600,223.264 141.780,223.400 142.000 C 223.536 142.220,224.087 142.400,224.624 142.400 C 225.161 142.400,225.601 142.535,225.603 142.700 C 225.607 143.059,227.544 144.000,228.280 144.000 C 228.566 144.000,228.800 144.180,228.800 144.400 C 228.800 144.620,229.060 144.800,229.377 144.800 C 229.695 144.800,230.220 145.180,230.545 145.643 C 230.870 146.107,231.310 146.379,231.523 146.248 C 231.735 146.116,232.132 146.277,232.404 146.604 C 232.676 146.932,233.146 147.200,233.449 147.200 C 233.752 147.200,234.000 147.380,234.000 147.600 C 234.000 147.820,234.268 148.000,234.597 148.000 C 234.925 148.000,235.418 148.360,235.693 148.800 C 235.968 149.240,236.379 149.600,236.608 149.600 C 236.836 149.600,237.283 149.960,237.600 150.400 C 237.917 150.840,238.417 151.200,238.712 151.200 C 239.006 151.200,239.136 151.380,239.000 151.600 C 238.864 151.820,239.123 152.000,239.576 152.000 C 240.029 152.000,240.400 152.191,240.400 152.424 C 240.400 152.657,240.580 152.736,240.800 152.600 C 241.020 152.464,241.200 152.541,241.200 152.772 C 241.200 153.413,242.498 154.786,242.881 154.550 C 243.067 154.435,243.175 154.489,243.121 154.670 C 243.066 154.852,243.691 155.720,244.509 156.600 C 245.327 157.480,245.997 157.975,245.998 157.700 C 245.999 157.425,245.839 157.200,245.643 157.200 C 245.446 157.200,245.199 156.975,245.094 156.700 C 244.941 156.303,249.963 156.221,269.551 156.301 C 288.843 156.380,294.228 156.510,294.330 156.901 C 294.430 157.281,294.380 157.286,294.120 156.921 C 293.895 156.606,293.577 156.570,293.189 156.815 C 292.865 157.020,292.735 157.213,292.900 157.244 C 293.065 157.275,293.380 157.345,293.600 157.400 C 293.820 157.455,294.135 157.525,294.300 157.556 C 294.465 157.587,294.330 157.787,294.000 158.000 C 293.478 158.338,293.484 158.389,294.050 158.394 C 294.851 158.401,294.942 156.616,294.174 155.978 C 293.884 155.738,293.746 155.285,293.867 154.971 C 293.997 154.631,293.840 154.400,293.480 154.400 C 293.072 154.400,292.943 154.140,293.084 153.600 C 293.199 153.160,293.136 152.800,292.944 152.800 C 292.752 152.800,292.337 152.215,292.022 151.500 C 291.707 150.785,291.203 149.952,290.902 149.648 C 290.600 149.345,290.452 148.841,290.572 148.528 C 290.711 148.167,290.621 148.063,290.327 148.245 C 290.018 148.436,289.949 148.310,290.119 147.866 C 290.285 147.435,290.172 147.200,289.800 147.200 C 289.453 147.200,289.317 146.962,289.455 146.600 C 289.582 146.270,289.486 146.000,289.243 146.000 C 288.999 146.000,288.800 145.730,288.800 145.400 C 288.800 145.070,288.620 144.800,288.400 144.800 C 288.180 144.800,288.000 144.530,288.000 144.200 C 288.000 143.870,287.820 143.600,287.600 143.600 C 287.380 143.600,287.200 143.375,287.200 143.100 C 287.199 142.825,286.753 142.082,286.208 141.448 C 285.663 140.814,285.331 140.111,285.470 139.886 C 285.610 139.661,285.543 139.588,285.322 139.725 C 285.101 139.861,284.683 139.529,284.393 138.986 C 284.102 138.444,283.715 138.000,283.532 138.000 C 283.350 138.000,283.200 137.629,283.200 137.176 C 283.200 136.723,283.020 136.464,282.800 136.600 C 282.580 136.736,282.400 136.691,282.400 136.499 C 282.400 136.308,282.044 135.769,281.609 135.301 C 281.173 134.834,280.768 134.215,280.709 133.926 C 280.583 133.316,279.237 132.000,278.739 132.000 C 278.552 132.000,278.400 131.823,278.400 131.606 C 278.400 131.212,275.614 128.096,273.454 126.073 C 272.823 125.483,271.008 123.740,269.419 122.200 C 267.830 120.660,266.287 119.344,265.990 119.275 C 265.694 119.206,265.148 118.801,264.778 118.375 C 264.409 117.949,263.892 117.600,263.629 117.600 C 263.367 117.600,263.264 117.420,263.400 117.200 C 263.536 116.980,263.277 116.800,262.824 116.800 C 262.371 116.800,262.000 116.650,262.000 116.468 C 262.000 116.285,261.556 115.898,261.014 115.607 C 260.471 115.317,260.139 114.899,260.275 114.678 C 260.412 114.457,260.339 114.390,260.114 114.530 C 259.889 114.669,259.186 114.337,258.552 113.792 C 257.918 113.247,257.257 112.801,257.083 112.800 C 256.909 112.800,256.380 112.440,255.908 112.000 C 255.436 111.560,254.544 110.976,253.925 110.703 C 253.306 110.429,252.800 110.058,252.800 109.879 C 252.800 109.699,252.620 109.664,252.400 109.800 C 252.180 109.936,251.999 109.902,251.997 109.724 C 251.993 109.346,250.080 108.400,249.320 108.400 C 249.034 108.400,248.800 108.220,248.800 108.000 C 248.800 107.780,248.440 107.600,248.000 107.600 C 247.560 107.600,247.200 107.420,247.200 107.200 C 247.200 106.980,246.840 106.800,246.400 106.800 C 245.960 106.800,245.600 106.620,245.600 106.400 C 245.600 106.180,245.240 106.000,244.800 106.000 C 244.360 106.000,244.000 105.820,244.000 105.600 C 244.000 105.380,243.640 105.200,243.200 105.200 C 242.760 105.200,242.400 105.020,242.400 104.800 C 242.400 104.580,242.051 104.400,241.624 104.400 C 241.197 104.400,240.736 104.220,240.600 104.000 C 240.464 103.780,239.903 103.600,239.353 103.600 C 238.788 103.600,238.460 103.426,238.600 103.200 C 238.744 102.967,238.337 102.800,237.624 102.800 C 236.951 102.800,236.400 102.620,236.400 102.400 C 236.400 102.180,236.051 102.000,235.624 102.000 C 235.197 102.000,234.736 101.820,234.600 101.600 C 234.464 101.380,233.813 101.200,233.153 101.200 C 232.493 101.200,232.040 101.058,232.148 100.885 C 232.317 100.611,231.475 100.409,229.700 100.298 C 229.425 100.281,229.200 100.117,229.200 99.933 C 229.200 99.750,228.671 99.600,228.024 99.600 C 227.377 99.600,226.736 99.420,226.600 99.200 C 226.464 98.980,225.733 98.800,224.976 98.800 C 224.219 98.800,223.600 98.620,223.600 98.400 C 223.600 98.180,222.801 98.000,221.824 98.000 C 220.847 98.000,219.936 97.820,219.800 97.600 C 219.664 97.380,218.393 97.200,216.976 97.200 C 215.525 97.200,214.400 97.025,214.400 96.800 C 214.400 96.559,212.725 96.400,210.176 96.400 C 207.463 96.400,206.041 96.257,206.200 96.000 C 206.361 95.740,204.196 95.600,200.000 95.600 C 195.804 95.600,193.639 95.740,193.800 96.000 M152.429 157.500 C 152.154 158.105,152.063 158.467,152.228 158.303 C 152.392 158.140,152.730 158.176,152.980 158.383 C 153.301 158.649,153.429 158.415,153.417 157.580 C 153.398 156.106,153.074 156.079,152.429 157.500 M246.583 157.580 C 246.571 158.415,246.699 158.649,247.020 158.383 C 247.270 158.176,247.608 158.140,247.772 158.303 C 247.937 158.467,247.846 158.105,247.571 157.500 C 246.926 156.079,246.602 156.106,246.583 157.580 " stroke="none" fill="#ac1c8a" fill-rule="evenodd" /><path id="path4" d="M178.200 258.800 C 178.336 259.020,178.717 259.200,179.047 259.200 C 179.377 259.200,179.536 259.020,179.400 258.800 C 179.264 258.580,178.883 258.400,178.553 258.400 C 178.223 258.400,178.064 258.580,178.200 258.800 M220.600 258.800 C 220.464 259.020,220.623 259.200,220.953 259.200 C 221.283 259.200,221.664 259.020,221.800 258.800 C 221.936 258.580,221.777 258.400,221.447 258.400 C 221.117 258.400,220.736 258.580,220.600 258.800 M40.320 263.654 L 40.200 266.200 20.054 266.304 L -0.092 266.407 0.061 282.591 C 0.176 294.700,0.339 298.899,0.708 299.268 C 0.983 299.543,1.200 300.771,1.200 302.056 C 1.200 303.319,1.380 304.464,1.600 304.600 C 1.820 304.736,2.000 305.467,2.000 306.224 C 2.000 306.981,2.180 307.600,2.400 307.600 C 2.620 307.600,2.800 308.309,2.800 309.176 C 2.800 310.043,2.980 310.864,3.200 311.000 C 3.420 311.136,3.600 311.766,3.600 312.400 C 3.600 313.034,3.780 313.664,4.000 313.800 C 4.220 313.936,4.400 314.667,4.400 315.424 C 4.400 316.181,4.580 316.800,4.800 316.800 C 5.020 316.800,5.200 317.340,5.200 318.000 C 5.200 318.660,5.341 319.200,5.513 319.200 C 5.685 319.200,6.065 320.010,6.357 321.000 C 6.649 321.990,7.048 322.800,7.244 322.800 C 7.440 322.800,7.600 323.340,7.600 324.000 C 7.600 324.660,7.758 325.200,7.950 325.200 C 8.143 325.200,8.408 325.740,8.540 326.400 C 8.770 327.549,10.000 330.630,10.814 332.095 C 11.026 332.477,11.200 333.062,11.200 333.395 C 11.200 333.728,11.380 334.000,11.600 334.000 C 11.820 334.000,12.000 334.270,12.000 334.600 C 12.000 334.930,12.156 335.200,12.346 335.200 C 12.536 335.200,13.005 336.021,13.388 337.024 C 13.771 338.027,14.470 339.208,14.942 339.648 C 15.414 340.089,15.801 340.753,15.802 341.125 C 15.802 341.496,16.105 341.802,16.473 341.805 C 16.842 341.808,17.271 341.938,17.427 342.094 C 18.050 342.717,67.857 342.454,68.379 341.825 C 69.096 340.961,68.531 339.724,67.209 339.263 C 66.568 339.039,65.765 338.305,65.409 337.617 C 65.055 336.933,64.639 336.451,64.483 336.545 C 64.113 336.769,63.178 335.755,63.478 335.455 C 63.605 335.329,63.148 334.904,62.463 334.512 C 61.777 334.121,61.014 333.311,60.765 332.713 C 60.517 332.116,59.973 331.518,59.557 331.386 C 59.141 331.254,58.800 330.903,58.800 330.606 C 58.800 330.310,58.665 330.007,58.500 329.933 C 58.335 329.860,57.702 329.035,57.094 328.100 C 56.486 327.165,55.811 326.400,55.594 326.400 C 55.377 326.400,55.200 326.164,55.200 325.875 C 55.200 325.587,54.885 324.997,54.500 324.563 C 53.380 323.303,52.396 321.340,52.711 320.992 C 52.870 320.816,52.775 320.801,52.500 320.959 C 52.196 321.134,52.000 321.016,52.000 320.657 C 52.000 320.332,51.865 320.007,51.700 319.933 C 51.268 319.741,49.600 316.428,49.600 315.762 C 49.600 315.453,49.420 315.200,49.200 315.200 C 48.980 315.200,48.800 314.840,48.800 314.400 C 48.800 313.960,48.654 313.600,48.475 313.600 C 48.097 313.600,46.947 310.810,47.110 310.291 C 47.170 310.098,47.035 310.055,46.810 310.194 C 46.571 310.342,46.400 310.021,46.400 309.424 C 46.400 308.861,46.220 308.400,46.000 308.400 C 45.780 308.400,45.600 307.860,45.600 307.200 C 45.600 306.540,45.420 306.000,45.200 306.000 C 44.980 306.000,44.800 305.460,44.800 304.800 C 44.800 304.140,44.640 303.600,44.444 303.600 C 44.107 303.600,43.989 303.149,43.367 299.496 C 43.227 298.669,42.951 297.894,42.756 297.773 C 42.560 297.652,42.400 296.663,42.400 295.576 C 42.400 294.489,42.240 293.600,42.045 293.600 C 41.515 293.600,41.267 289.205,40.973 274.600 C 40.709 261.465,40.550 258.798,40.320 263.654 M359.217 269.600 C 358.999 285.137,358.553 293.600,357.955 293.600 C 357.760 293.600,357.600 294.489,357.600 295.576 C 357.600 296.663,357.440 297.652,357.244 297.773 C 357.049 297.894,356.779 298.624,356.644 299.396 C 356.510 300.168,356.290 301.430,356.156 302.200 C 356.022 302.970,355.752 303.600,355.556 303.600 C 355.360 303.600,355.200 304.140,355.200 304.800 C 355.200 305.460,355.020 306.000,354.800 306.000 C 354.580 306.000,354.400 306.540,354.400 307.200 C 354.400 307.860,354.220 308.400,354.000 308.400 C 353.780 308.400,353.600 308.861,353.600 309.424 C 353.600 310.021,353.429 310.342,353.190 310.194 C 352.965 310.055,352.830 310.098,352.890 310.291 C 353.053 310.810,351.903 313.600,351.525 313.600 C 351.346 313.600,351.200 313.960,351.200 314.400 C 351.200 314.840,351.020 315.200,350.800 315.200 C 350.580 315.200,350.400 315.453,350.400 315.762 C 350.400 316.428,348.732 319.741,348.300 319.933 C 348.135 320.007,348.000 320.332,348.000 320.657 C 348.000 321.016,347.804 321.134,347.500 320.959 C 347.225 320.801,347.130 320.816,347.289 320.992 C 347.604 321.340,346.620 323.303,345.500 324.563 C 345.115 324.997,344.800 325.587,344.800 325.875 C 344.800 326.164,344.623 326.400,344.406 326.400 C 344.189 326.400,343.514 327.165,342.906 328.100 C 342.298 329.035,341.665 329.860,341.500 329.933 C 341.335 330.007,341.200 330.310,341.200 330.606 C 341.200 330.903,340.859 331.254,340.443 331.386 C 340.027 331.518,339.483 332.116,339.235 332.713 C 338.986 333.311,338.223 334.121,337.537 334.512 C 336.852 334.904,336.395 335.329,336.522 335.455 C 336.822 335.755,335.887 336.769,335.517 336.545 C 335.361 336.451,334.945 336.933,334.591 337.617 C 334.235 338.305,333.432 339.039,332.791 339.263 C 331.469 339.724,330.904 340.961,331.621 341.825 C 332.143 342.454,381.950 342.717,382.573 342.094 C 382.729 341.938,383.158 341.808,383.527 341.805 C 383.895 341.802,384.198 341.496,384.198 341.125 C 384.199 340.753,384.586 340.089,385.058 339.648 C 385.530 339.208,386.229 338.027,386.612 337.024 C 386.995 336.021,387.464 335.200,387.654 335.200 C 387.844 335.200,388.000 334.930,388.000 334.600 C 388.000 334.270,388.180 334.000,388.400 334.000 C 388.620 334.000,388.800 333.728,388.800 333.395 C 388.800 333.062,388.974 332.477,389.186 332.095 C 390.000 330.630,391.230 327.549,391.460 326.400 C 391.592 325.740,391.858 325.200,392.050 325.200 C 392.243 325.200,392.400 324.660,392.400 324.000 C 392.400 323.340,392.560 322.800,392.756 322.800 C 392.952 322.800,393.351 321.990,393.643 321.000 C 393.935 320.010,394.315 319.200,394.487 319.200 C 394.659 319.200,394.800 318.660,394.800 318.000 C 394.800 317.340,394.980 316.800,395.200 316.800 C 395.420 316.800,395.600 316.181,395.600 315.424 C 395.600 314.667,395.780 313.936,396.000 313.800 C 396.220 313.664,396.400 313.034,396.400 312.400 C 396.400 311.766,396.580 311.136,396.800 311.000 C 397.020 310.864,397.200 310.043,397.200 309.176 C 397.200 308.309,397.380 307.600,397.600 307.600 C 397.820 307.600,398.000 306.981,398.000 306.224 C 398.000 305.467,398.180 304.736,398.400 304.600 C 398.620 304.464,398.800 303.319,398.800 302.056 C 398.800 300.771,399.017 299.543,399.292 299.268 C 399.661 298.899,399.824 294.700,399.939 282.591 L 400.092 266.407 379.946 266.304 L 359.800 266.200 359.569 263.600 C 359.431 262.047,359.289 264.465,359.217 269.600 M196.000 262.479 C 196.000 262.681,195.792 262.719,195.538 262.562 C 195.245 262.381,195.185 262.453,195.374 262.758 C 195.542 263.029,195.873 263.098,196.136 262.916 C 196.703 262.523,203.245 262.534,203.885 262.929 C 204.138 263.085,204.475 263.002,204.634 262.745 C 204.815 262.452,204.750 262.384,204.462 262.562 C 204.208 262.719,204.000 262.681,204.000 262.479 C 204.000 262.276,202.200 262.110,200.000 262.110 C 197.800 262.110,196.000 262.276,196.000 262.479 M121.459 266.713 C 121.533 266.830,121.397 267.163,121.157 267.452 C 120.736 267.959,121.414 269.077,122.286 269.314 C 122.459 269.361,122.555 269.535,122.500 269.700 C 122.445 269.865,122.658 270.000,122.973 270.000 C 123.288 270.000,123.661 270.363,123.802 270.806 C 123.943 271.249,124.225 271.508,124.429 271.382 C 124.633 271.256,124.800 271.343,124.800 271.576 C 124.800 272.152,127.884 275.200,128.467 275.200 C 128.723 275.200,128.824 275.309,128.691 275.443 C 128.374 275.760,129.309 276.771,129.700 276.534 C 129.865 276.435,130.000 276.563,130.000 276.820 C 130.000 277.324,133.592 280.789,134.122 280.796 C 134.299 280.798,135.019 281.339,135.722 281.998 C 136.425 282.657,137.185 283.197,137.412 283.198 C 137.638 283.199,138.083 283.560,138.400 284.000 C 138.717 284.440,139.162 284.800,139.388 284.801 C 139.615 284.801,140.430 285.341,141.200 286.000 C 141.970 286.659,142.810 287.199,143.067 287.199 C 143.323 287.200,143.593 287.335,143.667 287.500 C 143.871 287.960,146.009 289.331,147.895 290.210 C 148.828 290.644,149.593 291.135,149.595 291.300 C 149.598 291.465,149.960 291.600,150.400 291.600 C 150.840 291.600,151.200 291.780,151.200 292.000 C 151.200 292.220,151.560 292.400,152.000 292.400 C 152.440 292.400,152.800 292.580,152.800 292.800 C 152.800 293.020,153.160 293.200,153.600 293.200 C 154.040 293.200,154.400 293.380,154.400 293.600 C 154.400 293.820,154.760 294.000,155.200 294.000 C 155.640 294.000,156.000 294.180,156.000 294.400 C 156.000 294.620,156.360 294.800,156.800 294.800 C 157.240 294.800,157.600 294.980,157.600 295.200 C 157.600 295.420,157.949 295.600,158.376 295.600 C 158.803 295.600,159.264 295.780,159.400 296.000 C 159.536 296.220,160.087 296.400,160.624 296.400 C 161.161 296.400,161.600 296.580,161.600 296.800 C 161.600 297.020,162.050 297.200,162.600 297.200 C 163.150 297.200,163.600 297.380,163.600 297.600 C 163.600 297.820,164.039 298.000,164.576 298.000 C 165.113 298.000,165.664 298.180,165.800 298.400 C 165.936 298.620,166.476 298.800,167.000 298.800 C 167.524 298.800,168.064 298.980,168.200 299.200 C 168.336 299.420,168.977 299.600,169.624 299.600 C 170.271 299.600,170.800 299.780,170.800 300.000 C 170.800 300.220,171.419 300.400,172.176 300.400 C 172.933 300.400,173.652 300.560,173.773 300.756 C 173.987 301.103,174.947 301.332,178.200 301.813 C 179.080 301.943,180.160 302.210,180.600 302.407 C 181.040 302.603,182.480 302.865,183.800 302.988 C 185.120 303.111,188.090 303.409,190.400 303.649 C 195.772 304.207,204.228 304.207,209.600 303.649 C 211.910 303.409,214.880 303.111,216.200 302.988 C 217.520 302.865,218.960 302.603,219.400 302.407 C 219.840 302.210,220.875 301.948,221.700 301.825 C 225.057 301.322,226.018 301.095,226.227 300.756 C 226.348 300.560,227.067 300.400,227.824 300.400 C 228.581 300.400,229.200 300.220,229.200 300.000 C 229.200 299.780,229.729 299.600,230.376 299.600 C 231.023 299.600,231.664 299.420,231.800 299.200 C 231.936 298.980,232.476 298.800,233.000 298.800 C 233.524 298.800,234.064 298.620,234.200 298.400 C 234.336 298.180,234.887 298.000,235.424 298.000 C 235.961 298.000,236.400 297.820,236.400 297.600 C 236.400 297.380,236.850 297.200,237.400 297.200 C 237.950 297.200,238.400 297.020,238.400 296.800 C 238.400 296.580,238.839 296.400,239.376 296.400 C 239.913 296.400,240.464 296.220,240.600 296.000 C 240.736 295.780,241.197 295.600,241.624 295.600 C 242.051 295.600,242.400 295.420,242.400 295.200 C 242.400 294.980,242.760 294.800,243.200 294.800 C 243.640 294.800,244.000 294.620,244.000 294.400 C 244.000 294.180,244.360 294.000,244.800 294.000 C 245.240 294.000,245.600 293.820,245.600 293.600 C 245.600 293.380,245.960 293.200,246.400 293.200 C 246.840 293.200,247.200 293.020,247.200 292.800 C 247.200 292.580,247.560 292.400,248.000 292.400 C 248.440 292.400,248.800 292.220,248.800 292.000 C 248.800 291.780,249.160 291.600,249.600 291.600 C 250.040 291.600,250.402 291.465,250.405 291.300 C 250.407 291.135,251.172 290.644,252.105 290.210 C 253.991 289.331,256.129 287.960,256.333 287.500 C 256.407 287.335,256.677 287.200,256.933 287.199 C 257.190 287.199,258.030 286.659,258.800 286.000 C 259.570 285.341,260.385 284.801,260.612 284.801 C 260.838 284.800,261.283 284.440,261.600 284.000 C 261.917 283.560,262.362 283.199,262.588 283.198 C 262.815 283.197,263.575 282.657,264.278 281.998 C 264.981 281.339,265.701 280.798,265.878 280.796 C 266.435 280.788,270.000 277.312,270.000 276.777 C 270.000 276.496,270.109 276.376,270.243 276.509 C 270.560 276.826,271.571 275.891,271.334 275.500 C 271.235 275.335,271.343 275.200,271.576 275.200 C 272.128 275.200,275.200 272.128,275.200 271.576 C 275.200 271.343,275.367 271.256,275.571 271.382 C 275.775 271.508,276.057 271.249,276.198 270.806 C 276.339 270.363,276.712 270.000,277.027 270.000 C 277.342 270.000,277.555 269.865,277.500 269.700 C 277.445 269.535,277.541 269.361,277.714 269.314 C 278.586 269.077,279.264 267.959,278.843 267.452 C 278.603 267.163,278.494 266.806,278.600 266.660 C 278.706 266.513,278.579 266.575,278.317 266.797 C 277.702 267.317,277.079 267.319,277.400 266.800 C 277.564 266.534,251.663 266.400,200.000 266.400 C 148.337 266.400,122.436 266.534,122.600 266.800 C 122.905 267.293,122.312 267.327,121.743 266.850 C 121.513 266.657,121.385 266.596,121.459 266.713 M68.626 341.958 C 68.504 342.155,68.683 342.423,69.023 342.554 C 69.363 342.684,69.541 342.628,69.418 342.430 C 69.295 342.231,69.421 341.977,69.698 341.866 C 70.010 341.740,69.944 341.651,69.524 341.632 C 69.152 341.614,68.748 341.761,68.626 341.958 M330.302 341.866 C 330.579 341.977,330.705 342.231,330.582 342.430 C 330.459 342.628,330.637 342.684,330.977 342.554 C 331.750 342.257,331.387 341.589,330.476 341.632 C 330.056 341.651,329.990 341.740,330.302 341.866 M18.032 342.900 C 18.014 343.285,18.270 343.600,18.600 343.600 C 18.930 343.600,19.200 343.409,19.200 343.176 C 19.200 342.943,19.035 342.855,18.834 342.979 C 18.633 343.103,18.377 342.979,18.266 342.702 C 18.144 342.399,18.051 342.478,18.032 342.900 M381.600 342.824 C 381.600 343.057,381.420 343.136,381.200 343.000 C 380.980 342.864,380.800 342.943,380.800 343.176 C 380.800 343.409,381.070 343.600,381.400 343.600 C 381.730 343.600,382.000 343.330,382.000 343.000 C 382.000 342.670,381.910 342.400,381.800 342.400 C 381.690 342.400,381.600 342.591,381.600 342.824 M118.100 359.076 C 118.485 359.176,119.115 359.176,119.500 359.076 C 119.885 358.975,119.570 358.893,118.800 358.893 C 118.030 358.893,117.715 358.975,118.100 359.076 M280.500 359.076 C 280.885 359.176,281.515 359.176,281.900 359.076 C 282.285 358.975,281.970 358.893,281.200 358.893 C 280.430 358.893,280.115 358.975,280.500 359.076 " stroke="none" fill="#ce6349" fill-rule="evenodd" />
</svg>
