<svg class="sprite" xmlns="http://www.w3.org/2000/svg">
  <symbol viewBox="0 0 24 24" id="icon-crop">
    <path d="M4,3H9A1,1,0,0,1,9,5H5V9A1,1,0,0,1,3,9V4A1,1,0,0,1,4,3ZM9,19H5V15a1,1,0,0,0-2,0v5a1,1,0,0,0,1,1H9a1,1,0,0,0,0-2Zm11-5a1,1,0,0,0-1,1v4H15a1,1,0,0,0,0,2h5a1,1,0,0,0,1-1V15A1,1,0,0,0,20,14ZM20,3H15a1,1,0,0,0,0,2h4V9a1,1,0,0,0,2,0V4A1,1,0,0,0,20,3ZM7,8v8a1,1,0,0,0,1,1h8a1,1,0,0,0,1-1V8a1,1,0,0,0-1-1H8A1,1,0,0,0,7,8Z"/>
  </symbol>
  <symbol viewBox="-2 -2 20 20" id="icon-scale">
    <path fill="#000000" fill-rule="evenodd" d="M479,109 L477.497699,109 C477.214844,109 477,109.223858 477,109.5 C477,109.768066 477.222827,110 477.497699,110 L479,110 L479,111.502301 C479,111.785156 479.223858,112 479.5,112 C479.768066,112 480,111.777173 480,111.502301 L480,110 L481.502301,110 C481.785156,110 482,109.776142 482,109.5 C482,109.231934 481.777173,109 481.502301,109 L480,109 L480,107.497699 C480,107.214844 479.776142,107 479.5,107 C479.231934,107 479,107.222827 479,107.497699 L479,109 Z M474,105.000872 C474,104.448106 474.444631,104 475.000872,104 L488.999128,104 C489.551894,104 490,104.444631 490,105.000872 L490,118.999128 C490,119.551894 489.555369,120 488.999128,120 L475.000872,120 C474.448106,120 474,119.555369 474,118.999128 L474,105.000872 Z M475,105 L489,105 L475,119 L475,105 Z M483,115.5 C483,115.223858 483.215057,115 483.490479,115 L486.509521,115 C486.780405,115 487,115.231934 487,115.5 C487,115.776142 486.784943,116 486.509521,116 L483.490479,116 C483.219595,116 483,115.768066 483,115.5 Z" transform="translate(-474 -104)"/>
  </symbol>
  <symbol viewBox="0 0 24 24" id="icon-insta">
    <path fill-rule="evenodd" clip-rule="evenodd" d="M2 6C2 3.79086 3.79086 2 6 2H18C20.2091 2 22 3.79086 22 6V18C22 20.2091 20.2091 22 18 22H6C3.79086 22 2 20.2091 2 18V6ZM6 4C4.89543 4 4 4.89543 4 6V18C4 19.1046 4.89543 20 6 20H18C19.1046 20 20 19.1046 20 18V6C20 4.89543 19.1046 4 18 4H6ZM12 9C10.3431 9 9 10.3431 9 12C9 13.6569 10.3431 15 12 15C13.6569 15 15 13.6569 15 12C15 10.3431 13.6569 9 12 9ZM7 12C7 9.23858 9.23858 7 12 7C14.7614 7 17 9.23858 17 12C17 14.7614 14.7614 17 12 17C9.23858 17 7 14.7614 7 12ZM17.5 8C18.3284 8 19 7.32843 19 6.5C19 5.67157 18.3284 5 17.5 5C16.6716 5 16 5.67157 16 6.5C16 7.32843 16.6716 8 17.5 8Z"/>
  </symbol>
  <symbol viewBox="-3.5 4 24 24" id="icon-rotate">
    <path d="M15.88 13.84c-1.68-3.48-5.44-5.24-9.040-4.6l0.96-1.8c0.24-0.4 0.080-0.92-0.32-1.12-0.4-0.24-0.92-0.080-1.12 0.32l-1.96 3.64c0 0-0.44 0.72 0.24 1.040l3.64 1.96c0.12 0.080 0.28 0.12 0.4 0.12 0.28 0 0.6-0.16 0.72-0.44 0.24-0.4 0.080-0.92-0.32-1.12l-1.88-1.040c2.84-0.48 5.8 0.96 7.12 3.68 1.6 3.32 0.2 7.32-3.12 8.88-1.6 0.76-3.4 0.88-5.080 0.28s-3.040-1.8-3.8-3.4c-0.76-1.6-0.88-3.4-0.28-5.080 0.16-0.44-0.080-0.92-0.52-1.080-0.4-0.080-0.88 0.16-1.040 0.6-0.72 2.12-0.6 4.36 0.36 6.36s2.64 3.52 4.76 4.28c0.92 0.32 1.84 0.48 2.76 0.48 1.24 0 2.48-0.28 3.6-0.84 4.16-2 5.92-7 3.92-11.12z"/>
  </symbol>
  <symbol viewBox="0 0 24 24" id="icon-reflect">
    <path fill-rule="evenodd" d="M12 10.75a.75.75 0 01.75.75v1a.75.75 0 01-1.5 0v-1a.75.75 0 01.75-.75zm0 4a.75.75 0 01.75.75v1a.75.75 0 01-1.5 0v-1a.75.75 0 01.75-.75zm0 4a.75.75 0 01.75.75v1a.75.75 0 01-1.5 0v-1a.75.75 0 01.75-.75zm0-12a.75.75 0 01.75.75v1a.75.75 0 01-1.5 0v-1a.75.75 0 01.75-.75zm0-4a.75.75 0 01.75.75v1a.75.75 0 01-1.5 0v-1a.75.75 0 01.75-.75zm9.553 3.314A.75.75 0 0122 6.75v10.5a.75.75 0 01-1.256.554l-5.75-5.25a.75.75 0 010-1.108l5.75-5.25a.75.75 0 01.809-.132zM16.613 12l3.887 3.55v-7.1L16.612 12zM2.447 17.936A.75.75 0 012 17.25V6.75a.75.75 0 011.256-.554l5.75 5.25a.75.75 0 010 1.108l-5.75 5.25a.75.75 0 01-.809.132zM7.387 12L3.5 8.45v7.1L7.388 12z"/>
  </symbol>
  <symbol viewBox="0 0 256 256" id="icon-arrow">
    <g style="stroke: none; stroke-width: 0; stroke-dasharray: none; stroke-linecap: butt; stroke-linejoin: miter; stroke-miterlimit: 10; fill: none; fill-rule: nonzero; opacity: 1;" transform="translate(1.4065934065934016 1.4065934065934016) scale(2.81 2.81)" >
      <path d="M 65.75 90 c 0.896 0 1.792 -0.342 2.475 -1.025 c 1.367 -1.366 1.367 -3.583 0 -4.949 L 29.2 45 L 68.225 5.975 c 1.367 -1.367 1.367 -3.583 0 -4.95 c -1.367 -1.366 -3.583 -1.366 -4.95 0 l -41.5 41.5 c -1.367 1.366 -1.367 3.583 0 4.949 l 41.5 41.5 C 63.958 89.658 64.854 90 65.75 90 z" style="stroke: none; stroke-width: 1; stroke-dasharray: none; stroke-linecap: butt; stroke-linejoin: miter; stroke-miterlimit: 10; fill: rgb(0,0,0); fill-rule: nonzero; opacity: 1;" transform=" matrix(1 0 0 1 0 0) " stroke-linecap="round" />
    </g>
  </symbol>
</svg>
