<svg xmlns="http://www.w3.org/2000/svg"><symbol viewBox="0 0 37.729797 75.803986" id="src-1">
  <g id="Group_65" data-name="Group 65" transform="translate(-831.568 -384.448)">
    <path id="Path_57" data-name="Path 57" d="M833.068,460.252a1.5,1.5,0,0,1-1.061-2.561l33.557-33.56a2.53,2.53,0,0,0,0-3.564l-33.557-33.558a1.5,1.5,0,0,1,2.122-2.121l33.556,33.558a5.53,5.53,0,0,1,0,7.807l-33.557,33.56A1.5,1.5,0,0,1,833.068,460.252Z" fill="#0c2c67"/>
  </g>
</symbol><symbol viewBox="0 0 37.731384 75.803345" id="src-2">
  <g id="Group_64" data-name="Group 64" transform="translate(-624.082 -383.588)">
    <path id="Path_56" data-name="Path 56" d="M660.313,383.588a1.5,1.5,0,0,1,1.06,2.561l-33.556,33.56a2.528,2.528,0,0,0,0,3.564l33.556,33.558a1.5,1.5,0,0,1-2.121,2.121L625.7,425.394a5.527,5.527,0,0,1,0-7.807l33.556-33.559A1.5,1.5,0,0,1,660.313,383.588Z" fill="#0c2c67"/>
  </g>
</symbol><symbol viewBox="0 0 15.0311775 15.029843" id="src-3">

  <g fill="#000000">

    <path d="M7.25 4a.75.75 0 01.75.75V6.5h1.75a.75.75 0 010 1.5H8v1.75a.75.75 0 01-1.5 0V8H4.75a.75.75 0 010-1.5H6.5V4.75A.75.75 0 017.25 4z"/>

    <path fill-rule="evenodd" d="M7.25 1a6.25 6.25 0 103.857 11.168l2.613 2.612a.75.75 0 101.06-1.06l-2.612-2.613A6.25 6.25 0 007.25 1zM2.5 7.25a4.75 4.75 0 119.5 0 4.75 4.75 0 01-9.5 0z" clip-rule="evenodd"/>

  </g>

</symbol><symbol viewBox="0 0 15.469701 15.469701" id="src-4"><path fill="#000000" fill-rule="evenodd" d="M4.5 1.25a.75.75 0 00-1.5 0V3H1.25a.75.75 0 000 1.5H3v6.456A2.044 2.044 0 005.044 13H11.5v1.75a.75.75 0 001.5 0V13h1.75a.75.75 0 000-1.5H13V5.044A2.044 2.044 0 0010.956 3H4.5V1.25zm0 3.25v6.456a.544.544 0 00.544.544H11.5V5.044a.544.544 0 00-.544-.544H4.5z" clip-rule="evenodd"/></symbol><symbol viewBox="0 0 51.483997 54.356" id="src-5"><path d="M 37.3280 14.5587 C 38.7343 15.6134 40.1874 15.1915 40.1874 13.3399 L 40.1874 10.1290 L 40.2578 10.1290 C 45.3437 10.1290 48.5545 13.6446 48.5545 18.6603 C 48.5545 21.7774 47.5936 22.9493 47.5235 23.7930 C 47.5000 24.4493 47.7342 24.8477 48.2732 25.1056 C 49.0000 25.4571 49.8438 25.1290 50.2422 24.4493 C 50.9689 23.2071 51.4844 21.1446 51.4844 18.6368 C 51.4844 11.9337 47.0080 7.4103 40.2812 7.4103 L 40.1874 7.4103 L 40.1874 3.9649 C 40.1874 2.0665 38.7578 1.6444 37.3280 2.7227 L 30.9296 7.4103 C 29.8515 8.2071 29.8515 9.1212 30.9296 9.8946 Z M 10.5390 54.3556 L 33.7656 54.3556 C 37.7734 54.3556 39.7890 52.4337 39.7890 48.3321 L 39.7890 25.1524 C 39.7890 21.0508 37.7734 19.1290 33.7656 19.1290 L 10.5390 19.1290 C 6.5312 19.1290 4.5156 21.0508 4.5156 25.1524 L 4.5156 48.3321 C 4.5156 52.4337 6.5312 54.3556 10.5390 54.3556 Z M 10.6093 50.5821 C 9.0156 50.5821 8.2890 49.9259 8.2890 48.2618 L 8.2890 25.2227 C 8.2890 23.5587 9.0156 22.9024 10.6093 22.9024 L 33.6952 22.9024 C 35.3124 22.9024 36.0156 23.5587 36.0156 25.2227 L 36.0156 48.2618 C 36.0156 49.9259 35.3124 50.5821 33.6952 50.5821 Z"/></symbol><symbol viewBox="0 0 48 48" id="src-6">
  <title>flip</title>
  <g id="Layer_2" data-name="Layer 2">
    <g id="invisible_box" data-name="invisible box">
      <rect width="48" height="48" fill="none"/>
    </g>
    <g id="icons_Q2" data-name="icons Q2">
      <g>
        <path d="M24,4a2,2,0,0,0-2,2V42a2,2,0,0,0,4,0V6A2,2,0,0,0,24,4Z"/>
        <path d="M5.8,9.3A1.3,1.3,0,0,0,5,9a1,1,0,0,0-1,1V38a1,1,0,0,0,1,1,1.3,1.3,0,0,0,.8-.3l13.9-14a1,1,0,0,0,0-1.4ZM8,30.8V17.2L14.8,24Z"/>
        <path d="M42.2,9.3l-13.9,14a1,1,0,0,0,0,1.4l13.9,14A1.1,1.1,0,0,0,44,38V10A1.1,1.1,0,0,0,42.2,9.3Z"/>
      </g>
    </g>
  </g>
</symbol><symbol viewBox="0 0 227.60933 227.60933" id="src-7"><defs><style></style></defs><g id="Calque_2" data-name="Calque 2"><g id="Calque_1-2" data-name="Calque 1"><path class="cls-1" d="M169.06,15a43.6,43.6,0,0,1,43.55,43.55V169.06a43.59,43.59,0,0,1-43.55,43.55H58.55A43.6,43.6,0,0,1,15,169.06V58.55A43.6,43.6,0,0,1,58.55,15H169.06m0-15H58.55A58.56,58.56,0,0,0,0,58.55V169.06a58.55,58.55,0,0,0,58.55,58.55H169.06a58.55,58.55,0,0,0,58.55-58.55V58.55A58.55,58.55,0,0,0,169.06,0Z"/><path class="cls-1" d="M113.81,77.38a36.43,36.43,0,1,1-36.43,36.43,36.47,36.47,0,0,1,36.43-36.43m0-15a51.43,51.43,0,1,0,51.42,51.43,51.44,51.44,0,0,0-51.42-51.43Z"/><circle class="cls-2" cx="167.03" cy="48.61" r="4.65"/></g></g></symbol></svg>
