<svg width="0" height="0" class="hidden">

  <symbol xmlns="http://www.w3.org/2000/svg" viewBox="0 0 20 20" id="crop">

    <path d="M14 16H6a2 2 0 0 1-2-2V6H0V4h4V0h2v14h14v2h-4v4h-2v-4zm0-3V6H7V4h7a2 2 0 0 1 2 2v7h-2z"></path>

  </symbol>

  <symbol id="logo" xmlns="http://www.w3.org/2000/svg" xmlns:xlink="http://www.w3.org/1999/xlink" viewBox="0 0 512 512">
    <defs>
      <style>.cls-1{fill:url(#linear-gradient);}.cls-2{fill:url(#linear-gradient-3);}</style>
      <linearGradient gradientUnits="userSpaceOnUse" id="linear-gradient" x1="8" x2="506.325" y1="504" y2="5.675">
        <stop offset="0" stop-color="#ffcb52"/>
        <stop offset="0.318" stop-color="#ff6341"/>
        <stop offset="0.658" stop-color="#cd39a2"/>
        <stop offset="1" stop-color="#515bca"/>
      </linearGradient>
      <linearGradient id="linear-gradient-3" x1="8" x2="506.325" xlink:href="#linear-gradient" y1="504" y2="5.675"/>
    </defs>
    <title/>
    <path class="cls-1" d="M314.757,147.525H197.243a49.717,49.717,0,0,0-49.718,49.718V314.757a49.718,49.718,0,0,0,49.718,49.718H314.757a49.718,49.718,0,0,0,49.717-49.718V197.243A49.717,49.717,0,0,0,314.757,147.525ZM256,324.391A68.391,68.391,0,1,1,324.391,256,68.391,68.391,0,0,1,256,324.391ZM327.242,201.58a16.271,16.271,0,1,1,16.27-16.271A16.271,16.271,0,0,1,327.242,201.58Z"/>
    <path class="cls-1" d="M256,211.545A44.455,44.455,0,1,0,300.455,256,44.455,44.455,0,0,0,256,211.545Z"/>
    <path class="cls-2" d="M256,0C114.615,0,0,114.615,0,256S114.615,512,256,512,512,397.385,512,256,397.385,0,256,0ZM389.333,312.5A76.836,76.836,0,0,1,312.5,389.333H199.5A76.837,76.837,0,0,1,122.666,312.5V199.5A76.836,76.836,0,0,1,199.5,122.667H312.5A76.836,76.836,0,0,1,389.333,199.5Z"/>
  </symbol>

  <symbol xmlns="http://www.w3.org/2000/svg" viewBox="0 0 32 32" id="mirror">

    <title></title>

    <g id="mirroring_effect_effect_mirror_verticality_screen_editing_tool_reflect">

      <path d="M29,5H17V3a1,1,0,0,0-2,0V5H14a1,1,0,0,0,0,2h1V25H14a1,1,0,0,0,0,2h1v2a1,1,0,0,0,2,0V27H29a1,1,0,0,0,1-1V6A1,1,0,0,0,29,5ZM28,25H17V7H28Z"></path>

      <path d="M11,25H8a1,1,0,0,0,0,2h3a1,1,0,0,0,0-2Z"></path>

      <path d="M5,25H4V24a1,1,0,0,0-2,0v2a1,1,0,0,0,1,1H5a1,1,0,0,0,0-2Z"></path>

      <path d="M3,15.4a1,1,0,0,0,1-1V11.2a1,1,0,0,0-2,0v3.2A1,1,0,0,0,3,15.4Z"></path>

      <path d="M3,21.8a1,1,0,0,0,1-1V17.6a1,1,0,0,0-2,0v3.2A1,1,0,0,0,3,21.8Z"></path>

      <path d="M5,5H3A1,1,0,0,0,2,6V8A1,1,0,0,0,4,8V7H5A1,1,0,0,0,5,5Z"></path>

      <path d="M11,5H8A1,1,0,0,0,8,7h3a1,1,0,0,0,0-2Z"></path>

    </g>

  </symbol>

  <symbol id="right_arrow" xmlns="http://www.w3.org/2000/svg" xmlns:xlink="http://www.w3.org/1999/xlink" xml:space="preserve" viewBox="0 0 307.046 307.046">

      <g>

        <g id="_x34_84._Forward">

          <g>

            <path d="M239.087,142.427L101.259,4.597c-6.133-6.129-16.073-6.129-22.203,0L67.955,15.698c-6.129,6.133-6.129,16.076,0,22.201

          l115.621,115.626L67.955,269.135c-6.129,6.136-6.129,16.086,0,22.209l11.101,11.101c6.13,6.136,16.07,6.136,22.203,0

          l137.828-137.831C245.222,158.487,245.222,148.556,239.087,142.427z"></path>

          </g>

        </g>

      </g>

    <g></g>

    <g></g>

    <g></g>

    <g></g>

    <g></g>

    <g></g>

    <g></g>

    <g></g>

    <g></g>

    <g></g>

    <g></g>

    <g></g>

    <g></g>

    <g></g>

    <g></g>

    </symbol>

  <symbol enable-background="new 0 0 32 32" id="rotate" xml:space="preserve" xmlns="http://www.w3.org/2000/svg" xmlns:xlink="http://www.w3.org/1999/xlink" viewBox="0 0 32 32">

      <path d="M30.718,19.18c-0.544,3.932-2.587,7.414-5.752,9.81C22.357,30.961,19.247,32,16.032,32c-0.686,0-1.378-0.047-2.07-0.145  c-3.933-0.543-7.417-2.588-9.812-5.752c-0.521-0.688-0.987-1.427-1.382-2.192c-1.355-2.63-2.028-5.922-1.49-8.865  c0.112-0.612,0.708-1.133,1.329-1.03c0.597,0.095,1.001,0.743,0.945,1.344c-0.002,0.02-0.004,0.04-0.007,0.06  c-0.459,3.324,0.404,6.627,2.428,9.305c2.027,2.678,4.975,4.406,8.302,4.867c3.325,0.465,6.632-0.4,9.31-2.426  c2.679-2.027,4.407-4.975,4.868-8.3c0.342-2.461-0.044-4.942-1.118-7.172c-1.362-2.827-4.922-5.306-8.242-6.562l1.509,4.362  c0.252,0.73-0.308,1.517-1.082,1.517c-0.473,0-0.916-0.297-1.08-0.771c-0.113-0.342-1.995-5.852-2.171-6.288  c-0.237-0.587-0.026-1.417,0.636-1.646l6.479-2.243c0.597-0.208,1.248,0.11,1.454,0.707c0.207,0.596-0.109,1.248-0.706,1.453  L20.818,3.37c3.479,1.514,7.043,4.157,8.574,7.331C30.665,13.339,31.122,16.271,30.718,19.18z"></path>

    </symbol>

  <symbol id="scale" xmlns="http://www.w3.org/2000/svg" xmlns:xlink="http://www.w3.org/1999/xlink" xml:space="preserve" viewBox="0 0 459 459">

      <g>

        <g id="unknown-1">

          <path d="M408,0H51C22.95,0,0,22.95,0,51v357c0,28.05,22.95,51,51,51h357c28.05,0,51-22.95,51-51V51C459,22.95,436.05,0,408,0z

         M63.75,114.75h51v-51H153v51h51V153h-51v51h-38.25v-51h-51V114.75z M408,408H51L408,51V408z M357,357v-38.25H229.5V357H357z"></path>

        </g>

      </g>

    <g></g>

    <g></g>

    <g></g>

    <g></g>

    <g></g>

    <g></g>

    <g></g>

    <g></g>

    <g></g>

    <g></g>

    <g></g>

    <g></g>

    <g></g>

    <g></g>

    <g></g>

    </symbol>

</svg>
