<svg class="sprite" xmlns="http://www.w3.org/2000/svg">
  <symbol id="capacity-icon" viewBox="0 0 24 24">
    <path d="M3 16H2v6h6v-1H3zM16 3h5v5h1V2h-6zm5 18h-5v1h6v-6h-1zM8 2H2v6h1V3h5z"/>
    <path fill="none" d="M0 0h24v24H0z"/>
  </symbol>
  <symbol id="plus-minus-icon" viewBox="0 0 100 100">
    <path
      d="M14.714,90h68.619C86.999,90,90,86.999,90,83.333V14.714L14.714,90z M80,71.667H56.667V65H80V71.667z"/>
    <path d="M85.286,10H16.667C13.001,10,10,13.001,10,16.667v68.619L85.286,10z M20,28.333h8.333V20H35v8.333h8.333V35H35v8.333h-6.667
	V35H20V28.333z"/>
  </symbol>
  <symbol id="insta-icon" viewBox="0 0 227.6 227.6">
    <path class="cls-1"
          d="M169.06,15a43.6,43.6,0,0,1,43.55,43.55V169.06a43.59,43.59,0,0,1-43.55,43.55H58.55A43.6,43.6,0,0,1,15,169.06V58.55A43.6,43.6,0,0,1,58.55,15H169.06m0-15H58.55A58.56,58.56,0,0,0,0,58.55V169.06a58.55,58.55,0,0,0,58.55,58.55H169.06a58.55,58.55,0,0,0,58.55-58.55V58.55A58.55,58.55,0,0,0,169.06,0Z"/>
    <path class="cls-1"
          d="M113.81,77.38a36.43,36.43,0,1,1-36.43,36.43,36.47,36.47,0,0,1,36.43-36.43m0-15a51.43,51.43,0,1,0,51.42,51.43,51.44,51.44,0,0,0-51.42-51.43Z"/>
  </symbol>
  <symbol id="rotate-icon" viewBox="0 0 438.55 438.55">
    <path d="M427.408,19.697c-7.803-3.23-14.463-1.902-19.986,3.999l-37.116,36.834C349.94,41.305,326.672,26.412,300.5,15.848
		C274.328,5.285,247.251,0.003,219.271,0.003c-29.692,0-58.052,5.808-85.08,17.417c-27.03,11.61-50.347,27.215-69.951,46.82
		c-19.605,19.607-35.214,42.921-46.824,69.949C5.807,161.219,0,189.575,0,219.271c0,29.687,5.807,58.05,17.417,85.079
		c11.613,27.031,27.218,50.347,46.824,69.952c19.604,19.599,42.921,35.207,69.951,46.818c27.028,11.611,55.388,17.419,85.08,17.419
		c32.736,0,63.865-6.899,93.363-20.7c29.5-13.795,54.625-33.26,75.377-58.386c1.52-1.903,2.234-4.045,2.136-6.424
		c-0.089-2.378-0.999-4.329-2.711-5.852l-39.108-39.399c-2.101-1.711-4.473-2.566-7.139-2.566c-3.045,0.38-5.232,1.526-6.566,3.429
		c-13.895,18.086-30.93,32.072-51.107,41.977c-20.173,9.894-41.586,14.839-64.237,14.839c-19.792,0-38.684-3.854-56.671-11.564
		c-17.989-7.706-33.551-18.127-46.682-31.261c-13.13-13.135-23.551-28.691-31.261-46.682c-7.708-17.987-11.563-36.874-11.563-56.671
		c0-19.795,3.858-38.691,11.563-56.674c7.707-17.985,18.127-33.547,31.261-46.678c13.135-13.134,28.693-23.555,46.682-31.265
		c17.983-7.707,36.879-11.563,56.671-11.563c38.259,0,71.475,13.039,99.646,39.116l-39.409,39.394
		c-5.903,5.711-7.231,12.279-4.001,19.701c3.241,7.614,8.856,11.42,16.854,11.42h127.906c4.949,0,9.23-1.807,12.848-5.424
		c3.613-3.616,5.42-7.898,5.42-12.847V36.55C438.542,28.558,434.84,22.943,427.408,19.697z"/>
  </symbol>
  <symbol id="reflection-icon" viewBox="0 0 28 28">
    <path class="cls-1"
          d="M19.386,15.2105l9-7A1,1,0,0,1,30,9V23a1,1,0,0,1-1.614.79l-9-7a1,1,0,0,1,0-1.5791Z"/>
    <rect class="cls-1" height="28" transform="translate(32 32) rotate(-180)" width="2" x="15"
          y="2"/>
    <path class="cls-1"
          d="M13,16a1.001,1.001,0,0,1-.386.79l-9,7A1,1,0,0,1,2,23V9a1,1,0,0,1,1.614-.79l9,7A1.001,1.001,0,0,1,13,16ZM4,20.9556,10.3711,16,4,11.0444Z"/>
  </symbol>
</svg>
