<?xml version="1.0" encoding="utf-8"?>
<svg version="1.1" viewBox="0 0 48 48" xmlns="http://www.w3.org/2000/svg">
  <defs>
    <style><![CDATA[
      .sprite { display: none; }
      .sprite:target { display: inline; }
    ]]></style>

    <radialGradient id="radial0" gradientUnits="userSpaceOnUse" cx="-578.95" cy="-837.6" fx="-578.95" fy="-837.6" r="197.06" gradientTransform="matrix(-0.5625,0.000000000000000069,-0.000000000000000069,-0.5625,-326.625,-424.125)">
      <stop offset="0" style="stop-color:rgb(97.647059%,92.941176%,19.607843%);stop-opacity:1;"/>
      <stop offset="0.36" style="stop-color:rgb(93.333333%,16.470588%,48.235294%);stop-opacity:1;"/>
      <stop offset="0.44" style="stop-color:rgb(82.352941%,16.470588%,54.117647%);stop-opacity:1;"/>
      <stop offset="0.6" style="stop-color:rgb(54.509804%,16.470588%,69.803922%);stop-opacity:1;"/>
      <stop offset="0.83" style="stop-color:rgb(10.588235%,16.470588%,94.117647%);stop-opacity:1;"/>
      <stop offset="0.88" style="stop-color:rgb(0%,16.470588%,100%);stop-opacity:1;"/>
    </radialGradient>
  </defs>

  <g id="arrow-left" class="sprite">
    <rect x="0" y="0" width="48" height="48" style="fill:rgb(100%,100%,100%);fill-opacity:1;stroke:none;"/>
    <path style=" stroke:none;fill-rule:evenodd;fill:rgb(0%,0%,0%);fill-opacity:1;" d="M 31.8125 2.183594 L 9.996094 24 L 31.816406 45.816406 L 38.003906 39.632812 L 22.375 24 L 38.003906 8.371094 Z M 31.8125 2.183594 "/>
  </g>
  <g id="arrow-right" class="sprite">
    <rect x="0" y="0" width="48" height="48" style="fill:rgb(100%,100%,100%);fill-opacity:1;stroke:none;"/>
    <path style=" stroke:none;fill-rule:nonzero;fill:rgb(100%,100%,100%);fill-opacity:1;" d="M 45.816406 45.816406 L 2.183594 45.816406 L 2.183594 2.183594 L 45.816406 2.183594 Z M 45.816406 45.816406 "/>
    <path style=" stroke:none;fill-rule:evenodd;fill:rgb(0%,0%,0%);fill-opacity:1;" d="M 16.898438 43.832031 L 36.730469 24 L 16.894531 4.167969 L 11.269531 9.789062 L 25.476562 24 L 11.269531 38.207031 Z M 16.898438 43.832031 "/>
  </g>
  <g id="fill" class="sprite">
    <path d="M 36 0 L 0 0 L 0 36 L 3 33 L 3 3 L 33 3 Z M 36 0 "/>
    <path d="M 12 48 L 48 48 L 48 12 L 45 15 L 45 45 L 15 45 Z M 12 48 "/>
    <path d="M 21 27 L 6 27 L 11.398438 32.398438 L 0 43.800781 L 4.199219 48 L 15.601562 36.601562 L 21 42 Z M 21 27 "/>
    <path d="M 48 4.199219 L 43.800781 0 L 32.398438 11.398438 L 27 6 L 27 21 L 42 21 L 36.601562 15.601562 Z M 48 4.199219 "/>
  </g>

  <g id="scale" class="sprite">
    <path d="M 30 21 L 48 21 L 48 27 L 30 27 Z M 30 21 "/>
    <path d="M 12 15 L 6 15 L 6 21 L 0 21 L 0 27 L 6 27 L 6 33 L 12 33 L 12 27 L 18 27 L 18 21 L 12 21 Z M 12 15 "/>
    <path d="M 18 6 L 27 42 L 30 42 L 21 6 Z M 18 6 "/>
  </g>

  <g id="logo" class="sprite">
    <path style=" stroke:none;fill-rule:nonzero;fill:url(#radial0);" d="M 39.601562 48 L 8.398438 48 C 3.761719 48 0 44.238281 0 39.601562 L 0 8.398438 C 0 3.761719 3.761719 0 8.398438 0 L 39.601562 0 C 44.238281 0 48 3.761719 48 8.398438 L 48 39.601562 C 48 44.238281 44.238281 48 39.601562 48 Z M 39.601562 48 "/>
    <path style=" stroke:none;fill-rule:nonzero;fill:rgb(100%,100%,100%);fill-opacity:1;" d="M 33 42 L 15 42 C 10.03125 42 6 37.96875 6 33 L 6 15 C 6 10.03125 10.03125 6 15 6 L 33 6 C 37.96875 6 42 10.03125 42 15 L 42 33 C 42 37.96875 37.96875 42 33 42 Z M 15 9.601562 C 12.019531 9.605469 9.605469 12.019531 9.601562 15 L 9.601562 33 C 9.605469 35.980469 12.019531 38.394531 15 38.398438 L 33 38.398438 C 35.980469 38.394531 38.394531 35.980469 38.398438 33 L 38.398438 15 C 38.394531 12.019531 35.980469 9.605469 33 9.601562 Z M 15 9.601562 "/>
    <path style=" stroke:none;fill-rule:nonzero;fill:rgb(100%,100%,100%);fill-opacity:1;" d="M 24 34.199219 C 18.367188 34.199219 13.800781 29.632812 13.800781 24 C 13.800781 18.367188 18.367188 13.800781 24 13.800781 C 29.632812 13.800781 34.199219 18.367188 34.199219 24 C 34.195312 29.632812 29.632812 34.195312 24 34.199219 Z M 24 17.398438 C 20.355469 17.398438 17.398438 20.355469 17.398438 24 C 17.398438 27.644531 20.355469 30.601562 24 30.601562 C 27.644531 30.601562 30.601562 27.644531 30.601562 24 C 30.597656 20.355469 27.644531 17.402344 24 17.398438 Z M 24 17.398438 "/>
    <path style=" stroke:none;fill-rule:nonzero;fill:rgb(100%,100%,100%);fill-opacity:1;" d="M 36 14.398438 C 36 15.394531 35.195312 16.199219 34.199219 16.199219 C 33.207031 16.199219 32.398438 15.394531 32.398438 14.398438 C 32.398438 13.40625 33.207031 12.601562 34.199219 12.601562 C 35.195312 12.601562 36 13.40625 36 14.398438 Z M 36 14.398438 "/>
  </g>

  <g id="rotate" class="sprite">
    <path d="M 48 21 L 48 9 L 44.699219 12.300781 C 40.800781 4.800781 33 0 24 0 C 10.800781 0 0 10.800781 0 24 C 0 37.199219 10.800781 48 24 48 C 31.199219 48 37.800781 44.699219 42 39.601562 L 37.5 35.699219 C 34.199219 39.601562 29.398438 42 24 42 C 14.101562 42 6 33.898438 6 24 C 6 14.101562 14.101562 6 24 6 C 31.199219 6 37.5 10.5 40.5 16.5 L 36 21 Z M 48 21 "/>
  </g>

  <g id="flip" class="sprite">
    <path d="M 0 45 L 18 30 L 0 15.300781 Z M 0 45"/>
    <path d="M 27 30.300781 L 45 45 L 45 15 Z M 42 38.699219 L 31.800781 30.300781 L 42 21.300781 Z M 42 38.699219"/>
    <path d="M 21 15 L 24 15 L 24 18 L 21 18 Z M 21 15"/>
    <path d="M 21 9 L 24 9 L 24 12 L 21 12 Z M 21 9"/>
    <path d="M 21 21 L 24 21 L 24 24 L 21 24 Z M 21 21"/>
    <path d="M 21 27 L 24 27 L 24 30 L 21 30 Z M 21 27"/>
    <path d="M 21 33 L 24 33 L 24 36 L 21 36 Z M 21 33"/>
    <path d="M 21 39 L 24 39 L 24 42 L 21 42 Z M 21 39"/>
    <path d="M 21 45 L 24 45 L 24 48 L 21 48 Z M 21 45"/>
    <path d="M 22.5 3 C 26.398438 3 30.300781 5.101562 33.300781 8.699219 L 30 12 L 39 12 L 39 3
                 L 35.398438 6.601562 C 31.800781 2.398438 27.300781 0 22.5 0 C 16.800781 0 11.699219 3 7.800781 8.699219
                 L 10.199219 10.5 C 13.5 5.699219 17.699219 3 22.5 3 Z M 22.5 3"/>
  </g>
</svg>
