<?xml version="1.0" encoding="utf-8"?>
<!-- Generator: Adobe Illustrator 26.0.2, SVG Export Plug-In . SVG Version: 6.00 Build 0)  -->
<svg version="1.1" id="Слой_1" xmlns="http://www.w3.org/2000/svg" xmlns:xlink="http://www.w3.org/1999/xlink" x="0px" y="0px"
	 viewBox="0 0 24 24" style="enable-background:new 0 0 24 24;" xml:space="preserve">
<style type="text/css">
	.st0{fill:none;}
	.st1{fill:#595959;}
</style>
<g>
	<path class="st0" d="M0,0h24v24H0V0z"/>
	<path class="st1" d="M6,6h12v12H6V6z M6,2h2v3H6V2z M6,19h2v3H6V19z M2,6h3v2H2V6z M2,16h3v2H2V16z M19,6h3v2h-3V6z M19,16h3v2h-3
		V16z M16,2h2v3h-2V2z M16,19h2v3h-2V19z"/>
</g>
</svg>
