<?xml version="1.0" standalone="no"?>
<!DOCTYPE svg PUBLIC "-//W3C//DTD SVG 20010904//EN"
 "http://www.w3.org/TR/2001/REC-SVG-20010904/DTD/svg10.dtd">
<svg version="1.0" xmlns="http://www.w3.org/2000/svg"
 width="64.000000pt" height="64.000000pt" viewBox="0 0 64.000000 64.000000"
 preserveAspectRatio="xMidYMid meet">

<g transform="translate(0.000000,64.000000) scale(0.100000,-0.100000)"
fill="#000000" stroke="none">
<path d="M150 485 l-64 -65 64 -65 c50 -51 67 -62 77 -53 11 9 6 19 -29 55
l-42 43 172 0 172 0 0 -150 c0 -143 1 -150 20 -150 19 0 20 7 20 170 l0 170
-192 0 -192 0 43 44 c37 38 47 66 23 66 -4 0 -37 -29 -72 -65z"/>
</g>
</svg>
