<?xml version="1.0" standalone="no"?>
<!DOCTYPE svg PUBLIC "-//W3C//DTD SVG 20010904//EN"
 "http://www.w3.org/TR/2001/REC-SVG-20010904/DTD/svg10.dtd">
<svg version="1.0" xmlns="http://www.w3.org/2000/svg"
 width="64.000000pt" height="64.000000pt" viewBox="0 0 64.000000 64.000000"
 preserveAspectRatio="xMidYMid meet">

<g transform="translate(0.000000,64.000000) scale(0.100000,-0.100000)"
fill="#000000" stroke="none">
<path d="M184 338 c-60 -111 -110 -206 -112 -210 -2 -4 48 -8 112 -8 l116 0 0
210 c0 116 -1 210 -3 210 -2 0 -52 -91 -113 -202z m76 -68 l0 -110 -60 0 c-33
0 -60 3 -60 6 0 9 111 214 116 214 2 0 4 -49 4 -110z"/>
<path d="M340 332 l0 -212 115 0 c63 0 115 1 115 3 0 5 -221 411 -226 416 -2
2 -4 -91 -4 -207z"/>
</g>
</svg>
