<?xml version="1.0" standalone="no"?>
<!DOCTYPE svg PUBLIC "-//W3C//DTD SVG 20010904//EN"
 "http://www.w3.org/TR/2001/REC-SVG-20010904/DTD/svg10.dtd">
<svg version="1.0" xmlns="http://www.w3.org/2000/svg"
 width="64.000000pt" height="64.000000pt" viewBox="0 0 64.000000 64.000000"
 preserveAspectRatio="xMidYMid meet">

<g transform="translate(0.000000,64.000000) scale(0.100000,-0.100000)"
fill="#000000" stroke="none">
<path d="M197 629 c-115 -28 -190 -122 -190 -239 0 -66 18 -113 64 -165 67
-76 190 -100 284 -55 37 18 48 20 60 10 8 -7 15 -18 15 -24 0 -17 133 -146
151 -146 19 0 49 31 49 51 0 17 -130 149 -147 149 -6 0 -16 7 -23 15 -10 12
-8 23 10 60 44 91 22 213 -51 282 -58 55 -148 80 -222 62z m164 -37 c134 -70
161 -257 52 -365 -109 -109 -295 -82 -366 53 -25 48 -28 64 -25 121 9 175 183
273 339 191z m95 -373 c10 -17 -23 -46 -38 -31 -8 8 -8 15 2 27 15 18 26 19
36 4z m101 -82 c35 -35 63 -69 63 -75 0 -12 -27 -42 -38 -42 -4 0 -39 31 -77
70 -68 68 -68 70 -50 90 10 11 23 20 28 20 6 0 39 -28 74 -63z"/>
<path d="M201 569 c-45 -14 -77 -36 -101 -69 -22 -31 -43 -110 -29 -110 5 0 9
13 9 29 0 36 36 89 79 118 26 17 48 23 91 23 62 0 106 -22 143 -72 24 -33 33
-114 18 -161 -16 -48 -72 -95 -121 -103 -22 -4 -40 -11 -40 -15 0 -11 43 -2
88 19 70 32 112 127 91 204 -15 57 -43 95 -88 117 -49 25 -98 32 -140 20z"/>
<path d="M240 445 l0 -45 -45 0 c-25 0 -45 -4 -45 -10 0 -5 20 -10 45 -10 l45
0 0 -45 c0 -25 5 -45 10 -45 6 0 10 20 10 45 l0 45 45 0 c25 0 45 5 45 10 0 6
-20 10 -45 10 l-45 0 0 45 c0 25 -4 45 -10 45 -5 0 -10 -20 -10 -45z"/>
<path d="M78 343 c7 -3 16 -2 19 1 4 3 -2 6 -13 5 -11 0 -14 -3 -6 -6z"/>
<path d="M201 224 c0 -11 3 -14 6 -6 3 7 2 16 -1 19 -3 4 -6 -2 -5 -13z"/>
</g>
</svg>
