<?xml version="1.0" standalone="no"?>
<!DOCTYPE svg PUBLIC "-//W3C//DTD SVG 20010904//EN"
 "http://www.w3.org/TR/2001/REC-SVG-20010904/DTD/svg10.dtd">
<svg version="1.0" xmlns="http://www.w3.org/2000/svg"
 width="64.000000pt" height="64.000000pt" viewBox="0 0 64.000000 64.000000"
 preserveAspectRatio="xMidYMid meet">

<g transform="translate(0.000000,64.000000) scale(0.100000,-0.100000)"
fill="#000000" stroke="none">
<path d="M80 480 c0 -73 2 -80 20 -80 18 0 20 7 20 60 l0 60 60 0 c53 0 60 2
60 20 0 18 -7 20 -80 20 l-80 0 0 -80z"/>
<path d="M400 540 c0 -18 7 -20 60 -20 l60 0 0 -60 c0 -53 2 -60 20 -60 18 0
20 7 20 80 l0 80 -80 0 c-73 0 -80 -2 -80 -20z"/>
<path d="M304 329 c-10 -17 13 -36 27 -22 12 12 4 33 -11 33 -5 0 -12 -5 -16
-11z"/>
<path d="M80 160 l0 -80 80 0 c73 0 80 2 80 20 0 18 -7 20 -60 20 l-60 0 0 60
c0 53 -2 60 -20 60 -18 0 -20 -7 -20 -80z"/>
<path d="M520 180 l0 -60 -60 0 c-53 0 -60 -2 -60 -20 0 -18 7 -20 80 -20 l80
0 0 80 c0 73 -2 80 -20 80 -18 0 -20 -7 -20 -60z"/>
</g>
</svg>
