<svg id="Слой_1" data-name="Слой 1" xmlns="http://www.w3.org/2000/svg" viewBox="0 0 639.24 491.7"><defs><style>.cls-1{fill:#595959;}</style></defs><path class="cls-1" d="M-31.2,672.29V356.46L219.44,514.38Z" transform="translate(31.2 -269.58)"/><path class="cls-1" d="M357.66,514.39,608,356.61v315.5Zm103.92,0,93.65,59.06V455.32Z" transform="translate(31.2 -269.58)"/><path class="cls-1" d="M320.67,337.86h-21c-13.81,0-27.62-.14-41.42,0-3.51,0-5.07-.7-5-4.64q.26-29.45,0-58.89c0-3.83,1.33-4.78,4.94-4.75,19.47.14,38.93.09,58.4,0,2.77,0,4.72.14,4.7,3.88-.16,20.63-.09,41.26-.12,61.89A18.34,18.34,0,0,1,320.67,337.86Z" transform="translate(31.2 -269.58)"/><path class="cls-1" d="M321.27,375.85c0,7.89,0,15.36,0,22.82,0,13.48-.09,27,0,40.44,0,3-.5,4.61-4,4.59-20-.11-39.93-.07-59.9,0-2.64,0-4-.78-4-3.67q.13-31.44.19-62.88a4.93,4.93,0,0,1,.52-1.29Z" transform="translate(31.2 -269.58)"/><path class="cls-1" d="M320.91,655.07h-67.3c-.13-1.57-.37-3-.37-4.46,0-19.32.13-38.64,0-58,0-3.93.87-5.62,5.24-5.57q28.72.33,57.45,0c4.11,0,5.41,1.17,5.38,5.35-.18,19.48-.05,39-.05,58.45C321.26,652.2,321.05,653.49,320.91,655.07Z" transform="translate(31.2 -269.58)"/><path class="cls-1" d="M321.27,727.69c0,9.65-.12,19.3.07,28.95.06,3.44-1,4.66-4.53,4.63q-29.44-.19-58.9,0c-3.85,0-4.78-1.47-4.75-5q.19-29.21,0-58.41c0-3.67,1.14-4.88,4.88-4.85q29.2.24,58.41,0c3.63,0,5,.93,4.89,4.75C321.12,707.72,321.28,717.7,321.27,727.69Z" transform="translate(31.2 -269.58)"/><path class="cls-1" d="M321.28,482.24c0,5.29,0,10.74,0,16.19,0,15.5-.14,31,0,46.49,0,3.49-.93,4.63-4.47,4.61q-29.49-.22-59,0c-3.39,0-4.66-.89-4.63-4.49.16-19.67.09-39.33.09-59,0-2.42-.18-4.62,3.46-4.6,20.83.12,41.66.09,62.49.13A9.35,9.35,0,0,1,321.28,482.24Z" transform="translate(31.2 -269.58)"/></svg>