<svg id="svg" version="1.1" xmlns="http://www.w3.org/2000/svg" xmlns:xlink="http://www.w3.org/1999/xlink" width="400" height="400" viewBox="0, 0, 400,400"><g id="svgg"><path id="path0" d="M190.400 6.400 C 190.400 6.637,188.933 6.800,186.800 6.800 C 184.667 6.800,183.200 6.963,183.200 7.200 C 183.200 7.429,182.000 7.600,180.400 7.600 C 178.860 7.600,177.600 7.761,177.600 7.958 C 177.600 8.154,175.979 8.443,173.997 8.600 C 172.016 8.757,170.295 9.046,170.174 9.243 C 170.052 9.439,169.344 9.600,168.600 9.600 C 167.856 9.600,167.136 9.780,167.000 10.000 C 166.864 10.220,166.371 10.400,165.905 10.400 C 165.110 10.400,163.233 10.909,161.400 11.622 C 160.960 11.793,159.745 12.167,158.700 12.454 C 157.655 12.740,156.800 13.115,156.800 13.287 C 156.800 13.459,156.260 13.600,155.600 13.600 C 154.940 13.600,154.400 13.780,154.400 14.000 C 154.400 14.220,153.860 14.400,153.200 14.400 C 152.540 14.400,152.000 14.580,152.000 14.800 C 152.000 15.020,151.561 15.200,151.024 15.200 C 150.487 15.200,149.936 15.380,149.800 15.600 C 149.664 15.820,149.203 16.000,148.776 16.000 C 148.349 16.000,148.000 16.180,148.000 16.400 C 148.000 16.620,147.640 16.800,147.200 16.800 C 146.760 16.800,146.400 16.980,146.400 17.200 C 146.400 17.420,146.040 17.600,145.600 17.600 C 145.160 17.600,144.800 17.780,144.800 18.000 C 144.800 18.220,144.350 18.400,143.800 18.400 C 143.250 18.400,142.800 18.580,142.800 18.800 C 142.800 19.020,142.440 19.200,142.000 19.200 C 141.560 19.200,141.200 19.380,141.200 19.600 C 141.200 19.820,140.840 20.000,140.400 20.000 C 139.960 20.000,139.600 20.180,139.600 20.400 C 139.600 20.620,139.364 20.800,139.075 20.800 C 138.787 20.800,138.164 21.160,137.692 21.600 C 137.220 22.040,136.556 22.400,136.217 22.400 C 135.878 22.400,135.600 22.580,135.600 22.800 C 135.600 23.020,135.240 23.200,134.800 23.200 C 134.360 23.200,134.000 23.380,134.000 23.600 C 134.000 23.820,133.640 24.000,133.200 24.000 C 132.760 24.000,132.400 24.180,132.400 24.400 C 132.400 24.620,132.243 24.800,132.050 24.800 C 131.753 24.800,130.035 25.736,127.271 27.405 C 125.418 28.523,124.137 29.448,123.553 30.090 C 123.197 30.480,122.684 30.800,122.414 30.800 C 122.143 30.800,121.417 31.340,120.800 32.000 C 120.183 32.660,119.463 33.200,119.200 33.200 C 118.937 33.200,118.217 33.740,117.600 34.400 C 116.983 35.060,116.305 35.600,116.093 35.600 C 115.881 35.600,114.713 36.545,113.498 37.700 C 112.283 38.855,110.513 40.430,109.563 41.200 C 107.158 43.151,99.600 50.745,99.600 51.211 C 99.600 51.422,98.520 52.692,97.200 54.032 C 95.880 55.373,94.800 56.642,94.800 56.853 C 94.800 57.064,94.350 57.686,93.800 58.236 C 93.250 58.786,92.800 59.381,92.800 59.559 C 92.800 59.736,92.260 60.446,91.600 61.137 C 90.940 61.828,90.400 62.625,90.400 62.908 C 90.400 63.191,90.040 63.683,89.600 64.000 C 89.160 64.317,88.800 64.857,88.800 65.200 C 88.800 65.543,88.440 66.083,88.000 66.400 C 87.560 66.717,87.200 67.257,87.200 67.600 C 87.200 67.943,86.840 68.483,86.400 68.800 C 85.960 69.117,85.600 69.614,85.600 69.905 C 85.600 70.196,85.240 70.820,84.800 71.292 C 84.360 71.764,84.000 72.387,84.000 72.675 C 84.000 72.964,83.820 73.200,83.600 73.200 C 83.380 73.200,83.200 73.560,83.200 74.000 C 83.200 74.440,83.054 74.800,82.875 74.800 C 82.696 74.800,82.302 75.430,82.000 76.200 C 81.698 76.970,81.304 77.600,81.125 77.600 C 80.946 77.600,80.800 77.960,80.800 78.400 C 80.800 78.840,80.620 79.200,80.400 79.200 C 80.180 79.200,80.000 79.560,80.000 80.000 C 80.000 80.440,79.820 80.800,79.600 80.800 C 79.380 80.800,79.200 81.160,79.200 81.600 C 79.200 82.040,79.020 82.400,78.800 82.400 C 78.580 82.400,78.400 82.760,78.400 83.200 C 78.400 83.640,78.220 84.000,78.000 84.000 C 77.780 84.000,77.600 84.236,77.600 84.525 C 77.600 84.814,77.240 85.795,76.800 86.706 C 76.360 87.616,76.000 88.629,76.000 88.957 C 76.000 89.285,75.837 89.654,75.637 89.777 C 75.001 90.170,74.720 93.816,75.191 95.566 C 76.560 100.651,83.869 102.351,87.878 98.518 C 88.385 98.033,88.800 97.358,88.800 97.018 C 88.800 96.678,88.980 96.400,89.200 96.400 C 89.420 96.400,89.600 96.040,89.600 95.600 C 89.600 95.160,89.780 94.800,90.000 94.800 C 90.220 94.800,90.400 94.551,90.400 94.246 C 90.400 93.941,90.669 93.176,90.998 92.546 C 91.326 91.916,91.596 91.085,91.598 90.700 C 91.599 90.315,91.780 90.000,92.000 90.000 C 92.220 90.000,92.400 89.565,92.400 89.033 C 92.400 88.502,92.535 88.007,92.700 87.933 C 93.076 87.766,94.375 85.636,94.671 84.700 C 94.793 84.315,95.052 84.000,95.247 84.000 C 95.441 84.000,95.600 83.640,95.600 83.200 C 95.600 82.760,95.780 82.400,96.000 82.400 C 96.220 82.400,96.400 82.040,96.400 81.600 C 96.400 81.160,96.580 80.800,96.800 80.800 C 97.020 80.800,97.200 80.480,97.200 80.088 C 97.200 79.697,97.560 79.117,98.000 78.800 C 98.440 78.483,98.800 77.943,98.800 77.600 C 98.800 77.257,99.160 76.717,99.600 76.400 C 100.040 76.083,100.400 75.595,100.400 75.316 C 100.400 75.037,100.715 74.432,101.100 73.971 C 101.485 73.510,102.205 72.653,102.700 72.066 C 103.194 71.480,103.599 70.863,103.600 70.696 C 103.600 70.529,104.140 69.828,104.800 69.137 C 105.460 68.446,106.000 67.729,106.000 67.544 C 106.000 67.192,107.156 65.742,108.700 64.159 C 109.195 63.652,109.600 63.053,109.600 62.829 C 109.600 62.605,110.869 61.201,112.421 59.711 C 113.973 58.220,116.760 55.515,118.615 53.700 C 120.471 51.885,122.093 50.400,122.220 50.400 C 122.348 50.400,123.329 49.500,124.400 48.400 C 125.471 47.300,126.558 46.400,126.814 46.400 C 127.070 46.400,127.783 45.860,128.400 45.200 C 129.017 44.540,129.743 44.000,130.014 44.000 C 130.284 44.000,130.802 43.659,131.164 43.242 C 131.837 42.466,133.074 41.677,136.600 39.776 C 137.700 39.182,138.690 38.585,138.800 38.448 C 138.910 38.311,139.492 37.945,140.093 37.635 C 140.695 37.326,141.542 36.741,141.977 36.336 C 142.411 35.931,143.044 35.600,143.383 35.600 C 143.722 35.600,144.000 35.420,144.000 35.200 C 144.000 34.980,144.360 34.800,144.800 34.800 C 145.240 34.800,145.600 34.620,145.600 34.400 C 145.600 34.180,145.960 34.000,146.400 34.000 C 146.840 34.000,147.200 33.820,147.200 33.600 C 147.200 33.380,147.560 33.200,148.000 33.200 C 148.440 33.200,148.800 33.020,148.800 32.800 C 148.800 32.580,149.160 32.400,149.600 32.400 C 150.040 32.400,150.400 32.220,150.400 32.000 C 150.400 31.780,150.672 31.600,151.005 31.600 C 151.338 31.600,151.968 31.420,152.405 31.200 C 152.842 30.980,153.558 30.620,153.995 30.400 C 154.432 30.180,155.062 30.000,155.395 30.000 C 155.728 30.000,156.000 29.820,156.000 29.600 C 156.000 29.380,156.360 29.200,156.800 29.200 C 157.240 29.200,157.600 29.020,157.600 28.800 C 157.600 28.580,158.050 28.400,158.600 28.400 C 159.150 28.400,159.600 28.220,159.600 28.000 C 159.600 27.780,160.140 27.600,160.800 27.600 C 161.460 27.600,162.000 27.420,162.000 27.200 C 162.000 26.980,162.540 26.800,163.200 26.800 C 163.860 26.800,164.400 26.620,164.400 26.400 C 164.400 26.180,164.940 26.000,165.600 26.000 C 166.260 26.000,166.800 25.820,166.800 25.600 C 166.800 25.380,167.386 25.200,168.103 25.200 C 168.819 25.200,170.034 25.002,170.803 24.759 C 172.714 24.156,175.442 23.584,177.600 23.332 C 178.590 23.217,179.571 22.960,179.780 22.761 C 179.989 22.563,181.078 22.400,182.200 22.400 C 183.322 22.400,184.411 22.233,184.620 22.028 C 185.833 20.841,214.167 20.841,215.380 22.028 C 215.589 22.233,216.703 22.400,217.856 22.400 C 219.009 22.400,220.064 22.580,220.200 22.800 C 220.336 23.020,221.099 23.200,221.895 23.200 C 222.692 23.200,223.896 23.371,224.572 23.580 C 227.484 24.482,230.745 25.200,231.926 25.200 C 232.627 25.200,233.200 25.380,233.200 25.600 C 233.200 25.820,233.740 26.000,234.400 26.000 C 235.060 26.000,235.600 26.180,235.600 26.400 C 235.600 26.620,236.140 26.800,236.800 26.800 C 237.460 26.800,238.000 26.980,238.000 27.200 C 238.000 27.420,238.540 27.600,239.200 27.600 C 239.860 27.600,240.400 27.780,240.400 28.000 C 240.400 28.220,240.850 28.400,241.400 28.400 C 241.950 28.400,242.400 28.580,242.400 28.800 C 242.400 29.020,242.760 29.200,243.200 29.200 C 243.640 29.200,244.000 29.380,244.000 29.600 C 244.000 29.820,244.349 30.000,244.776 30.000 C 245.203 30.000,245.664 30.180,245.800 30.400 C 245.936 30.620,246.487 30.800,247.024 30.800 C 247.561 30.800,248.000 30.980,248.000 31.200 C 248.000 31.420,248.360 31.600,248.800 31.600 C 249.240 31.600,249.600 31.780,249.600 32.000 C 249.600 32.220,249.960 32.400,250.400 32.400 C 250.840 32.400,251.200 32.580,251.200 32.800 C 251.200 33.020,251.560 33.200,252.000 33.200 C 252.440 33.200,252.800 33.380,252.800 33.600 C 252.800 33.820,253.160 34.000,253.600 34.000 C 254.040 34.000,254.400 34.180,254.400 34.400 C 254.400 34.620,254.760 34.800,255.200 34.800 C 255.640 34.800,256.000 34.980,256.000 35.200 C 256.000 35.420,256.294 35.600,256.653 35.600 C 257.012 35.600,257.597 35.916,257.953 36.303 C 258.309 36.689,259.140 37.274,259.800 37.602 C 260.460 37.930,261.090 38.311,261.200 38.448 C 261.310 38.585,262.314 39.173,263.431 39.754 C 264.548 40.336,265.845 41.169,266.314 41.606 C 266.783 42.043,267.404 42.400,267.695 42.400 C 267.986 42.400,268.483 42.760,268.800 43.200 C 269.117 43.640,269.625 44.000,269.928 44.000 C 270.231 44.000,270.983 44.540,271.600 45.200 C 272.217 45.860,272.890 46.400,273.097 46.400 C 273.492 46.400,274.784 47.549,281.535 53.906 C 288.883 60.827,290.400 62.348,290.400 62.796 C 290.400 63.038,290.805 63.670,291.300 64.199 C 292.423 65.400,292.779 65.849,293.992 67.600 C 294.525 68.370,295.242 69.270,295.584 69.600 C 295.926 69.930,296.460 70.695,296.770 71.300 C 297.081 71.905,297.485 72.400,297.668 72.400 C 297.850 72.400,298.000 72.604,298.000 72.853 C 298.000 73.102,298.316 73.597,298.703 73.953 C 299.089 74.309,299.660 75.095,299.970 75.700 C 300.281 76.305,300.685 76.800,300.868 76.800 C 301.050 76.800,301.200 77.160,301.200 77.600 C 301.200 78.040,301.380 78.400,301.600 78.400 C 301.820 78.400,302.000 78.636,302.000 78.925 C 302.000 79.213,302.360 79.836,302.800 80.308 C 303.240 80.780,303.600 81.444,303.600 81.783 C 303.600 82.122,303.780 82.400,304.000 82.400 C 304.220 82.400,304.400 82.760,304.400 83.200 C 304.400 83.640,304.580 84.000,304.800 84.000 C 305.020 84.000,305.200 84.345,305.200 84.767 C 305.200 85.188,305.341 85.593,305.512 85.667 C 306.529 86.100,307.167 88.600,306.297 88.739 C 305.818 88.816,305.360 88.681,305.280 88.439 C 305.199 88.198,304.428 88.000,303.567 88.000 C 302.705 88.000,302.000 87.820,302.000 87.600 C 302.000 87.380,301.381 87.200,300.624 87.200 C 299.867 87.200,299.136 87.020,299.000 86.800 C 298.864 86.580,298.223 86.400,297.576 86.400 C 296.929 86.400,296.400 86.220,296.400 86.000 C 296.400 85.780,295.680 85.600,294.800 85.600 C 293.920 85.600,293.200 85.420,293.200 85.200 C 293.200 84.980,292.581 84.800,291.824 84.800 C 291.067 84.800,290.336 84.620,290.200 84.400 C 290.064 84.180,289.434 84.000,288.800 84.000 C 288.166 84.000,287.536 83.820,287.400 83.600 C 287.264 83.380,286.623 83.200,285.976 83.200 C 285.329 83.200,284.800 83.020,284.800 82.800 C 284.800 82.580,284.080 82.400,283.200 82.400 C 282.320 82.400,281.600 82.220,281.600 82.000 C 281.600 81.780,280.880 81.600,280.000 81.600 C 279.120 81.600,278.400 81.420,278.400 81.200 C 278.400 80.980,277.871 80.800,277.224 80.800 C 276.577 80.800,275.936 80.620,275.800 80.400 C 275.664 80.180,275.034 80.000,274.400 80.000 C 273.766 80.000,273.136 79.820,273.000 79.600 C 272.864 79.380,272.101 79.200,271.305 79.200 C 270.508 79.200,269.265 78.986,268.543 78.725 C 267.560 78.370,266.998 78.363,266.314 78.700 C 265.811 78.947,265.040 79.256,264.600 79.386 C 261.538 80.291,259.342 85.912,260.901 88.854 C 261.815 90.578,263.343 92.400,263.875 92.400 C 264.164 92.400,264.400 92.580,264.400 92.800 C 264.400 93.020,264.940 93.200,265.600 93.200 C 266.260 93.200,266.800 93.380,266.800 93.600 C 266.800 93.820,267.520 94.000,268.400 94.000 C 269.280 94.000,270.000 94.180,270.000 94.400 C 270.000 94.620,270.720 94.800,271.600 94.800 C 272.480 94.800,273.200 94.980,273.200 95.200 C 273.200 95.420,273.740 95.600,274.400 95.600 C 275.060 95.600,275.600 95.780,275.600 96.000 C 275.600 96.220,276.230 96.400,277.000 96.400 C 277.770 96.400,278.400 96.580,278.400 96.800 C 278.400 97.020,279.120 97.200,280.000 97.200 C 280.880 97.200,281.600 97.380,281.600 97.600 C 281.600 97.820,282.219 98.000,282.976 98.000 C 283.733 98.000,284.464 98.180,284.600 98.400 C 284.736 98.620,285.377 98.800,286.024 98.800 C 286.671 98.800,287.200 98.980,287.200 99.200 C 287.200 99.420,287.920 99.600,288.800 99.600 C 289.680 99.600,290.400 99.780,290.400 100.000 C 290.400 100.220,291.019 100.400,291.776 100.400 C 292.533 100.400,293.264 100.580,293.400 100.800 C 293.536 101.020,294.166 101.200,294.800 101.200 C 295.434 101.200,296.064 101.380,296.200 101.600 C 296.336 101.820,296.966 102.000,297.600 102.000 C 298.234 102.000,298.864 102.180,299.000 102.400 C 299.136 102.620,299.867 102.800,300.624 102.800 C 301.381 102.800,302.000 102.980,302.000 103.200 C 302.000 103.420,302.720 103.600,303.600 103.600 C 304.480 103.600,305.200 103.780,305.200 104.000 C 305.200 104.220,305.592 104.400,306.072 104.400 C 306.992 104.400,309.328 105.060,310.495 105.649 C 310.877 105.842,311.721 106.000,312.371 106.000 C 313.021 106.000,313.664 106.180,313.800 106.400 C 313.936 106.620,314.656 106.800,315.400 106.800 C 316.144 106.800,316.864 106.980,317.000 107.200 C 318.096 108.973,326.000 106.385,326.000 104.253 C 326.000 103.894,326.180 103.600,326.400 103.600 C 326.620 103.600,326.800 102.880,326.800 102.000 C 326.800 101.120,326.980 100.400,327.200 100.400 C 327.420 100.400,327.600 99.680,327.600 98.800 C 327.600 97.920,327.780 97.200,328.000 97.200 C 328.220 97.200,328.400 96.480,328.400 95.600 C 328.400 94.720,328.580 94.000,328.800 94.000 C 329.020 94.000,329.200 93.370,329.200 92.600 C 329.200 91.830,329.380 91.200,329.600 91.200 C 329.820 91.200,330.000 90.570,330.000 89.800 C 330.000 89.030,330.180 88.400,330.400 88.400 C 330.620 88.400,330.800 87.770,330.800 87.000 C 330.800 86.230,330.980 85.600,331.200 85.600 C 331.420 85.600,331.600 84.880,331.600 84.000 C 331.600 83.120,331.760 82.400,331.956 82.400 C 332.152 82.400,332.422 81.770,332.556 81.000 C 332.690 80.230,332.910 78.970,333.044 78.200 C 333.178 77.430,333.448 76.800,333.644 76.800 C 333.840 76.800,334.000 76.181,334.000 75.424 C 334.000 74.667,334.180 73.936,334.400 73.800 C 334.620 73.664,334.800 72.933,334.800 72.176 C 334.800 71.419,334.980 70.800,335.200 70.800 C 335.420 70.800,335.600 70.181,335.600 69.424 C 335.600 68.667,335.780 67.936,336.000 67.800 C 336.220 67.664,336.400 67.034,336.400 66.400 C 336.400 65.766,336.580 65.136,336.800 65.000 C 337.020 64.864,337.200 64.133,337.200 63.376 C 337.200 62.619,337.380 62.000,337.600 62.000 C 337.820 62.000,338.000 61.280,338.000 60.400 C 338.000 59.520,338.180 58.800,338.400 58.800 C 338.620 58.800,338.800 58.271,338.800 57.624 C 338.800 56.977,338.960 56.348,339.156 56.227 C 339.351 56.106,339.613 55.421,339.736 54.704 C 339.859 53.987,340.159 52.230,340.402 50.800 C 341.195 46.130,340.205 43.498,337.093 41.994 C 334.210 40.601,331.333 40.915,328.296 42.956 C 326.623 44.079,324.800 48.945,324.800 52.284 C 324.800 53.008,324.620 53.600,324.400 53.600 C 324.180 53.600,324.000 54.140,324.000 54.800 C 324.000 55.460,323.820 56.000,323.600 56.000 C 323.380 56.000,323.200 56.720,323.200 57.600 C 323.200 58.480,323.020 59.200,322.800 59.200 C 322.580 59.200,322.400 59.830,322.400 60.600 C 322.400 61.370,322.220 62.000,322.000 62.000 C 321.780 62.000,321.600 62.619,321.600 63.376 C 321.600 64.133,321.420 64.864,321.200 65.000 C 320.980 65.136,320.800 65.777,320.800 66.424 C 320.800 67.071,320.620 67.600,320.400 67.600 C 320.180 67.600,320.000 68.320,320.000 69.200 C 320.000 70.080,319.820 70.800,319.600 70.800 C 319.380 70.800,319.200 71.520,319.200 72.400 C 319.200 73.280,319.031 74.000,318.825 74.000 C 318.619 74.000,318.385 74.585,318.306 75.300 C 318.180 76.431,318.115 76.496,317.808 75.800 C 317.614 75.360,317.128 74.709,316.728 74.353 C 316.327 73.997,316.000 73.412,316.000 73.053 C 316.000 72.694,315.820 72.400,315.600 72.400 C 315.380 72.400,315.200 72.040,315.200 71.600 C 315.200 71.160,315.020 70.800,314.800 70.800 C 314.580 70.800,314.400 70.564,314.400 70.275 C 314.400 69.987,314.085 69.402,313.700 68.975 C 313.315 68.549,312.745 67.705,312.432 67.100 C 312.120 66.495,311.715 66.000,311.532 66.000 C 311.350 66.000,311.200 65.764,311.200 65.475 C 311.200 65.187,310.840 64.564,310.400 64.092 C 309.960 63.620,309.600 63.091,309.599 62.917 C 309.599 62.743,309.059 61.970,308.400 61.200 C 307.741 60.430,307.201 59.688,307.201 59.550 C 307.200 59.413,306.570 58.613,305.800 57.772 C 305.030 56.931,304.400 56.089,304.400 55.900 C 304.400 55.710,303.320 54.496,302.000 53.200 C 300.680 51.904,299.600 50.667,299.600 50.449 C 299.600 49.862,289.989 40.400,289.392 40.400 C 289.289 40.400,288.108 39.320,286.768 38.000 C 285.427 36.680,284.164 35.600,283.961 35.600 C 283.759 35.600,283.028 35.060,282.337 34.400 C 281.646 33.740,280.910 33.200,280.701 33.200 C 280.492 33.200,279.817 32.660,279.200 32.000 C 278.583 31.340,277.831 30.800,277.528 30.800 C 277.225 30.800,276.717 30.440,276.400 30.000 C 276.083 29.560,275.627 29.200,275.387 29.200 C 275.147 29.200,274.592 28.885,274.154 28.500 C 273.285 27.738,272.698 27.354,270.050 25.816 C 269.087 25.257,268.142 24.800,267.950 24.800 C 267.757 24.800,267.600 24.620,267.600 24.400 C 267.600 24.180,267.240 24.000,266.800 24.000 C 266.360 24.000,266.000 23.820,266.000 23.600 C 266.000 23.380,265.640 23.200,265.200 23.200 C 264.760 23.200,264.400 23.020,264.400 22.800 C 264.400 22.580,264.164 22.400,263.875 22.400 C 263.587 22.400,262.964 22.040,262.492 21.600 C 262.020 21.160,261.356 20.800,261.017 20.800 C 260.678 20.800,260.400 20.620,260.400 20.400 C 260.400 20.180,260.051 20.000,259.624 20.000 C 259.197 20.000,258.736 19.820,258.600 19.600 C 258.464 19.380,258.003 19.200,257.576 19.200 C 257.149 19.200,256.800 19.020,256.800 18.800 C 256.800 18.580,256.440 18.400,256.000 18.400 C 255.560 18.400,255.200 18.220,255.200 18.000 C 255.200 17.780,254.840 17.600,254.400 17.600 C 253.960 17.600,253.600 17.420,253.600 17.200 C 253.600 16.980,253.240 16.800,252.800 16.800 C 252.360 16.800,252.000 16.620,252.000 16.400 C 252.000 16.180,251.460 16.000,250.800 16.000 C 250.140 16.000,249.600 15.820,249.600 15.600 C 249.600 15.380,249.240 15.200,248.800 15.200 C 248.360 15.200,248.000 15.020,248.000 14.800 C 248.000 14.580,247.460 14.400,246.800 14.400 C 246.140 14.400,245.600 14.220,245.600 14.000 C 245.600 13.780,245.060 13.600,244.400 13.600 C 243.740 13.600,243.200 13.420,243.200 13.200 C 243.200 12.980,242.761 12.800,242.224 12.800 C 241.687 12.800,241.136 12.620,241.000 12.400 C 240.864 12.180,240.324 12.000,239.800 12.000 C 239.276 12.000,238.736 11.820,238.600 11.600 C 238.464 11.380,237.924 11.200,237.400 11.200 C 236.876 11.200,236.336 11.020,236.200 10.800 C 236.064 10.580,235.344 10.400,234.600 10.400 C 233.856 10.400,233.148 10.239,233.026 10.042 C 232.905 9.845,232.129 9.590,231.303 9.475 C 230.476 9.360,228.990 9.078,228.000 8.850 C 227.010 8.622,225.345 8.427,224.300 8.417 C 223.255 8.408,222.400 8.220,222.400 8.000 C 222.400 7.778,221.341 7.600,220.024 7.600 C 218.717 7.600,217.536 7.420,217.400 7.200 C 217.263 6.979,215.463 6.800,213.376 6.800 C 211.125 6.800,209.600 6.638,209.600 6.400 C 209.600 6.144,206.133 6.000,200.000 6.000 C 193.867 6.000,190.400 6.144,190.400 6.400 M198.800 72.800 C 198.800 73.020,198.260 73.200,197.600 73.200 C 196.940 73.200,196.400 73.380,196.400 73.600 C 196.400 73.820,196.117 74.000,195.771 74.000 C 193.032 74.000,191.122 84.093,192.900 89.172 C 193.520 90.943,195.698 93.200,196.787 93.200 C 197.234 93.200,197.600 93.380,197.600 93.600 C 197.600 93.822,198.667 94.000,200.000 94.000 C 201.333 94.000,202.400 93.822,202.400 93.600 C 202.400 93.380,202.766 93.200,203.213 93.200 C 204.302 93.200,206.480 90.943,207.100 89.172 C 208.878 84.093,206.968 74.000,204.229 74.000 C 203.883 74.000,203.600 73.820,203.600 73.600 C 203.600 73.380,203.060 73.200,202.400 73.200 C 201.740 73.200,201.200 73.020,201.200 72.800 C 201.200 72.580,200.660 72.400,200.000 72.400 C 199.340 72.400,198.800 72.580,198.800 72.800 M0.000 233.200 C 0.000 351.907,0.086 374.000,0.546 374.000 C 1.016 374.000,2.994 372.701,3.600 371.995 C 3.710 371.866,4.430 371.323,5.200 370.786 C 6.849 369.638,7.655 368.989,9.282 367.500 C 9.944 366.895,10.623 366.400,10.792 366.400 C 10.961 366.400,11.787 365.770,12.628 365.000 C 13.469 364.230,14.319 363.600,14.518 363.600 C 14.716 363.600,15.383 363.060,16.000 362.400 C 16.617 361.740,17.337 361.200,17.600 361.200 C 17.863 361.200,18.583 360.660,19.200 360.000 C 19.817 359.340,20.450 358.800,20.607 358.800 C 20.995 358.800,24.781 356.023,25.918 354.904 C 26.423 354.407,26.986 354.000,27.168 354.000 C 27.350 354.000,28.187 353.370,29.028 352.600 C 29.869 351.830,30.703 351.200,30.882 351.200 C 31.061 351.200,31.772 350.660,32.463 350.000 C 33.154 349.340,33.890 348.800,34.099 348.800 C 34.308 348.800,34.983 348.260,35.600 347.600 C 36.217 346.940,36.937 346.400,37.200 346.400 C 37.463 346.400,38.183 345.860,38.800 345.200 C 39.417 344.540,40.047 344.000,40.200 344.000 C 40.353 344.000,40.983 343.460,41.600 342.800 C 42.217 342.140,42.964 341.597,43.260 341.594 C 43.557 341.590,44.409 341.050,45.154 340.394 C 45.899 339.737,46.641 339.200,46.804 339.200 C 46.966 339.200,47.787 338.570,48.628 337.800 C 49.469 337.030,50.319 336.400,50.518 336.400 C 50.716 336.400,51.383 335.860,52.000 335.200 C 52.617 334.540,53.292 334.000,53.501 334.000 C 53.710 334.000,54.446 333.460,55.137 332.800 C 55.828 332.140,56.502 331.600,56.636 331.600 C 56.770 331.600,57.383 331.060,58.000 330.400 C 58.617 329.740,59.337 329.200,59.600 329.200 C 59.863 329.200,60.583 328.660,61.200 328.000 C 61.817 327.340,62.520 326.800,62.764 326.800 C 63.008 326.800,63.772 326.260,64.463 325.600 C 65.154 324.940,65.919 324.400,66.163 324.400 C 66.408 324.400,67.056 323.990,67.604 323.489 C 68.152 322.987,69.230 322.141,70.000 321.608 C 70.770 321.074,71.691 320.314,72.047 319.919 C 72.403 319.524,72.826 319.200,72.986 319.200 C 73.147 319.200,73.783 318.660,74.400 318.000 C 75.017 317.340,75.737 316.800,76.000 316.800 C 76.263 316.800,76.983 316.260,77.600 315.600 C 78.217 314.940,78.937 314.400,79.200 314.400 C 79.463 314.400,80.183 313.860,80.800 313.200 C 81.417 312.540,82.137 312.000,82.400 312.000 C 82.663 312.000,83.383 311.460,84.000 310.800 C 84.617 310.140,85.285 309.600,85.485 309.600 C 85.685 309.600,86.212 309.262,86.656 308.848 C 87.100 308.435,88.214 307.623,89.131 307.044 C 90.048 306.464,91.023 305.633,91.296 305.195 C 91.569 304.758,92.037 304.400,92.336 304.400 C 92.635 304.400,93.383 303.860,94.000 303.200 C 94.617 302.540,95.337 302.000,95.600 302.000 C 95.863 302.000,96.583 301.460,97.200 300.800 C 97.817 300.140,98.537 299.600,98.800 299.600 C 99.063 299.600,99.783 299.060,100.400 298.400 C 101.017 297.740,101.692 297.200,101.901 297.200 C 102.110 297.200,102.846 296.660,103.537 296.000 C 104.228 295.340,104.974 294.800,105.196 294.800 C 105.418 294.800,105.600 294.620,105.600 294.400 C 105.600 294.180,105.782 294.000,106.004 294.000 C 106.226 294.000,106.972 293.460,107.663 292.800 C 108.354 292.140,109.064 291.600,109.241 291.600 C 109.419 291.600,110.014 291.150,110.564 290.600 C 111.114 290.050,111.725 289.600,111.922 289.600 C 112.120 289.600,112.846 289.060,113.537 288.400 C 114.228 287.740,114.948 287.200,115.137 287.200 C 115.326 287.200,116.046 286.660,116.737 286.000 C 117.428 285.340,118.148 284.800,118.337 284.800 C 118.526 284.800,119.246 284.260,119.937 283.600 C 120.628 282.940,121.374 282.400,121.596 282.400 C 121.818 282.400,122.000 282.220,122.000 282.000 C 122.000 281.780,122.230 281.600,122.512 281.600 C 122.793 281.600,123.283 281.240,123.600 280.800 C 123.917 280.360,124.335 280.000,124.528 280.000 C 124.721 280.000,125.383 279.460,126.000 278.800 C 126.617 278.140,127.292 277.600,127.501 277.600 C 127.710 277.600,128.434 277.072,129.109 276.426 C 129.785 275.781,130.846 274.986,131.469 274.660 C 132.091 274.335,132.997 273.693,133.483 273.234 C 133.969 272.775,134.527 272.400,134.724 272.400 C 134.921 272.400,135.646 271.860,136.337 271.200 C 137.028 270.540,137.729 269.999,137.896 269.998 C 138.063 269.997,138.775 269.457,139.478 268.798 C 140.181 268.139,140.874 267.600,141.018 267.600 C 141.161 267.600,141.783 267.060,142.400 266.400 C 143.017 265.740,143.692 265.200,143.901 265.200 C 144.110 265.200,144.846 264.660,145.537 264.000 C 146.228 263.340,146.953 262.800,147.148 262.800 C 147.344 262.800,148.245 262.080,149.152 261.200 C 150.059 260.320,150.989 259.600,151.219 259.600 C 151.448 259.600,152.086 259.150,152.636 258.600 C 153.186 258.050,153.791 257.600,153.980 257.600 C 154.316 257.600,156.693 255.761,158.907 253.787 C 159.516 253.244,160.164 252.800,160.348 252.800 C 160.531 252.800,161.246 252.260,161.937 251.600 C 162.628 250.940,163.337 250.400,163.512 250.400 C 163.688 250.400,164.628 249.680,165.600 248.800 C 166.572 247.920,167.528 247.200,167.724 247.200 C 167.919 247.200,168.583 246.660,169.200 246.000 C 169.817 245.340,170.537 244.800,170.800 244.800 C 171.063 244.800,171.783 244.260,172.400 243.600 C 173.017 242.940,173.636 242.400,173.777 242.400 C 173.918 242.400,174.251 242.217,174.517 241.993 C 176.349 240.447,176.961 240.000,177.243 240.000 C 177.419 240.000,178.014 239.550,178.564 239.000 C 179.114 238.450,179.714 238.000,179.898 238.000 C 180.082 238.000,181.028 237.280,182.000 236.400 C 182.972 235.520,184.000 234.800,184.284 234.800 C 185.385 234.800,184.825 232.618,183.387 231.297 C 182.609 230.584,181.834 230.000,181.665 230.000 C 181.495 230.000,180.669 229.370,179.828 228.600 C 178.987 227.830,178.170 227.200,178.011 227.200 C 177.758 227.200,177.125 226.732,175.317 225.207 C 175.051 224.983,174.735 224.800,174.613 224.800 C 174.492 224.800,173.828 224.260,173.137 223.600 C 172.446 222.940,171.710 222.400,171.501 222.400 C 171.292 222.400,170.617 221.860,170.000 221.200 C 169.383 220.540,168.663 220.000,168.400 220.000 C 168.137 220.000,167.417 219.460,166.800 218.800 C 166.183 218.140,165.516 217.600,165.318 217.600 C 165.119 217.600,164.269 216.970,163.428 216.200 C 162.587 215.430,161.750 214.800,161.568 214.800 C 161.386 214.800,160.823 214.394,160.318 213.898 C 159.813 213.402,157.960 211.924,156.200 210.614 C 154.440 209.303,152.940 208.089,152.867 207.916 C 152.793 207.742,152.461 207.600,152.127 207.600 C 151.794 207.600,151.017 207.060,150.400 206.400 C 149.783 205.740,149.063 205.200,148.800 205.200 C 148.537 205.200,147.817 204.660,147.200 204.000 C 146.583 203.340,145.875 202.800,145.626 202.800 C 145.377 202.800,144.561 202.215,143.812 201.500 C 143.063 200.785,141.612 199.570,140.589 198.800 C 139.565 198.030,138.185 196.905,137.521 196.300 C 136.858 195.695,136.182 195.200,136.020 195.200 C 135.857 195.200,135.201 194.739,134.562 194.177 C 133.923 193.614,132.860 192.867,132.200 192.517 C 131.540 192.168,130.709 191.548,130.353 191.141 C 129.997 190.733,129.484 190.400,129.214 190.400 C 128.943 190.400,128.217 189.860,127.600 189.200 C 126.983 188.540,126.299 188.000,126.080 188.000 C 125.860 188.000,125.060 187.415,124.301 186.700 C 121.959 184.492,120.400 183.200,120.077 183.200 C 119.907 183.200,118.972 182.480,118.000 181.600 C 117.028 180.720,116.088 180.000,115.912 180.000 C 115.737 180.000,115.028 179.460,114.337 178.800 C 113.646 178.140,112.904 177.600,112.688 177.600 C 112.471 177.600,112.003 177.267,111.647 176.859 C 111.291 176.452,110.370 175.795,109.600 175.400 C 108.830 175.005,107.909 174.348,107.553 173.941 C 107.197 173.533,106.774 173.200,106.614 173.200 C 106.453 173.200,105.817 172.660,105.200 172.000 C 104.583 171.340,103.919 170.800,103.724 170.800 C 103.528 170.800,102.572 170.080,101.600 169.200 C 100.628 168.320,99.688 167.600,99.512 167.600 C 99.337 167.600,98.628 167.060,97.937 166.400 C 97.246 165.740,96.526 165.200,96.337 165.200 C 96.148 165.200,95.428 164.660,94.737 164.000 C 94.046 163.340,93.331 162.800,93.148 162.800 C 92.964 162.800,92.316 162.361,91.707 161.825 C 88.863 159.319,87.656 158.400,87.208 158.400 C 86.940 158.400,86.217 157.860,85.600 157.200 C 84.983 156.540,84.319 156.000,84.124 156.000 C 83.928 156.000,82.972 155.280,82.000 154.400 C 81.028 153.520,80.072 152.800,79.876 152.800 C 79.681 152.800,79.017 152.260,78.400 151.600 C 77.783 150.940,77.063 150.400,76.800 150.400 C 76.537 150.400,75.817 149.860,75.200 149.200 C 74.583 148.540,73.970 148.000,73.836 148.000 C 73.702 148.000,73.028 147.460,72.337 146.800 C 71.646 146.140,70.926 145.600,70.737 145.600 C 70.548 145.600,69.828 145.060,69.137 144.400 C 68.446 143.740,67.715 143.200,67.512 143.200 C 67.309 143.200,66.892 142.975,66.585 142.700 C 65.306 141.552,64.816 141.200,64.501 141.200 C 64.318 141.200,63.372 140.480,62.400 139.600 C 61.428 138.720,60.472 138.000,60.276 138.000 C 60.081 138.000,59.417 137.460,58.800 136.800 C 58.183 136.140,57.570 135.600,57.436 135.600 C 57.302 135.600,56.628 135.060,55.937 134.400 C 55.246 133.740,54.526 133.200,54.337 133.200 C 54.148 133.200,53.428 132.660,52.737 132.000 C 52.046 131.340,51.326 130.800,51.137 130.800 C 50.948 130.800,50.228 130.260,49.537 129.600 C 48.846 128.940,48.126 128.400,47.937 128.400 C 47.748 128.400,47.028 127.860,46.337 127.200 C 45.646 126.540,44.920 126.000,44.724 126.000 C 44.345 126.000,43.761 125.561,42.199 124.100 C 41.670 123.605,41.088 123.200,40.906 123.200 C 40.725 123.200,40.317 122.840,40.000 122.400 C 39.683 121.960,39.193 121.600,38.912 121.600 C 38.630 121.600,38.400 121.420,38.400 121.200 C 38.400 120.980,38.218 120.800,37.996 120.800 C 37.774 120.800,37.028 120.260,36.337 119.600 C 35.646 118.940,34.910 118.400,34.701 118.400 C 34.492 118.400,33.817 117.860,33.200 117.200 C 32.583 116.540,31.863 116.000,31.600 116.000 C 31.337 116.000,30.617 115.460,30.000 114.800 C 29.383 114.140,28.663 113.600,28.400 113.600 C 28.137 113.600,27.417 113.060,26.800 112.400 C 26.183 111.740,25.555 111.200,25.403 111.200 C 25.251 111.200,24.391 110.570,23.492 109.800 C 22.592 109.030,21.707 108.400,21.524 108.400 C 21.342 108.400,20.628 107.860,19.937 107.200 C 19.246 106.540,18.510 106.000,18.301 106.000 C 18.092 106.000,17.417 105.460,16.800 104.800 C 16.183 104.140,15.463 103.600,15.200 103.600 C 14.937 103.600,14.217 103.060,13.600 102.400 C 12.983 101.740,12.263 101.200,12.000 101.200 C 11.737 101.200,11.017 100.660,10.400 100.000 C 9.783 99.340,9.070 98.800,8.814 98.800 C 8.558 98.800,7.894 98.260,7.339 97.600 C 6.783 96.940,6.141 96.400,5.911 96.400 C 5.682 96.400,5.203 96.074,4.847 95.675 C 4.169 94.915,0.622 92.400,0.228 92.400 C 0.103 92.400,0.000 155.760,0.000 233.200 M397.600 93.695 C 396.610 94.387,395.509 95.279,395.153 95.677 C 394.797 96.075,394.318 96.400,394.089 96.400 C 393.859 96.400,393.217 96.940,392.661 97.600 C 392.106 98.260,391.442 98.800,391.186 98.800 C 390.930 98.800,390.217 99.340,389.600 100.000 C 388.983 100.660,388.263 101.200,388.000 101.200 C 387.737 101.200,387.017 101.740,386.400 102.400 C 385.783 103.060,385.063 103.600,384.800 103.600 C 384.537 103.600,383.817 104.140,383.200 104.800 C 382.583 105.460,381.908 106.000,381.699 106.000 C 381.490 106.000,380.754 106.540,380.063 107.200 C 379.372 107.860,378.658 108.400,378.476 108.400 C 378.293 108.400,377.408 109.030,376.508 109.800 C 375.609 110.570,374.749 111.200,374.597 111.200 C 374.445 111.200,373.817 111.740,373.200 112.400 C 372.583 113.060,371.863 113.600,371.600 113.600 C 371.337 113.600,370.617 114.140,370.000 114.800 C 369.383 115.460,368.663 116.000,368.400 116.000 C 368.137 116.000,367.417 116.540,366.800 117.200 C 366.183 117.860,365.508 118.400,365.299 118.400 C 365.090 118.400,364.354 118.940,363.663 119.600 C 362.972 120.260,362.226 120.800,362.004 120.800 C 361.782 120.800,361.600 120.980,361.600 121.200 C 361.600 121.420,361.370 121.600,361.088 121.600 C 360.807 121.600,360.317 121.960,360.000 122.400 C 359.683 122.840,359.275 123.200,359.094 123.200 C 358.912 123.200,358.330 123.605,357.801 124.100 C 356.239 125.561,355.655 126.000,355.276 126.000 C 355.080 126.000,354.354 126.540,353.663 127.200 C 352.972 127.860,352.252 128.400,352.063 128.400 C 351.874 128.400,351.154 128.940,350.463 129.600 C 349.772 130.260,349.052 130.800,348.863 130.800 C 348.674 130.800,347.954 131.340,347.263 132.000 C 346.572 132.660,345.852 133.200,345.663 133.200 C 345.474 133.200,344.754 133.740,344.063 134.400 C 343.372 135.060,342.698 135.600,342.564 135.600 C 342.430 135.600,341.817 136.140,341.200 136.800 C 340.583 137.460,339.919 138.000,339.724 138.000 C 339.528 138.000,338.572 138.720,337.600 139.600 C 336.628 140.480,335.677 141.200,335.487 141.200 C 335.298 141.200,334.892 141.425,334.585 141.700 C 333.291 142.861,332.814 143.200,332.476 143.200 C 332.280 143.200,331.554 143.740,330.863 144.400 C 330.172 145.060,329.452 145.600,329.263 145.600 C 329.074 145.600,328.354 146.140,327.663 146.800 C 326.972 147.460,326.298 148.000,326.164 148.000 C 326.030 148.000,325.417 148.540,324.800 149.200 C 324.183 149.860,323.463 150.400,323.200 150.400 C 322.937 150.400,322.217 150.940,321.600 151.600 C 320.983 152.260,320.319 152.800,320.124 152.800 C 319.928 152.800,318.972 153.520,318.000 154.400 C 317.028 155.280,316.072 156.000,315.876 156.000 C 315.681 156.000,315.017 156.540,314.400 157.200 C 313.783 157.860,313.060 158.400,312.792 158.400 C 312.344 158.400,311.137 159.319,308.293 161.825 C 307.684 162.361,307.036 162.800,306.852 162.800 C 306.669 162.800,305.954 163.340,305.263 164.000 C 304.572 164.660,303.852 165.200,303.663 165.200 C 303.474 165.200,302.754 165.740,302.063 166.400 C 301.372 167.060,300.663 167.600,300.488 167.600 C 300.312 167.600,299.372 168.320,298.400 169.200 C 297.428 170.080,296.472 170.800,296.276 170.800 C 296.081 170.800,295.417 171.340,294.800 172.000 C 294.183 172.660,293.547 173.200,293.386 173.200 C 293.226 173.200,292.803 173.533,292.447 173.941 C 292.091 174.348,291.170 175.005,290.400 175.400 C 289.630 175.795,288.709 176.452,288.353 176.859 C 287.997 177.267,287.529 177.600,287.312 177.600 C 287.096 177.600,286.354 178.140,285.663 178.800 C 284.972 179.460,284.263 180.000,284.088 180.000 C 283.912 180.000,282.972 180.720,282.000 181.600 C 281.028 182.480,280.093 183.200,279.923 183.200 C 279.600 183.200,278.041 184.492,275.699 186.700 C 274.940 187.415,274.140 188.000,273.920 188.000 C 273.701 188.000,273.017 188.540,272.400 189.200 C 271.783 189.860,271.057 190.400,270.786 190.400 C 270.516 190.400,270.003 190.733,269.647 191.141 C 269.291 191.548,268.460 192.168,267.800 192.517 C 267.140 192.867,266.077 193.614,265.438 194.177 C 264.799 194.739,264.143 195.200,263.980 195.200 C 263.818 195.200,263.142 195.695,262.479 196.300 C 261.815 196.905,260.435 198.030,259.411 198.800 C 258.388 199.570,256.937 200.785,256.188 201.500 C 255.439 202.215,254.623 202.800,254.374 202.800 C 254.125 202.800,253.417 203.340,252.800 204.000 C 252.183 204.660,251.463 205.200,251.200 205.200 C 250.937 205.200,250.217 205.740,249.600 206.400 C 248.983 207.060,248.206 207.600,247.873 207.600 C 247.539 207.600,247.207 207.742,247.133 207.916 C 247.060 208.089,245.560 209.303,243.800 210.614 C 242.040 211.924,240.187 213.402,239.682 213.898 C 239.177 214.394,238.614 214.800,238.432 214.800 C 238.250 214.800,237.413 215.430,236.572 216.200 C 235.731 216.970,234.881 217.600,234.682 217.600 C 234.484 217.600,233.817 218.140,233.200 218.800 C 232.583 219.460,231.863 220.000,231.600 220.000 C 231.337 220.000,230.617 220.540,230.000 221.200 C 229.383 221.860,228.708 222.400,228.499 222.400 C 228.290 222.400,227.554 222.940,226.863 223.600 C 226.172 224.260,225.508 224.800,225.387 224.800 C 225.265 224.800,224.949 224.983,224.683 225.207 C 222.875 226.732,222.242 227.200,221.989 227.200 C 221.830 227.200,221.013 227.830,220.172 228.600 C 219.331 229.370,218.505 230.000,218.335 230.000 C 218.166 230.000,217.391 230.584,216.613 231.297 C 215.175 232.618,214.615 234.800,215.716 234.800 C 216.000 234.800,217.028 235.520,218.000 236.400 C 218.972 237.280,219.918 238.000,220.102 238.000 C 220.286 238.000,220.886 238.450,221.436 239.000 C 221.986 239.550,222.581 240.000,222.757 240.000 C 223.039 240.000,223.651 240.447,225.483 241.993 C 225.749 242.217,226.082 242.400,226.223 242.400 C 226.364 242.400,226.983 242.940,227.600 243.600 C 228.217 244.260,228.937 244.800,229.200 244.800 C 229.463 244.800,230.183 245.340,230.800 246.000 C 231.417 246.660,232.081 247.200,232.276 247.200 C 232.472 247.200,233.428 247.920,234.400 248.800 C 235.372 249.680,236.312 250.400,236.488 250.400 C 236.663 250.400,237.372 250.940,238.063 251.600 C 238.754 252.260,239.469 252.800,239.652 252.800 C 239.836 252.800,240.484 253.244,241.093 253.787 C 243.307 255.761,245.684 257.600,246.020 257.600 C 246.209 257.600,246.814 258.050,247.364 258.600 C 247.914 259.150,248.552 259.600,248.781 259.600 C 249.011 259.600,249.941 260.320,250.848 261.200 C 251.755 262.080,252.656 262.800,252.852 262.800 C 253.047 262.800,253.772 263.340,254.463 264.000 C 255.154 264.660,255.890 265.200,256.099 265.200 C 256.308 265.200,256.983 265.740,257.600 266.400 C 258.217 267.060,258.839 267.600,258.982 267.600 C 259.126 267.600,259.819 268.139,260.522 268.798 C 261.225 269.457,261.937 269.997,262.104 269.998 C 262.271 269.999,262.972 270.540,263.663 271.200 C 264.354 271.860,265.079 272.400,265.276 272.400 C 265.473 272.400,266.031 272.775,266.517 273.234 C 267.003 273.693,267.909 274.335,268.531 274.660 C 269.154 274.986,270.215 275.781,270.891 276.426 C 271.566 277.072,272.290 277.600,272.499 277.600 C 272.708 277.600,273.383 278.140,274.000 278.800 C 274.617 279.460,275.279 280.000,275.472 280.000 C 275.665 280.000,276.083 280.360,276.400 280.800 C 276.717 281.240,277.207 281.600,277.488 281.600 C 277.770 281.600,278.000 281.780,278.000 282.000 C 278.000 282.220,278.182 282.400,278.404 282.400 C 278.626 282.400,279.372 282.940,280.063 283.600 C 280.754 284.260,281.474 284.800,281.663 284.800 C 281.852 284.800,282.572 285.340,283.263 286.000 C 283.954 286.660,284.674 287.200,284.863 287.200 C 285.052 287.200,285.772 287.740,286.463 288.400 C 287.154 289.060,287.880 289.600,288.078 289.600 C 288.275 289.600,288.886 290.050,289.436 290.600 C 289.986 291.150,290.581 291.600,290.759 291.600 C 290.936 291.600,291.646 292.140,292.337 292.800 C 293.028 293.460,293.774 294.000,293.996 294.000 C 294.218 294.000,294.400 294.180,294.400 294.400 C 294.400 294.620,294.582 294.800,294.804 294.800 C 295.026 294.800,295.772 295.340,296.463 296.000 C 297.154 296.660,297.890 297.200,298.099 297.200 C 298.308 297.200,298.983 297.740,299.600 298.400 C 300.217 299.060,300.937 299.600,301.200 299.600 C 301.463 299.600,302.183 300.140,302.800 300.800 C 303.417 301.460,304.137 302.000,304.400 302.000 C 304.663 302.000,305.383 302.540,306.000 303.200 C 306.617 303.860,307.365 304.400,307.664 304.400 C 307.963 304.400,308.431 304.758,308.704 305.195 C 308.977 305.633,309.952 306.464,310.869 307.044 C 311.786 307.623,312.900 308.435,313.344 308.848 C 313.788 309.262,314.315 309.600,314.515 309.600 C 314.715 309.600,315.383 310.140,316.000 310.800 C 316.617 311.460,317.337 312.000,317.600 312.000 C 317.863 312.000,318.583 312.540,319.200 313.200 C 319.817 313.860,320.537 314.400,320.800 314.400 C 321.063 314.400,321.783 314.940,322.400 315.600 C 323.017 316.260,323.737 316.800,324.000 316.800 C 324.263 316.800,324.983 317.340,325.600 318.000 C 326.217 318.660,326.853 319.200,327.014 319.200 C 327.174 319.200,327.597 319.524,327.953 319.919 C 328.309 320.314,329.230 321.074,330.000 321.608 C 330.770 322.141,331.848 322.987,332.396 323.489 C 332.944 323.990,333.592 324.400,333.837 324.400 C 334.081 324.400,334.846 324.940,335.537 325.600 C 336.228 326.260,336.992 326.800,337.236 326.800 C 337.480 326.800,338.183 327.340,338.800 328.000 C 339.417 328.660,340.137 329.200,340.400 329.200 C 340.663 329.200,341.383 329.740,342.000 330.400 C 342.617 331.060,343.230 331.600,343.364 331.600 C 343.498 331.600,344.172 332.140,344.863 332.800 C 345.554 333.460,346.290 334.000,346.499 334.000 C 346.708 334.000,347.383 334.540,348.000 335.200 C 348.617 335.860,349.284 336.400,349.482 336.400 C 349.681 336.400,350.531 337.030,351.372 337.800 C 352.213 338.570,353.034 339.200,353.196 339.200 C 353.359 339.200,354.101 339.737,354.846 340.394 C 355.591 341.050,356.443 341.590,356.740 341.594 C 357.036 341.597,357.783 342.140,358.400 342.800 C 359.017 343.460,359.647 344.000,359.800 344.000 C 359.953 344.000,360.583 344.540,361.200 345.200 C 361.817 345.860,362.537 346.400,362.800 346.400 C 363.063 346.400,363.783 346.940,364.400 347.600 C 365.017 348.260,365.692 348.800,365.901 348.800 C 366.110 348.800,366.846 349.340,367.537 350.000 C 368.228 350.660,368.939 351.200,369.118 351.200 C 369.297 351.200,370.131 351.830,370.972 352.600 C 371.813 353.370,372.650 354.000,372.832 354.000 C 373.014 354.000,373.577 354.407,374.082 354.904 C 375.219 356.023,379.005 358.800,379.393 358.800 C 379.550 358.800,380.183 359.340,380.800 360.000 C 381.417 360.660,382.137 361.200,382.400 361.200 C 382.663 361.200,383.383 361.740,384.000 362.400 C 384.617 363.060,385.284 363.600,385.482 363.600 C 385.681 363.600,386.531 364.230,387.372 365.000 C 388.213 365.770,389.039 366.400,389.208 366.400 C 389.377 366.400,390.056 366.895,390.718 367.500 C 392.345 368.989,393.151 369.638,394.800 370.786 C 395.570 371.323,396.290 371.866,396.400 371.995 C 397.006 372.701,398.984 374.000,399.454 374.000 C 399.914 374.000,400.000 351.907,400.000 233.200 C 400.000 155.760,399.865 92.408,399.700 92.418 C 399.535 92.428,398.590 93.002,397.600 93.695 M197.600 106.400 C 197.600 106.620,197.234 106.800,196.787 106.800 C 195.698 106.800,193.520 109.057,192.900 110.828 C 191.122 115.907,193.032 126.000,195.771 126.000 C 196.117 126.000,196.400 126.180,196.400 126.400 C 196.400 126.620,196.940 126.800,197.600 126.800 C 198.260 126.800,198.800 126.980,198.800 127.200 C 198.800 127.420,199.340 127.600,200.000 127.600 C 200.660 127.600,201.200 127.420,201.200 127.200 C 201.200 126.980,201.740 126.800,202.400 126.800 C 203.060 126.800,203.600 126.620,203.600 126.400 C 203.600 126.180,203.883 126.000,204.229 126.000 C 206.968 126.000,208.878 115.907,207.100 110.828 C 206.480 109.057,204.302 106.800,203.213 106.800 C 202.766 106.800,202.400 106.620,202.400 106.400 C 202.400 106.178,201.333 106.000,200.000 106.000 C 198.667 106.000,197.600 106.178,197.600 106.400 M15.717 123.234 C 16.203 123.693,17.140 124.349,17.800 124.693 C 18.460 125.037,19.291 125.652,19.647 126.059 C 20.003 126.467,20.516 126.800,20.786 126.800 C 21.057 126.800,21.783 127.340,22.400 128.000 C 23.017 128.660,23.643 129.200,23.793 129.200 C 24.058 129.200,26.131 130.884,29.087 133.500 C 29.895 134.215,30.703 134.800,30.882 134.800 C 31.061 134.800,31.772 135.340,32.463 136.000 C 33.154 136.660,33.874 137.200,34.063 137.200 C 34.252 137.200,34.972 137.740,35.663 138.400 C 36.354 139.060,37.080 139.600,37.277 139.600 C 37.474 139.600,38.120 140.050,38.713 140.600 C 39.307 141.150,40.025 141.600,40.309 141.600 C 40.594 141.600,41.436 142.185,42.180 142.900 C 44.515 145.143,46.003 146.400,46.323 146.400 C 46.493 146.400,47.428 147.120,48.400 148.000 C 49.372 148.880,50.312 149.600,50.488 149.600 C 50.663 149.600,51.372 150.140,52.063 150.800 C 52.754 151.460,53.490 152.000,53.699 152.000 C 53.908 152.000,54.583 152.540,55.200 153.200 C 55.817 153.860,56.527 154.400,56.779 154.400 C 57.030 154.400,57.643 154.805,58.141 155.300 C 58.638 155.795,59.709 156.650,60.520 157.200 C 61.331 157.750,61.996 158.335,61.997 158.500 C 61.999 158.665,62.243 158.800,62.541 158.800 C 62.838 158.800,63.646 159.340,64.337 160.000 C 65.028 160.660,65.774 161.200,65.996 161.200 C 66.218 161.200,66.400 161.380,66.400 161.600 C 66.400 161.820,66.582 162.000,66.804 162.000 C 67.026 162.000,67.772 162.540,68.463 163.200 C 69.154 163.860,69.890 164.400,70.099 164.400 C 70.308 164.400,70.983 164.940,71.600 165.600 C 72.217 166.260,72.937 166.800,73.200 166.800 C 73.463 166.800,74.183 167.340,74.800 168.000 C 75.417 168.660,76.030 169.200,76.164 169.200 C 76.298 169.200,76.972 169.740,77.663 170.400 C 78.354 171.060,79.096 171.600,79.312 171.600 C 79.529 171.600,79.997 171.933,80.353 172.341 C 80.709 172.748,81.540 173.368,82.200 173.718 C 82.860 174.068,84.030 174.904,84.800 175.576 C 85.570 176.248,86.353 176.799,86.540 176.799 C 86.726 176.800,87.383 177.340,88.000 178.000 C 88.617 178.660,89.337 179.200,89.600 179.200 C 89.863 179.200,90.583 179.740,91.200 180.400 C 91.817 181.060,92.430 181.600,92.564 181.600 C 92.698 181.600,93.372 182.140,94.063 182.800 C 94.754 183.460,95.474 184.000,95.663 184.000 C 95.852 184.000,96.572 184.540,97.263 185.200 C 97.954 185.860,98.674 186.400,98.863 186.400 C 99.052 186.400,99.772 186.940,100.463 187.600 C 101.154 188.260,101.896 188.800,102.112 188.800 C 102.329 188.800,102.797 189.128,103.153 189.528 C 103.509 189.929,104.429 190.604,105.197 191.028 C 105.966 191.453,107.073 192.295,107.658 192.900 C 108.242 193.505,108.879 194.000,109.072 194.000 C 109.265 194.000,109.683 194.360,110.000 194.800 C 110.317 195.240,110.807 195.600,111.088 195.600 C 111.370 195.600,111.600 195.780,111.600 196.000 C 111.600 196.220,111.782 196.400,112.004 196.400 C 112.226 196.400,112.972 196.940,113.663 197.600 C 114.354 198.260,115.090 198.800,115.299 198.800 C 115.508 198.800,116.183 199.340,116.800 200.000 C 117.417 200.660,118.137 201.200,118.400 201.200 C 118.663 201.200,119.383 201.740,120.000 202.400 C 120.617 203.060,121.325 203.600,121.574 203.600 C 121.823 203.600,122.645 204.185,123.400 204.900 C 125.308 206.706,127.045 208.000,127.563 208.000 C 127.803 208.000,128.000 208.180,128.000 208.400 C 128.000 208.620,128.182 208.800,128.404 208.800 C 128.626 208.800,129.372 209.340,130.063 210.000 C 130.754 210.660,131.490 211.200,131.699 211.200 C 131.908 211.200,132.583 211.740,133.200 212.400 C 133.817 213.060,134.537 213.600,134.800 213.600 C 135.063 213.600,135.783 214.140,136.400 214.800 C 137.017 215.460,137.737 216.000,138.000 216.000 C 138.263 216.000,138.983 216.540,139.600 217.200 C 140.217 217.860,140.930 218.400,141.186 218.400 C 141.442 218.400,142.106 218.940,142.661 219.600 C 143.217 220.260,143.859 220.800,144.089 220.800 C 144.318 220.800,144.797 221.121,145.153 221.512 C 145.509 221.904,146.790 222.922,148.000 223.774 C 149.210 224.626,150.260 225.476,150.333 225.662 C 150.407 225.848,150.739 226.000,151.073 226.000 C 151.406 226.000,152.183 226.540,152.800 227.200 C 153.417 227.860,154.137 228.400,154.400 228.400 C 154.663 228.400,155.383 228.940,156.000 229.600 C 156.617 230.260,157.317 230.800,157.557 230.800 C 158.061 230.800,160.400 233.152,160.400 233.659 C 160.400 233.847,160.202 234.000,159.960 234.000 C 159.719 234.000,159.017 234.540,158.400 235.200 C 157.783 235.860,157.063 236.400,156.800 236.400 C 156.537 236.400,155.817 236.940,155.200 237.600 C 154.583 238.260,153.908 238.800,153.699 238.800 C 153.490 238.800,152.794 239.295,152.152 239.900 C 151.511 240.505,150.519 241.242,149.948 241.538 C 149.376 241.835,148.442 242.510,147.872 243.038 C 147.302 243.567,146.674 244.000,146.477 244.000 C 146.280 244.000,145.554 244.540,144.863 245.200 C 144.172 245.860,143.498 246.400,143.364 246.400 C 143.230 246.400,142.617 246.940,142.000 247.600 C 141.383 248.260,140.663 248.800,140.400 248.800 C 140.137 248.800,139.417 249.340,138.800 250.000 C 138.183 250.660,137.463 251.200,137.200 251.200 C 136.937 251.200,136.217 251.740,135.600 252.400 C 134.983 253.060,134.308 253.600,134.099 253.600 C 133.890 253.600,133.154 254.140,132.463 254.800 C 131.772 255.460,131.026 256.000,130.804 256.000 C 130.582 256.000,130.400 256.180,130.400 256.400 C 130.400 256.620,130.218 256.800,129.996 256.800 C 129.774 256.800,129.028 257.340,128.337 258.000 C 127.646 258.660,126.936 259.200,126.759 259.200 C 126.581 259.200,125.986 259.650,125.436 260.200 C 124.886 260.750,124.230 261.200,123.979 261.200 C 123.727 261.200,123.017 261.740,122.400 262.400 C 121.783 263.060,121.063 263.600,120.800 263.600 C 120.537 263.600,119.817 264.140,119.200 264.800 C 118.583 265.460,117.908 266.000,117.699 266.000 C 117.490 266.000,116.754 266.540,116.063 267.200 C 115.372 267.860,114.626 268.400,114.404 268.400 C 114.182 268.400,114.000 268.580,114.000 268.800 C 114.000 269.020,113.823 269.200,113.607 269.200 C 113.208 269.200,111.788 270.354,109.299 272.700 C 108.540 273.415,107.750 274.000,107.543 274.000 C 107.336 274.000,106.949 274.183,106.683 274.407 C 104.851 275.953,104.239 276.400,103.957 276.400 C 103.781 276.400,103.186 276.850,102.636 277.400 C 102.086 277.950,101.475 278.400,101.278 278.400 C 101.080 278.400,100.354 278.940,99.663 279.600 C 98.972 280.260,98.252 280.800,98.063 280.800 C 97.874 280.800,97.197 281.297,96.559 281.904 C 95.922 282.512,94.770 283.454,94.000 283.999 C 92.066 285.366,91.304 285.996,89.760 287.500 C 89.027 288.215,88.223 288.800,87.974 288.800 C 87.725 288.800,87.017 289.340,86.400 290.000 C 85.783 290.660,85.074 291.200,84.823 291.200 C 84.572 291.200,84.149 291.383,83.883 291.607 C 82.119 293.095,81.448 293.600,81.235 293.600 C 81.101 293.600,80.543 294.005,79.995 294.500 C 79.447 294.995,77.920 296.210,76.603 297.200 C 75.286 298.190,73.793 299.405,73.286 299.900 C 72.779 300.395,72.198 300.800,71.995 300.800 C 71.792 300.800,70.997 301.430,70.227 302.200 C 69.457 302.970,68.623 303.600,68.374 303.600 C 68.125 303.600,67.417 304.140,66.800 304.800 C 66.183 305.460,65.463 306.000,65.200 306.000 C 64.937 306.000,64.217 306.540,63.600 307.200 C 62.983 307.860,62.350 308.400,62.193 308.400 C 61.794 308.400,57.938 311.220,57.153 312.086 C 56.797 312.479,56.340 312.800,56.137 312.800 C 55.934 312.800,54.972 313.520,54.000 314.400 C 53.028 315.280,52.072 316.000,51.876 316.000 C 51.681 316.000,51.017 316.540,50.400 317.200 C 49.783 317.860,49.063 318.400,48.800 318.400 C 48.537 318.400,47.817 318.940,47.200 319.600 C 46.583 320.260,45.908 320.800,45.699 320.800 C 45.490 320.800,44.754 321.340,44.063 322.000 C 43.372 322.660,42.692 323.200,42.551 323.200 C 42.409 323.200,42.003 323.533,41.647 323.941 C 41.291 324.348,40.460 324.968,39.800 325.317 C 39.140 325.667,38.077 326.414,37.438 326.977 C 36.799 327.539,36.146 328.000,35.988 328.000 C 35.830 328.000,35.013 328.630,34.172 329.400 C 33.331 330.170,32.481 330.800,32.282 330.800 C 32.084 330.800,31.417 331.340,30.800 332.000 C 30.183 332.660,29.508 333.200,29.299 333.200 C 29.090 333.200,28.354 333.740,27.663 334.400 C 26.972 335.060,26.298 335.600,26.164 335.600 C 26.030 335.600,25.417 336.140,24.800 336.800 C 24.183 337.460,23.463 338.000,23.200 338.000 C 22.937 338.000,22.217 338.540,21.600 339.200 C 20.983 339.860,20.275 340.400,20.025 340.400 C 19.776 340.400,19.173 340.766,18.686 341.214 C 17.773 342.054,14.906 344.000,14.582 344.000 C 14.482 344.000,14.400 294.140,14.400 233.200 C 14.400 172.260,14.498 122.400,14.617 122.400 C 14.736 122.400,15.231 122.775,15.717 123.234 M385.600 233.200 C 385.600 294.140,385.518 344.000,385.418 344.000 C 385.094 344.000,382.227 342.054,381.314 341.214 C 380.827 340.766,380.224 340.400,379.975 340.400 C 379.725 340.400,379.017 339.860,378.400 339.200 C 377.783 338.540,377.063 338.000,376.800 338.000 C 376.537 338.000,375.817 337.460,375.200 336.800 C 374.583 336.140,373.970 335.600,373.836 335.600 C 373.702 335.600,373.028 335.060,372.337 334.400 C 371.646 333.740,370.910 333.200,370.701 333.200 C 370.492 333.200,369.817 332.660,369.200 332.000 C 368.583 331.340,367.916 330.800,367.718 330.800 C 367.519 330.800,366.669 330.170,365.828 329.400 C 364.987 328.630,364.170 328.000,364.012 328.000 C 363.854 328.000,363.201 327.539,362.562 326.977 C 361.923 326.414,360.860 325.667,360.200 325.317 C 359.540 324.968,358.709 324.348,358.353 323.941 C 357.997 323.533,357.591 323.200,357.449 323.200 C 357.308 323.200,356.628 322.660,355.937 322.000 C 355.246 321.340,354.510 320.800,354.301 320.800 C 354.092 320.800,353.417 320.260,352.800 319.600 C 352.183 318.940,351.463 318.400,351.200 318.400 C 350.937 318.400,350.217 317.860,349.600 317.200 C 348.983 316.540,348.319 316.000,348.124 316.000 C 347.928 316.000,346.972 315.280,346.000 314.400 C 345.028 313.520,344.066 312.800,343.863 312.800 C 343.660 312.800,343.203 312.479,342.847 312.086 C 342.062 311.220,338.206 308.400,337.807 308.400 C 337.650 308.400,337.017 307.860,336.400 307.200 C 335.783 306.540,335.063 306.000,334.800 306.000 C 334.537 306.000,333.817 305.460,333.200 304.800 C 332.583 304.140,331.875 303.600,331.626 303.600 C 331.377 303.600,330.543 302.970,329.773 302.200 C 329.003 301.430,328.208 300.800,328.005 300.800 C 327.802 300.800,327.221 300.395,326.714 299.900 C 326.207 299.405,324.714 298.190,323.397 297.200 C 322.080 296.210,320.553 294.995,320.005 294.500 C 319.457 294.005,318.899 293.600,318.765 293.600 C 318.552 293.600,317.881 293.095,316.117 291.607 C 315.851 291.383,315.428 291.200,315.177 291.200 C 314.926 291.200,314.217 290.660,313.600 290.000 C 312.983 289.340,312.275 288.800,312.026 288.800 C 311.777 288.800,310.973 288.215,310.240 287.500 C 308.696 285.996,307.934 285.366,306.000 283.999 C 305.230 283.454,304.078 282.512,303.441 281.904 C 302.803 281.297,302.126 280.800,301.937 280.800 C 301.748 280.800,301.028 280.260,300.337 279.600 C 299.646 278.940,298.920 278.400,298.722 278.400 C 298.525 278.400,297.914 277.950,297.364 277.400 C 296.814 276.850,296.219 276.400,296.043 276.400 C 295.761 276.400,295.149 275.953,293.317 274.407 C 293.051 274.183,292.664 274.000,292.457 274.000 C 292.250 274.000,291.460 273.415,290.701 272.700 C 288.212 270.354,286.792 269.200,286.393 269.200 C 286.177 269.200,286.000 269.020,286.000 268.800 C 286.000 268.580,285.818 268.400,285.596 268.400 C 285.374 268.400,284.628 267.860,283.937 267.200 C 283.246 266.540,282.510 266.000,282.301 266.000 C 282.092 266.000,281.417 265.460,280.800 264.800 C 280.183 264.140,279.463 263.600,279.200 263.600 C 278.937 263.600,278.217 263.060,277.600 262.400 C 276.983 261.740,276.273 261.200,276.021 261.200 C 275.770 261.200,275.114 260.750,274.564 260.200 C 274.014 259.650,273.419 259.200,273.241 259.200 C 273.064 259.200,272.354 258.660,271.663 258.000 C 270.972 257.340,270.226 256.800,270.004 256.800 C 269.782 256.800,269.600 256.620,269.600 256.400 C 269.600 256.180,269.418 256.000,269.196 256.000 C 268.974 256.000,268.228 255.460,267.537 254.800 C 266.846 254.140,266.110 253.600,265.901 253.600 C 265.692 253.600,265.017 253.060,264.400 252.400 C 263.783 251.740,263.063 251.200,262.800 251.200 C 262.537 251.200,261.817 250.660,261.200 250.000 C 260.583 249.340,259.863 248.800,259.600 248.800 C 259.337 248.800,258.617 248.260,258.000 247.600 C 257.383 246.940,256.770 246.400,256.636 246.400 C 256.502 246.400,255.828 245.860,255.137 245.200 C 254.446 244.540,253.720 244.000,253.523 244.000 C 253.326 244.000,252.698 243.567,252.128 243.038 C 251.558 242.510,250.624 241.835,250.052 241.538 C 249.481 241.242,248.489 240.505,247.848 239.900 C 247.206 239.295,246.510 238.800,246.301 238.800 C 246.092 238.800,245.417 238.260,244.800 237.600 C 244.183 236.940,243.463 236.400,243.200 236.400 C 242.937 236.400,242.217 235.860,241.600 235.200 C 240.983 234.540,240.281 234.000,240.040 234.000 C 239.798 234.000,239.600 233.847,239.600 233.659 C 239.600 233.152,241.939 230.800,242.443 230.800 C 242.683 230.800,243.383 230.260,244.000 229.600 C 244.617 228.940,245.337 228.400,245.600 228.400 C 245.863 228.400,246.583 227.860,247.200 227.200 C 247.817 226.540,248.594 226.000,248.927 226.000 C 249.261 226.000,249.593 225.848,249.667 225.662 C 249.740 225.476,250.790 224.626,252.000 223.774 C 253.210 222.922,254.491 221.904,254.847 221.512 C 255.203 221.121,255.682 220.800,255.911 220.800 C 256.141 220.800,256.783 220.260,257.339 219.600 C 257.894 218.940,258.558 218.400,258.814 218.400 C 259.070 218.400,259.783 217.860,260.400 217.200 C 261.017 216.540,261.737 216.000,262.000 216.000 C 262.263 216.000,262.983 215.460,263.600 214.800 C 264.217 214.140,264.937 213.600,265.200 213.600 C 265.463 213.600,266.183 213.060,266.800 212.400 C 267.417 211.740,268.092 211.200,268.301 211.200 C 268.510 211.200,269.246 210.660,269.937 210.000 C 270.628 209.340,271.374 208.800,271.596 208.800 C 271.818 208.800,272.000 208.620,272.000 208.400 C 272.000 208.180,272.197 208.000,272.437 208.000 C 272.955 208.000,274.692 206.706,276.600 204.900 C 277.355 204.185,278.177 203.600,278.426 203.600 C 278.675 203.600,279.383 203.060,280.000 202.400 C 280.617 201.740,281.337 201.200,281.600 201.200 C 281.863 201.200,282.583 200.660,283.200 200.000 C 283.817 199.340,284.492 198.800,284.701 198.800 C 284.910 198.800,285.646 198.260,286.337 197.600 C 287.028 196.940,287.774 196.400,287.996 196.400 C 288.218 196.400,288.400 196.220,288.400 196.000 C 288.400 195.780,288.630 195.600,288.912 195.600 C 289.193 195.600,289.683 195.240,290.000 194.800 C 290.317 194.360,290.735 194.000,290.928 194.000 C 291.121 194.000,291.758 193.505,292.342 192.900 C 292.927 192.295,294.034 191.453,294.803 191.028 C 295.571 190.604,296.491 189.929,296.847 189.528 C 297.203 189.128,297.671 188.800,297.888 188.800 C 298.104 188.800,298.846 188.260,299.537 187.600 C 300.228 186.940,300.948 186.400,301.137 186.400 C 301.326 186.400,302.046 185.860,302.737 185.200 C 303.428 184.540,304.148 184.000,304.337 184.000 C 304.526 184.000,305.246 183.460,305.937 182.800 C 306.628 182.140,307.302 181.600,307.436 181.600 C 307.570 181.600,308.183 181.060,308.800 180.400 C 309.417 179.740,310.137 179.200,310.400 179.200 C 310.663 179.200,311.383 178.660,312.000 178.000 C 312.617 177.340,313.274 176.800,313.460 176.799 C 313.647 176.799,314.430 176.248,315.200 175.576 C 315.970 174.904,317.140 174.068,317.800 173.718 C 318.460 173.368,319.291 172.748,319.647 172.341 C 320.003 171.933,320.471 171.600,320.688 171.600 C 320.904 171.600,321.646 171.060,322.337 170.400 C 323.028 169.740,323.702 169.200,323.836 169.200 C 323.970 169.200,324.583 168.660,325.200 168.000 C 325.817 167.340,326.537 166.800,326.800 166.800 C 327.063 166.800,327.783 166.260,328.400 165.600 C 329.017 164.940,329.692 164.400,329.901 164.400 C 330.110 164.400,330.846 163.860,331.537 163.200 C 332.228 162.540,332.974 162.000,333.196 162.000 C 333.418 162.000,333.600 161.820,333.600 161.600 C 333.600 161.380,333.782 161.200,334.004 161.200 C 334.226 161.200,334.972 160.660,335.663 160.000 C 336.354 159.340,337.162 158.800,337.459 158.800 C 337.757 158.800,338.001 158.665,338.003 158.500 C 338.004 158.335,338.669 157.750,339.480 157.200 C 340.291 156.650,341.362 155.795,341.859 155.300 C 342.357 154.805,342.970 154.400,343.221 154.400 C 343.473 154.400,344.183 153.860,344.800 153.200 C 345.417 152.540,346.092 152.000,346.301 152.000 C 346.510 152.000,347.246 151.460,347.937 150.800 C 348.628 150.140,349.337 149.600,349.512 149.600 C 349.688 149.600,350.628 148.880,351.600 148.000 C 352.572 147.120,353.507 146.400,353.677 146.400 C 353.997 146.400,355.485 145.143,357.820 142.900 C 358.564 142.185,359.406 141.600,359.691 141.600 C 359.975 141.600,360.693 141.150,361.287 140.600 C 361.880 140.050,362.526 139.600,362.723 139.600 C 362.920 139.600,363.646 139.060,364.337 138.400 C 365.028 137.740,365.748 137.200,365.937 137.200 C 366.126 137.200,366.846 136.660,367.537 136.000 C 368.228 135.340,368.939 134.800,369.118 134.800 C 369.297 134.800,370.105 134.215,370.913 133.500 C 373.869 130.884,375.942 129.200,376.207 129.200 C 376.357 129.200,376.983 128.660,377.600 128.000 C 378.217 127.340,378.943 126.800,379.214 126.800 C 379.484 126.800,379.997 126.467,380.353 126.059 C 380.709 125.652,381.540 125.038,382.200 124.695 C 382.860 124.353,383.760 123.707,384.200 123.260 C 384.640 122.813,385.135 122.437,385.300 122.424 C 385.465 122.411,385.600 172.260,385.600 233.200 M196.021 140.371 C 195.715 140.795,195.167 141.220,194.803 141.315 C 191.547 142.167,191.510 157.506,194.761 158.708 C 195.112 158.838,195.691 159.272,196.047 159.672 C 196.994 160.737,203.006 160.737,203.953 159.672 C 204.309 159.272,204.888 158.838,205.239 158.708 C 208.471 157.513,208.471 142.487,205.239 141.292 C 204.888 141.162,204.309 140.728,203.953 140.328 C 202.974 139.226,196.822 139.260,196.021 140.371 M198.800 172.800 C 198.800 173.020,198.260 173.200,197.600 173.200 C 196.940 173.200,196.400 173.380,196.400 173.600 C 196.400 173.820,196.117 174.000,195.771 174.000 C 193.032 174.000,191.122 184.093,192.900 189.172 C 193.520 190.943,195.698 193.200,196.787 193.200 C 197.234 193.200,197.600 193.380,197.600 193.600 C 197.600 193.822,198.667 194.000,200.000 194.000 C 201.333 194.000,202.400 193.822,202.400 193.600 C 202.400 193.380,202.766 193.200,203.213 193.200 C 204.302 193.200,206.480 190.943,207.100 189.172 C 208.878 184.093,206.968 174.000,204.229 174.000 C 203.883 174.000,203.600 173.820,203.600 173.600 C 203.600 173.380,203.060 173.200,202.400 173.200 C 201.740 173.200,201.200 173.020,201.200 172.800 C 201.200 172.580,200.660 172.400,200.000 172.400 C 199.340 172.400,198.800 172.580,198.800 172.800 M197.600 206.400 C 197.600 206.620,197.234 206.800,196.787 206.800 C 195.698 206.800,193.520 209.057,192.900 210.828 C 191.122 215.907,193.032 226.000,195.771 226.000 C 196.117 226.000,196.400 226.180,196.400 226.400 C 196.400 226.620,196.940 226.800,197.600 226.800 C 198.260 226.800,198.800 226.980,198.800 227.200 C 198.800 227.420,199.340 227.600,200.000 227.600 C 200.660 227.600,201.200 227.420,201.200 227.200 C 201.200 226.980,201.740 226.800,202.400 226.800 C 203.060 226.800,203.600 226.620,203.600 226.400 C 203.600 226.180,203.883 226.000,204.229 226.000 C 206.968 226.000,208.878 215.907,207.100 210.828 C 206.480 209.057,204.302 206.800,203.213 206.800 C 202.766 206.800,202.400 206.620,202.400 206.400 C 202.400 206.178,201.333 206.000,200.000 206.000 C 198.667 206.000,197.600 206.178,197.600 206.400 M196.021 240.371 C 195.715 240.795,195.167 241.220,194.803 241.315 C 191.547 242.167,191.510 257.506,194.761 258.708 C 195.112 258.838,195.691 259.272,196.047 259.672 C 196.574 260.265,197.307 260.400,200.000 260.400 C 202.693 260.400,203.426 260.265,203.953 259.672 C 204.309 259.272,204.888 258.838,205.239 258.708 C 208.471 257.513,208.471 242.487,205.239 241.292 C 204.888 241.162,204.309 240.728,203.953 240.328 C 202.974 239.226,196.822 239.260,196.021 240.371 M198.800 272.800 C 198.800 273.020,198.260 273.200,197.600 273.200 C 196.940 273.200,196.400 273.380,196.400 273.600 C 196.400 273.820,196.117 274.000,195.771 274.000 C 193.032 274.000,191.122 284.093,192.900 289.172 C 193.520 290.943,195.698 293.200,196.787 293.200 C 197.234 293.200,197.600 293.380,197.600 293.600 C 197.600 293.822,198.667 294.000,200.000 294.000 C 201.333 294.000,202.400 293.822,202.400 293.600 C 202.400 293.380,202.766 293.200,203.213 293.200 C 204.302 293.200,206.480 290.943,207.100 289.172 C 208.878 284.093,206.968 274.000,204.229 274.000 C 203.883 274.000,203.600 273.820,203.600 273.600 C 203.600 273.380,203.060 273.200,202.400 273.200 C 201.740 273.200,201.200 273.020,201.200 272.800 C 201.200 272.580,200.660 272.400,200.000 272.400 C 199.340 272.400,198.800 272.580,198.800 272.800 M197.600 306.400 C 197.600 306.620,197.234 306.800,196.787 306.800 C 195.698 306.800,193.520 309.057,192.900 310.828 C 191.122 315.907,193.032 326.000,195.771 326.000 C 196.117 326.000,196.400 326.180,196.400 326.400 C 196.400 326.620,196.940 326.800,197.600 326.800 C 198.260 326.800,198.800 326.980,198.800 327.200 C 198.800 327.420,199.340 327.600,200.000 327.600 C 200.660 327.600,201.200 327.420,201.200 327.200 C 201.200 326.980,201.740 326.800,202.400 326.800 C 203.060 326.800,203.600 326.620,203.600 326.400 C 203.600 326.180,203.883 326.000,204.229 326.000 C 206.968 326.000,208.878 315.907,207.100 310.828 C 206.480 309.057,204.302 306.800,203.213 306.800 C 202.766 306.800,202.400 306.620,202.400 306.400 C 202.400 306.178,201.333 306.000,200.000 306.000 C 198.667 306.000,197.600 306.178,197.600 306.400 M196.021 340.371 C 195.715 340.795,195.167 341.220,194.803 341.315 C 191.547 342.167,191.510 357.506,194.761 358.708 C 195.112 358.838,195.691 359.272,196.047 359.672 C 196.574 360.265,197.307 360.400,200.000 360.400 C 202.693 360.400,203.426 360.265,203.953 359.672 C 204.309 359.272,204.888 358.838,205.239 358.708 C 208.471 357.513,208.471 342.487,205.239 341.292 C 204.888 341.162,204.309 340.728,203.953 340.328 C 202.974 339.226,196.822 339.260,196.021 340.371 M198.800 372.800 C 198.800 373.020,198.260 373.200,197.600 373.200 C 196.940 373.200,196.400 373.380,196.400 373.600 C 196.400 373.820,196.117 374.000,195.771 374.000 C 193.032 374.000,191.122 384.093,192.900 389.172 C 193.520 390.943,195.698 393.200,196.787 393.200 C 197.234 393.200,197.600 393.380,197.600 393.600 C 197.600 393.822,198.667 394.000,200.000 394.000 C 201.333 394.000,202.400 393.822,202.400 393.600 C 202.400 393.380,202.766 393.200,203.213 393.200 C 204.302 393.200,206.480 390.943,207.100 389.172 C 208.878 384.093,206.968 374.000,204.229 374.000 C 203.883 374.000,203.600 373.820,203.600 373.600 C 203.600 373.380,203.060 373.200,202.400 373.200 C 201.740 373.200,201.200 373.020,201.200 372.800 C 201.200 372.580,200.660 372.400,200.000 372.400 C 199.340 372.400,198.800 372.580,198.800 372.800 " stroke="none" fill="#040404" fill-rule="evenodd"></path><path id="path1" d="" stroke="none" fill="#080404" fill-rule="evenodd"></path><path id="path2" d="" stroke="none" fill="#080404" fill-rule="evenodd"></path><path id="path3" d="" stroke="none" fill="#080404" fill-rule="evenodd"></path><path id="path4" d="" stroke="none" fill="#080404" fill-rule="evenodd"></path></g></svg>