<svg id="Слой_1" data-name="Слой 1" xmlns="http://www.w3.org/2000/svg" viewBox="0 0 48 48"><defs><style>.cls-1{fill:#fdfdfd;}.cls-2{fill:#595959;}</style></defs><path class="cls-1" d="M330,420H282V372h48Zm-25.17-41.54c-5.4,1.51-11,3-14.83,8s-5.41,10.64-3.93,16.51c3,11.76,11.87,16.5,20.7,15.91,11.45-.76,18.83-8.75,19.34-19.88a30.66,30.66,0,0,0-7.87.15c-.41,6.45-4.45,10-9.87,12.26-3.92-.53-8.21-.24-11.27-3.71-2.91-3.29-4.27-6.95-3.26-11.36,1.4-6.15,6-9.89,11.12-9,.77,1.72-.3,3.72,1.11,6,5.18-3.77,10.41-7.29,15.51-11.81-5.71-2.38-10.27-5.63-14.92-8.19C304.51,374.85,305.71,376.79,304.83,378.46Z" transform="translate(-282 -372)"/><path class="cls-2" d="M304.83,378.46c.88-1.67-.32-3.61,1.83-5.06,4.65,2.56,9.21,5.81,14.92,8.19-5.1,4.52-10.33,8-15.51,11.81-1.41-2.31-.34-4.31-1.11-6-5.15-.91-9.72,2.83-11.12,9-1,4.41.35,8.07,3.26,11.36,3.06,3.47,7.35,3.18,11.27,3.71,5.42-2.28,9.46-5.81,9.87-12.26a30.66,30.66,0,0,1,7.87-.15c-.51,11.13-7.89,19.12-19.34,19.88-8.83.59-17.73-4.15-20.7-15.91-1.48-5.87.06-11.48,3.93-16.51S299.43,380,304.83,378.46Z" transform="translate(-282 -372)"/></svg>