<svg id="evb9Rr5U6LH1" xmlns="http://www.w3.org/2000/svg" xmlns:xlink="http://www.w3.org/1999/xlink" viewBox="0 0 96 96" shape-rendering="geometricPrecision" text-rendering="geometricPrecision"><path d="M0,53c0-.33424.00426-.66758.01272-1h16.00641C16.00641,52.33193,16,52.6653,16,53c0,15.82296,14.32689,28.65,32,28.65s32-12.82704,32-28.65-14.32689-28.65-32-28.65v0h-6.2v-14.35h6.3v.00009C74.56369,10.04843,96,29.28163,96,53c0,23.74824-21.49033,43-48,43s-48-19.25176-48-43Z" stroke-width="0"/><path d="M14.05887,16.97056L36.05887,0v0v33.94112v0l-22-16.97056Z" transform="translate(5.874762 0)" stroke-width="0"/></svg>
