<svg id="Слой_1" data-name="Слой 1" xmlns="http://www.w3.org/2000/svg" viewBox="0 0 73.73 73.73"><defs><style>.cls-1{fill:#fff;}.cls-2{fill:#595959;}</style></defs><path class="cls-1" d="M343.08,433.08H269.35V359.35h73.73Zm-9.33-36.83v-22a5.5,5.5,0,0,0-5.63-5.66H284.33a5.6,5.6,0,0,0-5.7,5.73q0,21.86,0,43.71a5.51,5.51,0,0,0,5.69,5.67h43.79a5.37,5.37,0,0,0,5.64-5.66Z" transform="translate(-269.35 -359.35)"/><path class="cls-2" d="M333.75,396.25v21.82a5.37,5.37,0,0,1-5.64,5.66H284.32a5.51,5.51,0,0,1-5.69-5.67q0-21.85,0-43.71a5.6,5.6,0,0,1,5.7-5.73h43.79a5.5,5.5,0,0,1,5.63,5.66Zm-5.47-21.78L284.5,418.25h43.78Zm-33.12,8c2.54,0,5.09,0,7.63,0,.57,0,.75-.18.73-.74,0-1.41,0-2.83,0-4.25,0-.46-.15-.62-.62-.62q-7.71,0-15.41,0c-.47,0-.62.17-.61.63,0,1.42,0,2.83,0,4.25,0,.58.19.73.74.72C290.12,382.43,292.64,382.44,295.16,382.44Z" transform="translate(-269.35 -359.35)"/><path class="cls-1" d="M328.28,374.47v43.78H284.5ZM314.56,399v.85c0,1.32,0,2.64,0,4,0,.52-.16.73-.7.71-.93,0-1.87,0-2.81,0H309c0,1.68,0,3.23,0,4.78,0,.52.19.66.67.65,1.37,0,2.74,0,4.1,0,.59,0,.81.15.79.76,0,1.29,0,2.59,0,3.88,0,.28,0,.55.05.82H320v-.83c0-1.32,0-2.64,0-4,0-.49.14-.68.65-.67,1.06,0,2.11,0,3.17,0h1.65v-5.39c-.3,0-.56,0-.81,0-1.32,0-2.64,0-4,0-.52,0-.72-.15-.7-.7,0-1,0-2.11,0-3.16V399Z" transform="translate(-269.35 -359.35)"/><path class="cls-1" d="M295.16,382.44c-2.52,0-5,0-7.56,0-.55,0-.76-.14-.74-.72,0-1.42,0-2.83,0-4.25,0-.46.14-.63.61-.63q7.71,0,15.41,0c.47,0,.63.16.62.62,0,1.42,0,2.84,0,4.25,0,.56-.16.74-.73.74C300.25,382.43,297.7,382.44,295.16,382.44Z" transform="translate(-269.35 -359.35)"/><path class="cls-2" d="M314.56,399H320v1.65c0,1.05,0,2.11,0,3.16,0,.55.18.71.7.7,1.32,0,2.64,0,4,0,.25,0,.51,0,.81,0V410H323.8c-1.06,0-2.11,0-3.17,0-.51,0-.66.18-.65.67,0,1.32,0,2.64,0,4v.83h-5.38c0-.27-.05-.54-.05-.82,0-1.29,0-2.59,0-3.88,0-.61-.2-.78-.79-.76-1.36,0-2.73,0-4.1,0-.48,0-.68-.13-.67-.65,0-1.55,0-3.1,0-4.78h2.05c.94,0,1.88,0,2.81,0,.54,0,.71-.19.7-.71,0-1.32,0-2.64,0-4Z" transform="translate(-269.35 -359.35)"/></svg>