<svg id="svg" version="1.1" xmlns="http://www.w3.org/2000/svg" xmlns:xlink="http://www.w3.org/1999/xlink" width="400" height="400" viewBox="0, 0, 400,400"><g id="svgg"><path id="path0" d="M76.800 42.278 C 61.011 44.025,47.301 56.212,43.137 72.200 L 42.200 75.800 42.200 199.800 C 42.200 319.050,42.228 323.923,42.940 327.000 C 46.382 341.876,57.408 353.111,72.290 356.905 L 75.800 357.800 200.000 357.800 L 324.200 357.800 327.710 356.905 C 342.364 353.169,353.169 342.364,356.905 327.710 L 357.800 324.200 357.800 200.200 C 357.800 80.893,357.772 76.079,357.059 73.000 C 353.679 58.410,342.627 47.052,327.983 43.119 L 324.600 42.211 201.400 42.167 C 133.640 42.143,77.570 42.193,76.800 42.278 M323.383 62.212 C 330.354 64.028,335.972 69.646,337.788 76.617 C 338.720 80.195,338.720 319.805,337.788 323.383 C 335.946 330.455,330.455 335.946,323.383 337.788 C 319.858 338.706,80.201 338.721,76.677 337.803 C 69.692 335.984,64.022 330.332,62.212 323.383 C 61.280 319.805,61.280 80.195,62.212 76.617 C 63.999 69.758,69.652 64.062,76.506 62.217 C 79.808 61.327,319.969 61.323,323.383 62.212 M109.000 101.567 C 106.140 102.280,103.758 104.198,102.260 106.995 C 100.907 109.520,100.907 162.081,102.259 164.600 C 106.270 172.072,116.377 172.081,119.853 164.616 C 120.781 162.625,120.792 162.432,120.796 148.900 C 120.798 141.365,120.931 135.200,121.092 135.200 C 121.252 135.200,131.287 145.079,143.392 157.153 C 167.594 181.295,166.269 180.211,171.219 179.931 C 176.181 179.651,179.651 176.181,179.931 171.219 C 180.211 166.269,181.295 167.594,157.153 143.392 C 145.079 131.287,135.200 121.252,135.200 121.092 C 135.200 120.931,141.365 120.798,148.900 120.796 C 162.432 120.792,162.625 120.781,164.616 119.853 C 172.056 116.389,172.050 106.247,164.605 102.260 C 162.940 101.368,112.331 100.737,109.000 101.567 M237.400 101.567 C 228.470 103.792,227.123 116.007,235.384 119.853 C 237.378 120.782,237.553 120.792,251.399 120.796 L 265.397 120.800 243.515 142.700 C 219.882 166.352,220.018 166.192,220.018 170.400 C 220.018 175.931,224.115 179.987,229.713 179.996 C 233.807 180.003,233.510 180.255,256.805 156.983 C 268.798 145.003,278.734 135.200,278.886 135.200 C 279.038 135.200,279.215 141.545,279.281 149.300 L 279.400 163.400 280.400 165.181 C 284.131 171.827,293.630 171.838,297.363 165.200 L 298.600 163.000 298.717 136.800 C 298.857 105.370,298.883 105.545,293.539 102.585 L 291.400 101.400 265.000 101.334 C 250.480 101.298,238.060 101.403,237.400 101.567 M166.800 220.502 C 165.730 220.824,160.217 226.090,143.392 242.862 C 131.287 254.928,121.252 264.800,121.092 264.800 C 120.931 264.800,120.798 258.635,120.796 251.100 C 120.792 237.568,120.781 237.375,119.853 235.384 C 116.414 227.997,106.262 228.007,102.265 235.400 C 101.403 236.995,101.400 237.079,101.400 264.200 L 101.400 291.400 102.600 293.571 C 103.892 295.909,106.216 297.704,108.878 298.421 C 109.823 298.676,119.981 298.782,136.684 298.711 L 163.000 298.600 165.200 297.363 C 171.838 293.630,171.827 284.131,165.181 280.400 L 163.400 279.400 149.300 279.281 C 141.545 279.215,135.200 279.038,135.200 278.886 C 135.200 278.734,145.003 268.798,156.983 256.805 C 180.255 233.510,180.003 233.807,179.996 229.713 C 179.984 222.803,173.712 218.425,166.800 220.502 M225.267 221.041 C 220.934 223.201,219.038 227.906,220.466 232.954 C 220.866 234.367,224.068 237.747,243.138 256.881 L 265.345 279.162 250.973 279.281 L 236.600 279.400 234.683 280.527 C 227.356 284.834,228.543 295.320,236.687 298.225 C 237.895 298.656,243.400 298.768,264.027 298.782 C 292.981 298.802,292.634 298.832,295.469 296.081 C 298.797 292.851,298.600 294.854,298.600 264.200 L 298.600 237.000 297.363 234.800 C 293.660 228.215,284.367 228.151,280.527 234.683 L 279.400 236.600 279.281 250.973 L 279.162 265.345 256.881 243.138 C 232.704 219.042,233.845 220.000,229.332 220.000 C 228.006 220.000,226.670 220.342,225.267 221.041 " stroke="none" fill="#040404" fill-rule="evenodd"></path><path id="path1" d="M0.000 200.000 L 0.000 400.000 200.000 400.000 L 400.000 400.000 400.000 200.000 L 400.000 0.000 200.000 0.000 L 0.000 0.000 0.000 200.000 M326.065 42.566 C 340.817 45.412,353.226 57.078,356.950 71.600 C 358.396 77.242,358.428 80.411,358.300 203.000 L 358.173 323.800 357.310 327.270 C 353.548 342.407,342.526 353.403,327.200 357.307 L 323.800 358.173 203.000 358.300 C 80.411 358.428,77.242 358.396,71.600 356.950 C 57.078 353.226,45.412 340.817,42.566 326.065 C 41.717 321.663,41.717 78.337,42.566 73.935 C 45.549 58.473,57.874 45.997,73.471 42.651 C 77.516 41.783,321.581 41.701,326.065 42.566 M75.519 62.771 C 69.390 64.734,64.616 69.541,62.778 75.600 C 61.999 78.167,61.990 79.769,62.095 200.800 L 62.200 323.400 63.140 325.730 C 65.260 330.986,70.003 335.418,75.504 337.285 L 78.200 338.200 197.800 338.315 C 280.489 338.394,318.449 338.298,320.800 338.004 C 330.030 336.850,336.791 330.084,337.990 320.800 C 338.303 318.380,338.396 282.943,338.315 197.800 L 338.200 78.200 337.285 75.504 C 335.418 70.003,330.986 65.260,325.730 63.140 L 323.400 62.200 200.600 62.120 C 82.664 62.044,77.710 62.069,75.519 62.771 M163.754 101.686 C 170.812 103.772,172.635 114.178,166.757 118.834 C 163.958 121.051,162.803 121.200,148.441 121.200 L 135.410 121.200 157.064 142.900 C 180.641 166.527,180.180 165.980,180.192 170.400 C 180.212 177.859,172.540 182.701,165.945 179.392 C 165.205 179.021,154.835 168.973,142.900 157.064 L 121.200 135.410 121.200 148.432 C 121.200 165.081,120.744 166.762,115.522 169.364 C 110.326 171.953,103.263 169.089,101.686 163.754 C 100.990 161.397,100.990 110.203,101.686 107.846 C 102.288 105.809,105.637 102.342,107.600 101.723 C 109.689 101.065,161.535 101.031,163.754 101.686 M292.077 101.670 C 294.131 102.286,297.124 104.949,298.049 106.985 C 299.265 109.662,299.190 162.142,297.966 164.669 C 294.531 171.765,284.547 172.352,280.554 165.693 C 278.859 162.868,278.809 162.365,278.804 148.005 L 278.800 135.410 257.100 157.064 C 245.165 168.973,234.795 179.021,234.055 179.392 C 226.341 183.263,217.759 175.816,220.186 167.359 C 220.859 165.015,221.003 164.860,242.723 143.100 L 264.583 121.200 251.592 121.198 C 237.578 121.195,236.721 121.094,233.744 119.089 C 227.366 114.794,228.753 104.390,236.055 101.748 C 237.953 101.061,289.804 100.989,292.077 101.670 M174.583 220.610 C 179.529 222.984,181.784 229.288,179.392 234.055 C 179.021 234.795,168.973 245.165,157.064 257.100 L 135.410 278.800 148.005 278.804 C 162.365 278.809,162.868 278.859,165.693 280.554 C 172.352 284.547,171.765 294.531,164.669 297.966 C 161.947 299.284,109.794 299.271,106.987 297.952 C 104.772 296.911,102.300 294.180,101.670 292.077 C 101.002 289.847,101.002 238.553,101.670 236.323 C 103.836 229.095,114.346 227.334,118.989 233.421 C 121.046 236.118,121.200 237.381,121.200 251.552 L 121.200 264.577 143.100 242.739 C 167.074 218.833,166.273 219.499,170.800 219.735 C 172.010 219.799,173.712 220.192,174.583 220.610 M233.029 220.252 C 234.810 220.840,237.105 223.002,256.876 242.719 L 278.751 264.535 278.876 250.767 L 279.000 237.000 280.165 234.898 C 284.156 227.694,294.685 227.980,298.049 235.385 C 299.190 237.898,299.181 290.541,298.039 293.000 C 297.114 294.991,294.675 297.363,292.713 298.180 C 290.021 299.302,237.817 299.094,235.387 297.952 C 227.928 294.446,227.645 284.183,234.898 280.165 L 237.000 279.000 250.767 278.876 L 264.535 278.751 242.719 256.876 C 223.002 237.105,220.840 234.810,220.252 233.029 C 217.572 224.923,224.923 217.572,233.029 220.252 " stroke="none" fill="#fbfbfb" fill-rule="evenodd"></path><path id="path2" d="M139.700 61.900 C 172.865 61.956,227.135 61.956,260.300 61.900 C 293.465 61.844,266.330 61.797,200.000 61.797 C 133.670 61.797,106.535 61.844,139.700 61.900 M61.797 200.000 C 61.797 266.330,61.844 293.465,61.900 260.300 C 61.956 227.135,61.956 172.865,61.900 139.700 C 61.844 106.535,61.797 133.670,61.797 200.000 M358.197 200.000 C 358.197 266.110,358.244 293.155,358.300 260.100 C 358.356 227.045,358.356 172.955,358.300 139.900 C 358.244 106.845,358.197 133.890,358.197 200.000 M135.200 121.145 C 135.200 121.334,135.650 121.403,136.200 121.298 C 136.750 121.193,137.200 121.038,137.200 120.953 C 137.200 120.869,136.750 120.800,136.200 120.800 C 135.650 120.800,135.200 120.955,135.200 121.145 M143.725 121.099 C 147.204 121.166,152.784 121.166,156.125 121.099 C 159.466 121.032,156.620 120.978,149.800 120.978 C 142.980 120.978,140.246 121.033,143.725 121.099 M244.125 121.099 C 247.604 121.166,253.184 121.166,256.525 121.099 C 259.866 121.032,257.020 120.978,250.200 120.978 C 243.380 120.978,240.646 121.033,244.125 121.099 M264.149 121.083 C 264.305 121.238,254.750 131.093,242.916 142.983 L 221.400 164.600 243.100 143.001 C 264.098 122.102,265.343 120.800,264.333 120.800 C 264.077 120.800,263.994 120.927,264.149 121.083 M136.000 122.125 C 136.000 122.194,136.585 122.779,137.300 123.425 L 138.600 124.600 137.425 123.300 C 136.330 122.088,136.000 121.816,136.000 122.125 M120.849 135.300 C 120.950 135.355,130.835 145.120,142.816 157.000 L 164.600 178.600 143.001 156.900 C 131.122 144.965,121.237 135.200,121.035 135.200 C 120.832 135.200,120.749 135.245,120.849 135.300 M278.702 143.900 C 278.894 160.295,279.028 161.791,279.114 148.500 C 279.161 141.185,279.065 135.200,278.900 135.200 C 278.735 135.199,278.646 139.114,278.702 143.900 M120.976 148.800 C 120.976 155.070,121.032 157.635,121.099 154.500 C 121.167 151.365,121.167 146.235,121.099 143.100 C 121.032 139.965,120.976 142.530,120.976 148.800 M142.599 243.202 L 121.400 264.404 121.191 252.102 L 120.983 239.800 120.891 252.300 C 120.841 259.175,120.936 264.800,121.101 264.800 C 121.267 264.800,131.032 255.170,142.800 243.400 C 154.568 231.630,164.107 222.000,163.997 222.000 C 163.887 222.000,154.258 231.541,142.599 243.202 M239.200 225.400 C 239.946 226.170,240.647 226.800,240.757 226.800 C 240.867 226.800,240.346 226.170,239.600 225.400 C 238.854 224.630,238.153 224.000,238.043 224.000 C 237.933 224.000,238.454 224.630,239.200 225.400 M242.400 228.600 C 243.146 229.370,243.847 230.000,243.957 230.000 C 244.067 230.000,243.546 229.370,242.800 228.600 C 242.054 227.830,241.353 227.200,241.243 227.200 C 241.133 227.200,241.654 227.830,242.400 228.600 M245.600 231.800 C 246.346 232.570,247.047 233.200,247.157 233.200 C 247.267 233.200,246.746 232.570,246.000 231.800 C 245.254 231.030,244.553 230.400,244.443 230.400 C 244.333 230.400,244.854 231.030,245.600 231.800 M248.800 235.000 C 249.546 235.770,250.247 236.400,250.357 236.400 C 250.467 236.400,249.946 235.770,249.200 235.000 C 248.454 234.230,247.753 233.600,247.643 233.600 C 247.533 233.600,248.054 234.230,248.800 235.000 M242.993 257.094 L 264.586 278.789 251.393 278.900 L 238.200 279.011 251.500 279.106 C 258.815 279.158,264.800 279.064,264.800 278.899 C 264.800 278.733,255.035 268.878,243.100 256.999 L 221.400 235.400 242.993 257.094 M252.000 238.200 C 252.746 238.970,253.447 239.600,253.557 239.600 C 253.667 239.600,253.146 238.970,252.400 238.200 C 251.654 237.430,250.953 236.800,250.843 236.800 C 250.733 236.800,251.254 237.430,252.000 238.200 M278.894 251.375 L 278.800 264.550 277.500 263.384 L 276.200 262.218 277.487 263.589 C 279.282 265.499,279.223 265.942,279.100 251.361 L 278.989 238.200 278.894 251.375 M255.200 241.400 C 255.946 242.170,256.647 242.800,256.757 242.800 C 256.867 242.800,256.346 242.170,255.600 241.400 C 254.854 240.630,254.153 240.000,254.043 240.000 C 253.933 240.000,254.454 240.630,255.200 241.400 M258.400 244.600 C 259.146 245.370,259.847 246.000,259.957 246.000 C 260.067 246.000,259.546 245.370,258.800 244.600 C 258.054 243.830,257.353 243.200,257.243 243.200 C 257.133 243.200,257.654 243.830,258.400 244.600 M261.600 247.800 C 262.346 248.570,263.047 249.200,263.157 249.200 C 263.267 249.200,262.746 248.570,262.000 247.800 C 261.254 247.030,260.553 246.400,260.443 246.400 C 260.333 246.400,260.854 247.030,261.600 247.800 M264.800 251.000 C 265.546 251.770,266.247 252.400,266.357 252.400 C 266.467 252.400,265.946 251.770,265.200 251.000 C 264.454 250.230,263.753 249.600,263.643 249.600 C 263.533 249.600,264.054 250.230,264.800 251.000 M268.000 254.200 C 268.746 254.970,269.447 255.600,269.557 255.600 C 269.667 255.600,269.146 254.970,268.400 254.200 C 267.654 253.430,266.953 252.800,266.843 252.800 C 266.733 252.800,267.254 253.430,268.000 254.200 M271.200 257.400 C 271.946 258.170,272.647 258.800,272.757 258.800 C 272.867 258.800,272.346 258.170,271.600 257.400 C 270.854 256.630,270.153 256.000,270.043 256.000 C 269.933 256.000,270.454 256.630,271.200 257.400 M274.400 260.600 C 275.146 261.370,275.847 262.000,275.957 262.000 C 276.067 262.000,275.546 261.370,274.800 260.600 C 274.054 259.830,273.353 259.200,273.243 259.200 C 273.133 259.200,273.654 259.830,274.400 260.600 M135.200 278.900 C 135.200 279.065,141.185 279.161,148.500 279.114 C 161.791 279.028,160.295 278.894,143.900 278.702 C 139.114 278.646,135.199 278.735,135.200 278.900 M139.900 358.300 C 172.955 358.356,227.045 358.356,260.100 358.300 C 293.155 358.244,266.110 358.197,200.000 358.197 C 133.890 358.197,106.845 358.244,139.900 358.300 " stroke="none" fill="#969696" fill-rule="evenodd"></path><path id="path3" d="M273.793 140.100 L 269.400 144.600 273.900 140.207 C 278.080 136.126,278.582 135.600,278.293 135.600 C 278.234 135.600,276.209 137.625,273.793 140.100 M163.800 150.000 C 171.278 157.480,177.486 163.600,177.596 163.600 C 177.706 163.600,171.678 157.480,164.200 150.000 C 156.722 142.520,150.514 136.400,150.404 136.400 C 150.294 136.400,156.322 142.520,163.800 150.000 M156.599 257.300 L 135.800 278.200 156.700 257.401 C 176.127 238.069,177.780 236.400,177.499 236.400 C 177.443 236.400,168.038 245.805,156.599 257.300 " stroke="none" fill="#7c7c7c" fill-rule="evenodd"></path><path id="path4" d="M265.381 148.500 L 263.800 150.200 265.500 148.619 C 267.081 147.148,267.384 146.800,267.081 146.800 C 267.016 146.800,266.251 147.565,265.381 148.500 M249.798 164.100 L 236.200 177.800 249.900 164.202 C 257.435 156.723,263.600 150.558,263.600 150.502 C 263.600 150.220,262.435 151.367,249.798 164.100 M180.101 170.200 C 180.105 171.080,180.187 171.393,180.283 170.895 C 180.379 170.398,180.375 169.678,180.275 169.295 C 180.175 168.913,180.096 169.320,180.101 170.200 M169.700 180.276 C 170.085 180.376,170.715 180.376,171.100 180.276 C 171.485 180.175,171.170 180.093,170.400 180.093 C 169.630 180.093,169.315 180.175,169.700 180.276 M228.900 180.276 C 229.285 180.376,229.915 180.376,230.300 180.276 C 230.685 180.175,230.370 180.093,229.600 180.093 C 228.830 180.093,228.515 180.175,228.900 180.276 M180.093 229.600 C 180.093 230.370,180.175 230.685,180.276 230.300 C 180.376 229.915,180.376 229.285,180.276 228.900 C 180.175 228.515,180.093 228.830,180.093 229.600 " stroke="none" fill="#747474" fill-rule="evenodd"></path></g></svg>