<svg viewBox="0 0 2500 2500" version="1.1" xmlns="http://www.w3.org/2000/svg">
  <radialGradient id="0" cx="332.14" cy="2511.81" r="3263.54" gradientUnits="userSpaceOnUse">
    <stop offset=".09" stop-color="#fa8f21"/>
    <stop offset=".78" stop-color="#d82d7e"/>
  </radialGradient>
  <radialGradient id="1" cx="1516.14" cy="2623.81" r="2572.12" gradientUnits="userSpaceOnUse">
    <stop offset=".64" stop-color="#8c3aaa" stop-opacity="0"/>
    <stop offset="1" stop-color="#8c3aaa"/>
  </radialGradient>
  <symbol id="logo" viewBox="0 0 2500 2500">
    <path
      d="M833.4,1250c0-230.11,186.49-416.7,416.6-416.7s416.7,186.59,416.7,416.7-186.59,416.7-416.7,416.7S833.4,1480.11,833.4,1250m-225.26,0c0,354.5,287.36,641.86,641.86,641.86S1891.86,1604.5,1891.86,1250,1604.5,608.14,1250,608.14,608.14,895.5,608.14,1250M1767.27,582.69a150,150,0,1,0,150.06-149.94h-0.06a150.07,150.07,0,0,0-150,149.94M745,2267.47c-121.87-5.55-188.11-25.85-232.13-43-58.36-22.72-100-49.78-143.78-93.5s-70.88-85.32-93.5-143.68c-17.16-44-37.46-110.26-43-232.13-6.06-131.76-7.27-171.34-7.27-505.15s1.31-373.28,7.27-505.15c5.55-121.87,26-188,43-232.13,22.72-58.36,49.78-100,93.5-143.78s85.32-70.88,143.78-93.5c44-17.16,110.26-37.46,232.13-43,131.76-6.06,171.34-7.27,505-7.27s373.28,1.31,505.15,7.27c121.87,5.55,188,26,232.13,43,58.36,22.62,100,49.78,143.78,93.5s70.78,85.42,93.5,143.78c17.16,44,37.46,110.26,43,232.13,6.06,131.87,7.27,171.34,7.27,505.15s-1.21,373.28-7.27,505.15c-5.55,121.87-25.95,188.11-43,232.13-22.72,58.36-49.78,100-93.5,143.68s-85.42,70.78-143.78,93.5c-44,17.16-110.26,37.46-232.13,43-131.76,6.06-171.34,7.27-505.15,7.27s-373.28-1.21-505-7.27M734.65,7.57c-133.07,6.06-224,27.16-303.41,58.06C349,97.54,279.38,140.35,209.81,209.81S97.54,349,65.63,431.24c-30.9,79.46-52,170.34-58.06,303.41C1.41,867.93,0,910.54,0,1250s1.41,382.07,7.57,515.35c6.06,133.08,27.16,223.95,58.06,303.41,31.91,82.19,74.62,152,144.18,221.43S349,2402.37,431.24,2434.37c79.56,30.9,170.34,52,303.41,58.06C868,2498.49,910.54,2500,1250,2500s382.07-1.41,515.35-7.57c133.08-6.06,223.95-27.16,303.41-58.06,82.19-32,151.86-74.72,221.43-144.18s112.18-139.24,144.18-221.43c30.9-79.46,52.1-170.34,58.06-303.41,6.06-133.38,7.47-175.89,7.47-515.35s-1.41-382.07-7.47-515.35c-6.06-133.08-27.16-224-58.06-303.41-32-82.19-74.72-151.86-144.18-221.43S2150.95,97.54,2068.86,65.63c-79.56-30.9-170.44-52.1-303.41-58.06C1632.17,1.51,1589.56,0,1250.1,0S868,1.41,734.65,7.57"
      />
    <path
      d="M833.4,1250c0-230.11,186.49-416.7,416.6-416.7s416.7,186.59,416.7,416.7-186.59,416.7-416.7,416.7S833.4,1480.11,833.4,1250m-225.26,0c0,354.5,287.36,641.86,641.86,641.86S1891.86,1604.5,1891.86,1250,1604.5,608.14,1250,608.14,608.14,895.5,608.14,1250M1767.27,582.69a150,150,0,1,0,150.06-149.94h-0.06a150.07,150.07,0,0,0-150,149.94M745,2267.47c-121.87-5.55-188.11-25.85-232.13-43-58.36-22.72-100-49.78-143.78-93.5s-70.88-85.32-93.5-143.68c-17.16-44-37.46-110.26-43-232.13-6.06-131.76-7.27-171.34-7.27-505.15s1.31-373.28,7.27-505.15c5.55-121.87,26-188,43-232.13,22.72-58.36,49.78-100,93.5-143.78s85.32-70.88,143.78-93.5c44-17.16,110.26-37.46,232.13-43,131.76-6.06,171.34-7.27,505-7.27s373.28,1.31,505.15,7.27c121.87,5.55,188,26,232.13,43,58.36,22.62,100,49.78,143.78,93.5s70.78,85.42,93.5,143.78c17.16,44,37.46,110.26,43,232.13,6.06,131.87,7.27,171.34,7.27,505.15s-1.21,373.28-7.27,505.15c-5.55,121.87-25.95,188.11-43,232.13-22.72,58.36-49.78,100-93.5,143.68s-85.42,70.78-143.78,93.5c-44,17.16-110.26,37.46-232.13,43-131.76,6.06-171.34,7.27-505.15,7.27s-373.28-1.21-505-7.27M734.65,7.57c-133.07,6.06-224,27.16-303.41,58.06C349,97.54,279.38,140.35,209.81,209.81S97.54,349,65.63,431.24c-30.9,79.46-52,170.34-58.06,303.41C1.41,867.93,0,910.54,0,1250s1.41,382.07,7.57,515.35c6.06,133.08,27.16,223.95,58.06,303.41,31.91,82.19,74.62,152,144.18,221.43S349,2402.37,431.24,2434.37c79.56,30.9,170.34,52,303.41,58.06C868,2498.49,910.54,2500,1250,2500s382.07-1.41,515.35-7.57c133.08-6.06,223.95-27.16,303.41-58.06,82.19-32,151.86-74.72,221.43-144.18s112.18-139.24,144.18-221.43c30.9-79.46,52.1-170.34,58.06-303.41,6.06-133.38,7.47-175.89,7.47-515.35s-1.41-382.07-7.47-515.35c-6.06-133.08-27.16-224-58.06-303.41-32-82.19-74.72-151.86-144.18-221.43S2150.95,97.54,2068.86,65.63c-79.56-30.9-170.44-52.1-303.41-58.06C1632.17,1.51,1589.56,0,1250.1,0S868,1.41,734.65,7.57"
      />
  </symbol>
  <symbol viewBox="0 0 639.24 491.7" id="mirror">
    <path fill="#595959" class="cls-1" d="M-31.2,672.29V356.46L219.44,514.38Z"
          transform="translate(31.2 -269.58)"/>
    <path fill="#595959" class="cls-1"
          d="M357.66,514.39,608,356.61v315.5Zm103.92,0,93.65,59.06V455.32Z"
          transform="translate(31.2 -269.58)"/>
    <path fill="#595959" class="cls-1"
          d="M320.67,337.86h-21c-13.81,0-27.62-.14-41.42,0-3.51,0-5.07-.7-5-4.64q.26-29.45,0-58.89c0-3.83,1.33-4.78,4.94-4.75,19.47.14,38.93.09,58.4,0,2.77,0,4.72.14,4.7,3.88-.16,20.63-.09,41.26-.12,61.89A18.34,18.34,0,0,1,320.67,337.86Z"
          transform="translate(31.2 -269.58)"/>
    <path fill="#595959" class="cls-1"
          d="M321.27,375.85c0,7.89,0,15.36,0,22.82,0,13.48-.09,27,0,40.44,0,3-.5,4.61-4,4.59-20-.11-39.93-.07-59.9,0-2.64,0-4-.78-4-3.67q.13-31.44.19-62.88a4.93,4.93,0,0,1,.52-1.29Z"
          transform="translate(31.2 -269.58)"/>
    <path fill="#595959" class="cls-1"
          d="M320.91,655.07h-67.3c-.13-1.57-.37-3-.37-4.46,0-19.32.13-38.64,0-58,0-3.93.87-5.62,5.24-5.57q28.72.33,57.45,0c4.11,0,5.41,1.17,5.38,5.35-.18,19.48-.05,39-.05,58.45C321.26,652.2,321.05,653.49,320.91,655.07Z"
          transform="translate(31.2 -269.58)"/>
    <path fill="#595959" class="cls-1"
          d="M321.27,727.69c0,9.65-.12,19.3.07,28.95.06,3.44-1,4.66-4.53,4.63q-29.44-.19-58.9,0c-3.85,0-4.78-1.47-4.75-5q.19-29.21,0-58.41c0-3.67,1.14-4.88,4.88-4.85q29.2.24,58.41,0c3.63,0,5,.93,4.89,4.75C321.12,707.72,321.28,717.7,321.27,727.69Z"
          transform="translate(31.2 -269.58)"/>
    <path fill="#595959" class="cls-1"
          d="M321.28,482.24c0,5.29,0,10.74,0,16.19,0,15.5-.14,31,0,46.49,0,3.49-.93,4.63-4.47,4.61q-29.49-.22-59,0c-3.39,0-4.66-.89-4.63-4.49.16-19.67.09-39.33.09-59,0-2.42-.18-4.62,3.46-4.6,20.83.12,41.66.09,62.49.13A9.35,9.35,0,0,1,321.28,482.24Z"
          transform="translate(31.2 -269.58)"/>
  </symbol>
  <symbol viewBox="0 0 24 24" id="fill">
    <path stroke="none" fill="none" class="st0" d="M0,0h24v24H0V0z"/>
    <path stroke="none" fill="#595959" d="M6,6h12v12H6V6z M6,2h2v3H6V2z M6,19h2v3H6V19z M2,6h3v2H2V6z M2,16h3v2H2V16z M19,6h3v2h-3V6z M19,16h3v2h-3
		V16z M16,2h2v3h-2V2z M16,19h2v3h-2V19z"/>
  </symbol>
  <symbol viewBox="0 0 48 48" id="rotate">
    <path stroke="none" fill="#595959" class="cls-2"
          d="M304.83,378.46c.88-1.67-.32-3.61,1.83-5.06,4.65,2.56,9.21,5.81,14.92,8.19-5.1,4.52-10.33,8-15.51,11.81-1.41-2.31-.34-4.31-1.11-6-5.15-.91-9.72,2.83-11.12,9-1,4.41.35,8.07,3.26,11.36,3.06,3.47,7.35,3.18,11.27,3.71,5.42-2.28,9.46-5.81,9.87-12.26a30.66,30.66,0,0,1,7.87-.15c-.51,11.13-7.89,19.12-19.34,19.88-8.83.59-17.73-4.15-20.7-15.91-1.48-5.87.06-11.48,3.93-16.51S299.43,380,304.83,378.46Z"
          transform="translate(-282 -372)"/>
  </symbol>
  <symbol viewBox="0 0 73.73 73.73" id="scale">
    <path stroke="none" fill="#595959" class="cls-2"
          d="M333.75,396.25v21.82a5.37,5.37,0,0,1-5.64,5.66H284.32a5.51,5.51,0,0,1-5.69-5.67q0-21.85,0-43.71a5.6,5.6,0,0,1,5.7-5.73h43.79a5.5,5.5,0,0,1,5.63,5.66Zm-5.47-21.78L284.5,418.25h43.78Zm-33.12,8c2.54,0,5.09,0,7.63,0,.57,0,.75-.18.73-.74,0-1.41,0-2.83,0-4.25,0-.46-.15-.62-.62-.62q-7.71,0-15.41,0c-.47,0-.62.17-.61.63,0,1.42,0,2.83,0,4.25,0,.58.19.73.74.72C290.12,382.43,292.64,382.44,295.16,382.44Z"
          transform="translate(-269.35 -359.35)"/>
    <path stroke="none" fill="#595959" class="cls-2"
          d="M314.56,399H320v1.65c0,1.05,0,2.11,0,3.16,0,.55.18.71.7.7,1.32,0,2.64,0,4,0,.25,0,.51,0,.81,0V410H323.8c-1.06,0-2.11,0-3.17,0-.51,0-.66.18-.65.67,0,1.32,0,2.64,0,4v.83h-5.38c0-.27-.05-.54-.05-.82,0-1.29,0-2.59,0-3.88,0-.61-.2-.78-.79-.76-1.36,0-2.73,0-4.1,0-.48,0-.68-.13-.67-.65,0-1.55,0-3.1,0-4.78h2.05c.94,0,1.88,0,2.81,0,.54,0,.71-.19.7-.71,0-1.32,0-2.64,0-4Z"
          transform="translate(-269.35 -359.35)"/>
  </symbol>
  <symbol id="arrow" viewBox="0 0 7 12" xmlns="http://www.w3.org/2000/svg"
          xmlns:xlink="http://www.w3.org/1999/xlink">
    <!-- Generator: Sketch 52.5 (67469) - http://www.bohemiancoding.com/sketch -->
    <title>keyboard_arrow_right</title>
    <desc>Created with Sketch.</desc>
    <g id="Icons" stroke="none" stroke-width="1" fill="none" fill-rule="evenodd">
      <g id="Rounded" transform="translate(-687.000000, -2464.000000)">
        <g id="Hardware" transform="translate(100.000000, 2404.000000)">
          <g id="-Round-/-Hardware-/-keyboard_arrow_right"
             transform="translate(578.000000, 54.000000)">
            <g>
              <rect id="Rectangle-Copy-105" x="0" y="0" width="24" height="24"></rect>
              <path
                d="M9.29,15.88 L13.17,12 L9.29,8.12 C8.9,7.73 8.9,7.1 9.29,6.71 C9.68,6.32 10.31,6.32 10.7,6.71 L15.29,11.3 C15.68,11.69 15.68,12.32 15.29,12.71 L10.7,17.3 C10.31,17.69 9.68,17.69 9.29,17.3 C8.91,16.91 8.9,16.27 9.29,15.88 Z"
                id="🔹-Icon-Color" fill="#1D1D1D"></path>
            </g>
          </g>
        </g>
      </g>
    </g>
  </symbol>
</svg>

