<svg width="0" height="0" class="hidden">
  <symbol xmlns="http://www.w3.org/2000/svg"  viewBox="0 0 65 65" width="80px" height="80px" id="main"><path fill="#8585cc" d="M30.5,38.5c4.418,0,8-3.582,8-8v-21c0-4.418-3.582-8-8-8h-21c-4.418,0-8,3.582-8,8v21 c0,4.418,3.582,8,8,8H30.5z"/><path fill="#8d8dd8" d="M3.4,4.331C2.217,5.726,1.5,7.528,1.5,9.5v21c0,4.418,3.582,8,8,8h21c4.418,0,8-3.582,8-8v-21 c0-0.503-0.052-0.992-0.141-1.469C32.135,4.22,24.832,2,17,2C12.229,2,7.657,2.832,3.4,4.331z"/><path fill="#bd82f4" d="M1.505,9.404C1.504,9.437,1.5,9.468,1.5,9.5v21c0,4.418,3.582,8,8,8h21c4.418,0,8-3.582,8-8V12.897 C32.439,8.56,25.021,6,17,6C11.465,6,6.22,7.226,1.505,9.404z"/><path fill="#ed73f4" d="M1.5,13.88V30.5c0,4.418,3.582,8,8,8h21c4.418,0,8-3.582,8-8V17.981C32.724,13.013,25.217,10,17,10 C11.394,10,6.124,11.414,1.5,13.88z"/><path fill="#f97dcd" d="M17,14c-5.705,0-11.014,1.664-15.5,4.509V30.5c0,4.418,3.582,8,8,8h21c4.418,0,8-3.582,8-8v-6.935 C33.194,17.698,25.534,14,17,14z"/><path fill="#fc9c95" d="M17,18c-5.861,0-11.237,2.033-15.5,5.411V30.5c0,4.418,3.582,8,8,8h21c4.418,0,8-3.582,8-8v-0.238 C34.143,22.925,26.152,18,17,18z"/><path fill="#ffac99" d="M17,22c-6.145,0-11.66,2.651-15.5,6.859V30.5c0,4.418,3.582,8,8,8h21c2.465,0,4.668-1.117,6.136-2.87 C33.648,27.674,25.999,22,17,22z"/><path fill="#ffc49c" d="M30.5,38.5c0.957,0,1.87-0.177,2.721-0.485C31.087,31.065,24.649,26,17,26 c-6.186,0-11.592,3.309-14.566,8.248C3.778,36.777,6.437,38.5,9.5,38.5H30.5z"/><path fill="#ffde8d" d="M17,30c-5.137,0-9.573,2.984-11.684,7.309C6.535,38.06,7.964,38.5,9.5,38.5h19.683 C27.35,33.542,22.595,30,17,30z"/><path fill="#fff69f" d="M17,34c-3.319,0-6.193,1.813-7.753,4.487C9.332,38.49,9.415,38.5,9.5,38.5h15.26 C23.203,35.818,20.324,34,17,34z"/><path fill="#8b75a1" d="M31,2c3.86,0,7,3.14,7,7v22c0,3.86-3.14,7-7,7H9c-3.86,0-7-3.14-7-7V9c0-3.86,3.14-7,7-7H31 M31,1H9 C4.582,1,1,4.582,1,9v22c0,4.418,3.582,8,8,8h22c4.418,0,8-3.582,8-8V9C39,4.582,35.418,1,31,1L31,1z"/><path fill="#fff" d="M27.5 11A1.5 1.5 0 1 0 27.5 14A1.5 1.5 0 1 0 27.5 11Z"/><path fill="none" stroke="#fff" stroke-miterlimit="10" stroke-width="2" d="M20 14A6 6 0 1 0 20 26A6 6 0 1 0 20 14Z"/><path fill="none" stroke="#fff" stroke-miterlimit="10" stroke-width="2" d="M33,14.5c0-4.142-3.358-7.5-7.5-7.5 c-2.176,0-8.824,0-11,0C10.358,7,7,10.358,7,14.5c0,2.176,0,8.824,0,11c0,4.142,3.358,7.5,7.5,7.5c2.176,0,8.824,0,11,0 c4.142,0,7.5-3.358,7.5-7.5C33,23.324,33,16.676,33,14.5z"/></symbol>
  <symbol version="1.1" xmlns="http://www.w3.org/2000/svg" xmlns:xlink="http://www.w3.org/1999/xlink" viewBox="0 0 16 16" id="flip">
    <path fill="#444" d="M0 15l6-5-6-4.9z"></path>
    <path fill="#444" d="M9 10.1l6 4.9v-10l-6 5.1zM14 12.9l-3.4-2.8 3.4-3v5.8z"></path>
    <path fill="#444" d="M7 5h1v1h-1v-1z"></path>
    <path fill="#444" d="M7 3h1v1h-1v-1z"></path>
    <path fill="#444" d="M7 7h1v1h-1v-1z"></path>
    <path fill="#444" d="M7 9h1v1h-1v-1z"></path>
    <path fill="#444" d="M7 11h1v1h-1v-1z"></path>
    <path fill="#444" d="M7 13h1v1h-1v-1z"></path>
    <path fill="#444" d="M7 15h1v1h-1v-1z"></path>
    <path fill="#444" d="M7.5 1v0c1.3 0 2.6 0.7 3.6 1.9l-1.1 1.1h3v-3l-1.2 1.2c-1.2-1.4-2.7-2.2-4.3-2.2 0 0 0 0 0 0-1.9 0-3.6 1-4.9 2.9l0.8 0.6c1.1-1.6 2.5-2.5 4.1-2.5z"></path>
  </symbol>
  <symbol version="1.1" xmlns="http://www.w3.org/2000/svg" xmlns:xlink="http://www.w3.org/1999/xlink" viewBox="0 0 24 24" id="square">
    <title>ic_fluent_full_screen_zoom_24_regular</title>
    <desc>Created with Sketch.</desc>
    <g id="ðŸ”-Product-Icons" stroke="none" stroke-width="1" fill="none" fill-rule="evenodd">
      <g id="ic_fluent_full_screen_zoom_24_regular" fill="#212121" fill-rule="nonzero">
        <path d="M16.25,15.5 L20.25,15.5 C20.6642136,15.5 21,15.8357864 21,16.25 C21,16.6296958 20.7178461,16.943491 20.3517706,16.9931534 L20.25,17 L17,17 L17,20.25 C17,20.6642136 16.6642136,21 16.25,21 C15.8703042,21 15.556509,20.7178461 15.5068466,20.3517706 L15.5,20.25 L15.5,16.25 C15.5,15.8703042 15.7821539,15.556509 16.1482294,15.5068466 L16.25,15.5 L20.25,15.5 L16.25,15.5 Z M3.75,15.5 L7.75,15.5 C8.12969577,15.5 8.44349096,15.7821539 8.49315338,16.1482294 L8.5,16.25 L8.5,20.25 C8.5,20.6642136 8.16421356,21 7.75,21 C7.37030423,21 7.05650904,20.7178461 7.00684662,20.3517706 L7,20.25 L7,17 L3.75,17 C3.33578644,17 3,16.6642136 3,16.25 C3,15.8703042 3.28215388,15.556509 3.64822944,15.5068466 L3.75,15.5 L7.75,15.5 L3.75,15.5 Z M7.75,3 C8.12969577,3 8.44349096,3.28215388 8.49315338,3.64822944 L8.5,3.75 L8.5,7.75 C8.5,8.12969577 8.21784612,8.44349096 7.85177056,8.49315338 L7.75,8.5 L3.75,8.5 C3.33578644,8.5 3,8.16421356 3,7.75 C3,7.37030423 3.28215388,7.05650904 3.64822944,7.00684662 L3.75,7 L7,7 L7,3.75 C7,3.33578644 7.33578644,3 7.75,3 Z M16.25,3 C16.6296958,3 16.943491,3.28215388 16.9931534,3.64822944 L17,3.75 L17,7 L20.25,7 C20.6642136,7 21,7.33578644 21,7.75 C21,8.12969577 20.7178461,8.44349096 20.3517706,8.49315338 L20.25,8.5 L16.25,8.5 C15.8703042,8.5 15.556509,8.21784612 15.5068466,7.85177056 L15.5,7.75 L15.5,3.75 C15.5,3.33578644 15.8357864,3 16.25,3 Z" id="ðŸŽ¨-Color"></path>
      </g>
    </g>
  </symbol>
  <symbol version="1.1" id="zoom" xmlns="http://www.w3.org/2000/svg" xmlns:xlink="http://www.w3.org/1999/xlink" x="0px" y="0px" xml:space="preserve" viewBox="0 0 206.166 206.166">
      <g>
        <g>
          <g>
            <path d="M176.009,30.157c-40.209-40.209-105.643-40.209-145.852,0c-40.209,40.211-40.209,105.639,0,145.852
          c20.105,20.105,46.516,30.157,72.926,30.157s52.822-10.052,72.926-30.157C216.218,135.797,216.218,70.368,176.009,30.157z
           M35.766,35.766C54.324,17.207,78.706,7.93,103.083,7.93c23.145,0,46.291,8.363,64.454,25.09L33.019,167.537
          C-1.325,130.238-0.411,71.944,35.766,35.766z M170.4,170.4c-36.18,36.176-94.48,37.091-131.771,2.747L173.146,38.629
          C207.49,75.927,206.576,134.22,170.4,170.4z"></path>
            <path d="M91.384,59.732H75.316V43.583c0-2.19-1.774-3.967-3.967-3.967s-3.967,1.776-3.967,3.967v16.149H51.718
          c-2.192,0-3.967,1.776-3.967,3.967c0,2.191,1.774,3.967,3.966,3.967h15.665V83.25c0,2.19,1.774,3.967,3.967,3.967
          s3.967-1.776,3.967-3.967V67.666h16.068c2.192,0,3.967-1.776,3.967-3.967C95.351,61.509,93.577,59.732,91.384,59.732z"></path>
            <path d="M154.649,134.816h-39.667c-2.192,0-3.967,1.774-3.967,3.967s1.774,3.967,3.967,3.967h39.667
          c2.192,0,3.967-1.774,3.967-3.967S156.842,134.816,154.649,134.816z"></path>
          </g>
        </g>
      </g>
    </symbol>
  <symbol xmlns="http://www.w3.org/2000/svg" viewBox="0 0 24 24" id="rotate">
    <path fill-rule="evenodd" d="M6.19306266,7 L10,7 L10,9 L3,9 L3,2 L5,2 L5,5.27034886 C6.72510698,3.18251178 9.19576641,2 12,2 C17.5228475,2 22,6.4771525 22,12 C22,17.5228475 17.5228475,22 12,22 C6.4771525,22 2,17.5228475 2,12 L4,12 C4,16.418278 7.581722,20 12,20 C16.418278,20 20,16.418278 20,12 C20,7.581722 16.418278,4 12,4 C9.60637619,4 7.55353989,5.07869636 6.19306266,7 Z"></path>
  </symbol>
</svg>
