<svg id="svg" version="1.1" xmlns="http://www.w3.org/2000/svg" xmlns:xlink="http://www.w3.org/1999/xlink" width="400" height="400" viewBox="0, 0, 400,400"><g id="svgg"><path id="path0" d="M39.300 0.295 C 38.145 0.376,37.200 0.612,37.200 0.821 C 37.200 1.029,36.581 1.200,35.824 1.200 C 35.067 1.200,34.336 1.380,34.200 1.600 C 34.064 1.820,33.603 2.000,33.176 2.000 C 32.749 2.000,32.400 2.180,32.400 2.400 C 32.400 2.620,31.860 2.800,31.200 2.800 C 30.540 2.800,30.000 2.980,30.000 3.200 C 30.000 3.420,29.640 3.600,29.200 3.600 C 28.760 3.600,28.400 3.780,28.400 4.000 C 28.400 4.220,28.040 4.400,27.600 4.400 C 27.160 4.400,26.800 4.546,26.800 4.725 C 26.800 4.904,26.170 5.298,25.400 5.600 C 24.630 5.902,24.000 6.296,24.000 6.475 C 24.000 6.654,23.680 6.800,23.288 6.800 C 22.897 6.800,22.317 7.160,22.000 7.600 C 21.683 8.040,21.186 8.400,20.895 8.400 C 20.355 8.400,20.104 8.579,17.949 10.500 C 17.271 11.105,16.574 11.600,16.401 11.600 C 15.991 11.600,11.600 15.991,11.600 16.401 C 11.600 16.574,11.059 17.319,10.399 18.058 C 8.532 20.143,8.400 20.331,8.400 20.895 C 8.400 21.186,8.040 21.683,7.600 22.000 C 7.160 22.317,6.800 22.897,6.800 23.288 C 6.800 23.680,6.654 24.000,6.475 24.000 C 6.296 24.000,5.902 24.630,5.600 25.400 C 5.298 26.170,4.904 26.800,4.725 26.800 C 4.546 26.800,4.400 27.160,4.400 27.600 C 4.400 28.040,4.220 28.400,4.000 28.400 C 3.780 28.400,3.600 28.760,3.600 29.200 C 3.600 29.640,3.420 30.000,3.200 30.000 C 2.980 30.000,2.800 30.540,2.800 31.200 C 2.800 31.860,2.620 32.400,2.400 32.400 C 2.180 32.400,2.000 32.749,2.000 33.176 C 2.000 33.603,1.820 34.064,1.600 34.200 C 1.380 34.336,1.200 35.052,1.200 35.790 C 1.200 36.529,0.975 37.208,0.700 37.300 C 0.304 37.432,0.176 49.196,0.087 93.933 L -0.026 150.400 25.187 150.400 L 50.400 150.400 50.400 112.800 C 50.400 88.000,50.536 75.200,50.800 75.200 C 51.025 75.200,51.200 74.075,51.200 72.624 C 51.200 71.207,51.380 69.936,51.600 69.800 C 51.820 69.664,52.000 69.034,52.000 68.400 C 52.000 67.766,52.180 67.136,52.400 67.000 C 52.620 66.864,52.800 66.403,52.800 65.976 C 52.800 65.549,52.980 65.200,53.200 65.200 C 53.420 65.200,53.600 64.840,53.600 64.400 C 53.600 63.960,53.780 63.600,54.000 63.600 C 54.220 63.600,54.400 63.322,54.400 62.982 C 54.400 62.642,54.850 61.914,55.400 61.364 C 55.950 60.814,56.400 60.192,56.400 59.982 C 56.400 59.485,59.485 56.400,59.982 56.400 C 60.192 56.400,60.814 55.950,61.364 55.400 C 61.914 54.850,62.642 54.400,62.982 54.400 C 63.322 54.400,63.600 54.220,63.600 54.000 C 63.600 53.780,63.960 53.600,64.400 53.600 C 64.840 53.600,65.200 53.420,65.200 53.200 C 65.200 52.980,65.549 52.800,65.976 52.800 C 66.403 52.800,66.864 52.620,67.000 52.400 C 67.136 52.180,67.766 52.000,68.400 52.000 C 69.034 52.000,69.664 51.820,69.800 51.600 C 69.936 51.380,71.207 51.200,72.624 51.200 C 74.075 51.200,75.200 51.025,75.200 50.800 C 75.200 50.536,88.000 50.400,112.800 50.400 L 150.400 50.400 150.400 25.200 L 150.400 0.000 95.900 0.074 C 65.925 0.115,40.455 0.214,39.300 0.295 M249.600 25.187 L 249.600 50.400 287.200 50.400 C 312.000 50.400,324.800 50.536,324.800 50.800 C 324.800 51.025,325.925 51.200,327.376 51.200 C 328.793 51.200,330.064 51.380,330.200 51.600 C 330.336 51.820,330.966 52.000,331.600 52.000 C 332.234 52.000,332.864 52.180,333.000 52.400 C 333.136 52.620,333.597 52.800,334.024 52.800 C 334.451 52.800,334.800 52.980,334.800 53.200 C 334.800 53.420,335.160 53.600,335.600 53.600 C 336.040 53.600,336.400 53.780,336.400 54.000 C 336.400 54.220,336.678 54.400,337.018 54.400 C 337.358 54.400,338.086 54.850,338.636 55.400 C 339.186 55.950,339.808 56.400,340.018 56.400 C 340.515 56.400,343.600 59.485,343.600 59.982 C 343.600 60.192,344.050 60.814,344.600 61.364 C 345.150 61.914,345.600 62.642,345.600 62.982 C 345.600 63.322,345.780 63.600,346.000 63.600 C 346.220 63.600,346.400 63.960,346.400 64.400 C 346.400 64.840,346.580 65.200,346.800 65.200 C 347.020 65.200,347.200 65.549,347.200 65.976 C 347.200 66.403,347.380 66.864,347.600 67.000 C 347.820 67.136,348.000 67.766,348.000 68.400 C 348.000 69.034,348.180 69.664,348.400 69.800 C 348.620 69.936,348.800 71.207,348.800 72.624 C 348.800 74.075,348.975 75.200,349.200 75.200 C 349.464 75.200,349.600 88.000,349.600 112.800 L 349.600 150.400 374.813 150.400 L 400.026 150.400 399.913 93.933 C 399.824 49.196,399.696 37.432,399.300 37.300 C 399.025 37.208,398.800 36.529,398.800 35.790 C 398.800 35.052,398.620 34.336,398.400 34.200 C 398.180 34.064,398.000 33.603,398.000 33.176 C 398.000 32.749,397.820 32.400,397.600 32.400 C 397.380 32.400,397.200 31.860,397.200 31.200 C 397.200 30.540,397.020 30.000,396.800 30.000 C 396.580 30.000,396.400 29.640,396.400 29.200 C 396.400 28.760,396.220 28.400,396.000 28.400 C 395.780 28.400,395.600 28.040,395.600 27.600 C 395.600 27.160,395.454 26.800,395.275 26.800 C 395.096 26.800,394.702 26.170,394.400 25.400 C 394.098 24.630,393.704 24.000,393.525 24.000 C 393.346 24.000,393.200 23.680,393.200 23.288 C 393.200 22.897,392.840 22.317,392.400 22.000 C 391.960 21.683,391.600 21.186,391.600 20.895 C 391.600 20.343,391.443 20.121,389.551 18.004 C 388.918 17.295,388.400 16.574,388.400 16.401 C 388.400 15.991,384.009 11.600,383.599 11.600 C 383.426 11.600,382.729 11.105,382.051 10.500 C 379.896 8.579,379.645 8.400,379.105 8.400 C 378.814 8.400,378.317 8.040,378.000 7.600 C 377.683 7.160,377.103 6.800,376.712 6.800 C 376.320 6.800,376.000 6.654,376.000 6.475 C 376.000 6.296,375.370 5.902,374.600 5.600 C 373.830 5.298,373.200 4.904,373.200 4.725 C 373.200 4.546,372.840 4.400,372.400 4.400 C 371.960 4.400,371.600 4.220,371.600 4.000 C 371.600 3.780,371.240 3.600,370.800 3.600 C 370.360 3.600,370.000 3.420,370.000 3.200 C 370.000 2.980,369.460 2.800,368.800 2.800 C 368.140 2.800,367.600 2.620,367.600 2.400 C 367.600 2.180,367.251 2.000,366.824 2.000 C 366.397 2.000,365.936 1.820,365.800 1.600 C 365.664 1.380,364.948 1.200,364.210 1.200 C 363.471 1.200,362.792 0.975,362.700 0.700 C 362.568 0.304,350.804 0.176,306.067 0.087 L 249.600 -0.026 249.600 25.187 M0.087 306.067 C 0.176 350.804,0.304 362.568,0.700 362.700 C 0.975 362.792,1.200 363.471,1.200 364.210 C 1.200 364.948,1.380 365.664,1.600 365.800 C 1.820 365.936,2.000 366.397,2.000 366.824 C 2.000 367.251,2.180 367.600,2.400 367.600 C 2.620 367.600,2.800 368.140,2.800 368.800 C 2.800 369.460,2.980 370.000,3.200 370.000 C 3.420 370.000,3.600 370.360,3.600 370.800 C 3.600 371.240,3.780 371.600,4.000 371.600 C 4.220 371.600,4.400 371.960,4.400 372.400 C 4.400 372.840,4.546 373.200,4.725 373.200 C 4.904 373.200,5.298 373.830,5.600 374.600 C 5.902 375.370,6.296 376.000,6.475 376.000 C 6.654 376.000,6.800 376.320,6.800 376.712 C 6.800 377.103,7.160 377.683,7.600 378.000 C 8.040 378.317,8.400 378.814,8.400 379.105 C 8.400 379.669,8.532 379.857,10.399 381.942 C 11.059 382.681,11.600 383.426,11.600 383.599 C 11.600 384.009,15.991 388.400,16.401 388.400 C 16.574 388.400,17.295 388.918,18.004 389.551 C 20.121 391.443,20.343 391.600,20.895 391.600 C 21.186 391.600,21.683 391.960,22.000 392.400 C 22.317 392.840,22.897 393.200,23.288 393.200 C 23.680 393.200,24.000 393.346,24.000 393.525 C 24.000 393.704,24.630 394.098,25.400 394.400 C 26.170 394.702,26.800 395.096,26.800 395.275 C 26.800 395.454,27.160 395.600,27.600 395.600 C 28.040 395.600,28.400 395.780,28.400 396.000 C 28.400 396.220,28.760 396.400,29.200 396.400 C 29.640 396.400,30.000 396.580,30.000 396.800 C 30.000 397.020,30.540 397.200,31.200 397.200 C 31.860 397.200,32.400 397.380,32.400 397.600 C 32.400 397.820,32.749 398.000,33.176 398.000 C 33.603 398.000,34.064 398.180,34.200 398.400 C 34.336 398.620,35.052 398.800,35.790 398.800 C 36.529 398.800,37.208 399.025,37.300 399.300 C 37.432 399.696,49.196 399.824,93.933 399.913 L 150.400 400.026 150.400 374.813 L 150.400 349.600 112.800 349.600 C 88.000 349.600,75.200 349.464,75.200 349.200 C 75.200 348.975,74.075 348.800,72.624 348.800 C 71.207 348.800,69.936 348.620,69.800 348.400 C 69.664 348.180,69.034 348.000,68.400 348.000 C 67.766 348.000,67.136 347.820,67.000 347.600 C 66.864 347.380,66.403 347.200,65.976 347.200 C 65.549 347.200,65.200 347.020,65.200 346.800 C 65.200 346.580,64.840 346.400,64.400 346.400 C 63.960 346.400,63.600 346.220,63.600 346.000 C 63.600 345.780,63.322 345.600,62.982 345.600 C 62.642 345.600,61.914 345.150,61.364 344.600 C 60.814 344.050,60.192 343.600,59.982 343.600 C 59.485 343.600,56.400 340.515,56.400 340.018 C 56.400 339.808,55.950 339.186,55.400 338.636 C 54.850 338.086,54.400 337.358,54.400 337.018 C 54.400 336.678,54.220 336.400,54.000 336.400 C 53.780 336.400,53.600 336.040,53.600 335.600 C 53.600 335.160,53.420 334.800,53.200 334.800 C 52.980 334.800,52.800 334.451,52.800 334.024 C 52.800 333.597,52.620 333.136,52.400 333.000 C 52.180 332.864,52.000 332.234,52.000 331.600 C 52.000 330.966,51.820 330.336,51.600 330.200 C 51.380 330.064,51.200 328.793,51.200 327.376 C 51.200 325.925,51.025 324.800,50.800 324.800 C 50.536 324.800,50.400 312.000,50.400 287.200 L 50.400 249.600 25.187 249.600 L -0.026 249.600 0.087 306.067 M349.600 287.200 C 349.600 312.000,349.464 324.800,349.200 324.800 C 348.975 324.800,348.800 325.925,348.800 327.376 C 348.800 328.793,348.620 330.064,348.400 330.200 C 348.180 330.336,348.000 330.966,348.000 331.600 C 348.000 332.234,347.820 332.864,347.600 333.000 C 347.380 333.136,347.200 333.597,347.200 334.024 C 347.200 334.451,347.020 334.800,346.800 334.800 C 346.580 334.800,346.400 335.160,346.400 335.600 C 346.400 336.040,346.220 336.400,346.000 336.400 C 345.780 336.400,345.600 336.678,345.600 337.018 C 345.600 337.358,345.150 338.086,344.600 338.636 C 344.050 339.186,343.600 339.808,343.600 340.018 C 343.600 340.515,340.515 343.600,340.018 343.600 C 339.808 343.600,339.186 344.050,338.636 344.600 C 338.086 345.150,337.358 345.600,337.018 345.600 C 336.678 345.600,336.400 345.780,336.400 346.000 C 336.400 346.220,336.040 346.400,335.600 346.400 C 335.160 346.400,334.800 346.580,334.800 346.800 C 334.800 347.020,334.451 347.200,334.024 347.200 C 333.597 347.200,333.136 347.380,333.000 347.600 C 332.864 347.820,332.234 348.000,331.600 348.000 C 330.966 348.000,330.336 348.180,330.200 348.400 C 330.064 348.620,328.793 348.800,327.376 348.800 C 325.925 348.800,324.800 348.975,324.800 349.200 C 324.800 349.464,312.000 349.600,287.200 349.600 L 249.600 349.600 249.600 374.813 L 249.600 400.026 306.067 399.913 C 350.804 399.824,362.568 399.696,362.700 399.300 C 362.792 399.025,363.471 398.800,364.210 398.800 C 364.948 398.800,365.664 398.620,365.800 398.400 C 365.936 398.180,366.397 398.000,366.824 398.000 C 367.251 398.000,367.600 397.820,367.600 397.600 C 367.600 397.380,368.140 397.200,368.800 397.200 C 369.460 397.200,370.000 397.020,370.000 396.800 C 370.000 396.580,370.360 396.400,370.800 396.400 C 371.240 396.400,371.600 396.220,371.600 396.000 C 371.600 395.780,371.960 395.600,372.400 395.600 C 372.840 395.600,373.200 395.454,373.200 395.275 C 373.200 395.096,373.830 394.702,374.600 394.400 C 375.370 394.098,376.000 393.704,376.000 393.525 C 376.000 393.346,376.320 393.200,376.712 393.200 C 377.103 393.200,377.683 392.840,378.000 392.400 C 378.317 391.960,378.814 391.600,379.105 391.600 C 379.657 391.600,379.879 391.443,381.996 389.551 C 382.705 388.918,383.426 388.400,383.599 388.400 C 384.009 388.400,388.400 384.009,388.400 383.599 C 388.400 383.426,388.941 382.681,389.601 381.942 C 391.468 379.857,391.600 379.669,391.600 379.105 C 391.600 378.814,391.960 378.317,392.400 378.000 C 392.840 377.683,393.200 377.103,393.200 376.712 C 393.200 376.320,393.346 376.000,393.525 376.000 C 393.704 376.000,394.098 375.370,394.400 374.600 C 394.702 373.830,395.096 373.200,395.275 373.200 C 395.454 373.200,395.600 372.840,395.600 372.400 C 395.600 371.960,395.780 371.600,396.000 371.600 C 396.220 371.600,396.400 371.240,396.400 370.800 C 396.400 370.360,396.580 370.000,396.800 370.000 C 397.020 370.000,397.200 369.460,397.200 368.800 C 397.200 368.140,397.380 367.600,397.600 367.600 C 397.820 367.600,398.000 367.251,398.000 366.824 C 398.000 366.397,398.180 365.936,398.400 365.800 C 398.620 365.664,398.800 364.948,398.800 364.210 C 398.800 363.471,399.025 362.792,399.300 362.700 C 399.696 362.568,399.824 350.804,399.913 306.067 L 400.026 249.600 374.813 249.600 L 349.600 249.600 349.600 287.200 " stroke="none" fill="#040404" fill-rule="evenodd"></path><path id="path1" d="" stroke="none" fill="#080404" fill-rule="evenodd"></path><path id="path2" d="" stroke="none" fill="#080404" fill-rule="evenodd"></path><path id="path3" d="" stroke="none" fill="#080404" fill-rule="evenodd"></path><path id="path4" d="" stroke="none" fill="#080404" fill-rule="evenodd"></path></g></svg>